<svg width="260" height="112" viewBox="0 0 260 112" fill="none" xmlns="http://www.w3.org/2000/svg">
<path d="M26.32 60.56C26.32 57.68 25.6533 55.36 24.32 53.6C22.9867 51.7867 20.8267 50.88 17.84 50.88C14.8 50.88 12.64 51.7867 11.36 53.6C10.08 55.4133 9.44 57.7333 9.44 60.56C9.44 63.6 10.16 66 11.6 67.76C13.04 69.4667 15.12 70.32 17.84 70.32C20.6667 70.32 22.7733 69.4133 24.16 67.6C25.6 65.7867 26.32 63.44 26.32 60.56ZM32.88 60.56C32.88 62.5333 32.5867 64.48 32 66.4C31.4667 68.2667 30.5867 69.9467 29.36 71.44C28.1867 72.88 26.64 74.0533 24.72 74.96C22.8533 75.8667 20.5867 76.32 17.92 76.32C15.0933 76.32 12.72 75.8933 10.8 75.04C8.93333 74.1333 7.38667 72.9333 6.16 71.44C4.98667 69.9467 4.13333 68.2667 3.6 66.4C3.12 64.5333 2.88 62.5867 2.88 60.56C2.88 58.48 3.2 56.48 3.84 54.56C4.48 52.64 5.41333 50.96 6.64 49.52C7.92 48.08 9.49333 46.9333 11.36 46.08C13.2267 45.1733 15.4133 44.72 17.92 44.72C20.3733 44.72 22.5333 45.1467 24.4 46C26.32 46.8533 27.8933 48 29.12 49.44C30.3467 50.88 31.28 52.56 31.92 54.48C32.56 56.4 32.88 58.4267 32.88 60.56ZM43.92 37.36C44.6667 36.72 45.5467 36.56 46.56 36.88C47.5733 37.1467 48.3733 37.6 48.96 38.24C50.0267 39.4133 50.88 40.7733 51.52 42.32C52.2133 43.8133 52.56 45.36 52.56 46.96L51.92 81.04C51.8667 81.84 51.7867 82.7467 51.68 83.76C51.5733 84.72 51.4133 85.6267 51.2 86.48C50.9333 87.3867 50.56 88.16 50.08 88.8C49.6 89.3867 49.0133 89.7067 48.32 89.76C47.7333 89.8133 47.2533 89.6 46.88 89.12C46.5067 88.5867 46.2133 87.92 46 87.12C45.7333 86.3733 45.5467 85.6 45.44 84.8C45.3867 84 45.36 83.3067 45.36 82.72L45.68 49.36C45.68 48.56 45.6 47.6267 45.44 46.56C45.3333 45.4933 45.0933 44.56 44.72 43.76C44.4533 43.28 44.1867 42.7733 43.92 42.24C43.6533 41.6533 43.44 41.0667 43.28 40.48C43.12 39.8933 43.0667 39.3333 43.12 38.8C43.2267 38.2667 43.4933 37.7867 43.92 37.36ZM15.04 88.96C14.7733 88.32 14.6667 87.6 14.72 86.8C14.8267 85.9467 15.3867 85.28 16.4 84.8C16.9867 84.48 17.68 84.4 18.48 84.56C19.28 84.6667 19.8667 85.0133 20.24 85.6C20.6667 86.3467 21.04 87.3067 21.36 88.48C21.7333 89.6533 22.08 90.88 22.4 92.16C22.6667 93.4933 22.88 94.8267 23.04 96.16C23.2533 97.4933 23.44 98.6933 23.6 99.76C28.24 100.4 32.96 100.667 37.76 100.56C42.6133 100.453 47.04 100.24 51.04 99.92C52 99.8667 52.6933 100.08 53.12 100.56C53.6 101.093 53.8667 101.707 53.92 102.4C53.92 103.36 53.6533 104.107 53.12 104.64C52.64 105.173 52.08 105.467 51.44 105.52C47.12 106.107 42.64 106.4 38 106.4C33.36 106.4 28.8533 106.16 24.48 105.68C23.84 105.627 23.12 105.52 22.32 105.36C21.5733 105.2 20.8533 104.933 20.16 104.56C19.4667 104.187 18.8533 103.68 18.32 103.04C17.7867 102.4 17.44 101.573 17.28 100.56C17.0667 99.6 16.88 98.5867 16.72 97.52C16.56 96.4 16.4 95.3333 16.24 94.32C16.0267 93.3067 15.8133 92.3467 15.6 91.44C15.44 90.48 15.2533 89.6533 15.04 88.96ZM83.3788 50.4C83.0588 51.9467 82.6854 53.44 82.2588 54.88C81.8321 56.2667 81.3254 57.6267 80.7388 58.96C82.8721 60.7733 85.0588 62.88 87.2988 65.28C89.5921 67.68 91.3521 69.7867 92.5788 71.6C92.8988 72.1333 92.9254 72.7733 92.6588 73.52C92.4454 74.2133 92.0988 74.72 91.6188 75.04C90.9788 75.52 90.3388 75.7067 89.6988 75.6C89.0588 75.4933 88.5254 75.2 88.0988 74.72C86.4988 72.96 84.7388 71.28 82.8188 69.68C80.8988 68.0267 79.0588 66.5333 77.2988 65.2C75.8054 67.44 74.2054 69.4133 72.4988 71.12C70.7921 72.7733 69.0854 74.08 67.3788 75.04C66.7921 75.36 66.0988 75.68 65.2988 76C64.5521 76.32 63.7788 76.32 62.9788 76C62.1788 75.7867 61.6988 75.3333 61.5388 74.64C61.3788 73.8933 61.7254 73.1467 62.5788 72.4C65.4588 70 68.1521 67.04 70.6588 63.52C73.2188 60 75.1388 56 76.4188 51.52C76.7388 50.4 76.9521 49.4133 77.0588 48.56C77.1654 47.6533 77.2721 46.88 77.3788 46.24C77.4854 45.6 77.6188 45.0933 77.7788 44.72C77.9921 44.2933 78.3388 43.9733 78.8188 43.76C79.5121 43.4933 80.1788 43.5467 80.8188 43.92C81.4588 44.24 81.9921 44.7467 82.4188 45.44C82.7921 46.1333 83.0588 46.9333 83.2188 47.84C83.4321 48.7467 83.4854 49.6 83.3788 50.4ZM102.979 55.84C104.205 55.84 105.245 55.8133 106.099 55.76C107.005 55.6533 107.752 55.5467 108.339 55.44C108.605 55.44 108.845 55.44 109.059 55.44C109.272 55.44 109.485 55.4133 109.699 55.36L109.779 49.36C109.779 48.6133 109.699 47.7067 109.539 46.64C109.379 45.52 109.112 44.56 108.739 43.76C108.205 42.8533 107.725 41.76 107.299 40.48C106.872 39.2 107.085 38.16 107.939 37.36C108.685 36.72 109.539 36.56 110.499 36.88C111.512 37.1467 112.312 37.6 112.899 38.24C113.912 39.4667 114.739 40.8533 115.379 42.4C116.019 43.8933 116.339 45.44 116.339 47.04L115.779 70.64C115.779 71.44 115.725 72.32 115.619 73.28C115.512 74.24 115.325 75.1733 115.059 76.08C114.792 76.9333 114.419 77.68 113.939 78.32C113.459 78.9067 112.872 79.2267 112.179 79.28C111.645 79.3867 111.192 79.1733 110.819 78.64C110.499 78.1067 110.232 77.4667 110.019 76.72C109.859 75.9733 109.725 75.2 109.619 74.4C109.565 73.6 109.539 72.9067 109.539 72.32L109.619 61.12C109.032 61.12 108.472 61.1467 107.939 61.2C107.405 61.2 106.872 61.2 106.339 61.2C105.752 61.2533 105.165 61.28 104.579 61.28C104.045 61.28 103.459 61.28 102.819 61.28L102.659 67.68C102.605 68.48 102.525 69.3867 102.419 70.4C102.312 71.36 102.152 72.2667 101.939 73.12C101.672 73.9733 101.299 74.72 100.819 75.36C100.339 75.9467 99.7521 76.2667 99.0588 76.32C98.5254 76.4267 98.0721 76.24 97.6988 75.76C97.3788 75.2267 97.1121 74.5867 96.8988 73.84C96.6854 73.0933 96.5254 72.32 96.4188 71.52C96.3654 70.6667 96.3388 69.9467 96.3388 69.36L96.5788 51.44C96.5788 50.6933 96.4988 49.7867 96.3388 48.72C96.1788 47.6 95.9121 46.64 95.5388 45.84C95.0588 44.9333 94.6054 43.84 94.1788 42.56C93.7521 41.28 93.9388 40.24 94.7388 39.44C95.4854 38.8 96.3388 38.64 97.2988 38.96C98.3121 39.2267 99.1121 39.68 99.6988 40.32C100.712 41.5467 101.539 42.9333 102.179 44.48C102.872 45.9733 103.219 47.52 103.219 49.12L102.979 55.84ZM81.6188 93.28C81.6188 91.1467 82.0454 89.2267 82.8988 87.52C83.7521 85.8133 84.9254 84.3467 86.4188 83.12C87.8588 81.8933 89.5654 80.96 91.5388 80.32C93.5121 79.68 95.5921 79.36 97.7788 79.36C99.9121 79.36 101.965 79.68 103.939 80.32C105.912 80.96 107.619 81.8933 109.059 83.12C110.552 84.2933 111.725 85.76 112.579 87.52C113.485 89.2267 113.939 91.1467 113.939 93.28C113.939 95.4667 113.485 97.4133 112.579 99.12C111.725 100.827 110.552 102.293 109.059 103.52C107.619 104.693 105.912 105.6 103.939 106.24C101.965 106.88 99.9121 107.2 97.7788 107.2C95.5921 107.253 93.5121 106.96 91.5388 106.32C89.5654 105.68 87.8588 104.747 86.4188 103.52C84.9254 102.293 83.7521 100.827 82.8988 99.12C82.0454 97.4133 81.6188 95.4667 81.6188 93.28ZM88.1788 93.28C88.1788 95.4133 89.0054 97.3067 90.6588 98.96C92.3654 100.613 94.7388 101.413 97.7788 101.36C100.765 101.36 103.112 100.56 104.819 98.96C106.525 97.3067 107.379 95.4133 107.379 93.28C107.379 91.1467 106.525 89.28 104.819 87.68C103.112 86.0267 100.765 85.2 97.7788 85.2C94.7388 85.2 92.3654 86 90.6588 87.6C89.0054 89.2 88.1788 91.0933 88.1788 93.28ZM145.622 51.6C146.049 53.7333 146.369 55.8933 146.582 58.08C146.795 60.2667 146.929 62.4267 146.982 64.56C148.955 64.6133 150.902 64.64 152.822 64.64C154.795 64.64 156.742 64.64 158.662 64.64C160.582 64.64 162.502 64.6133 164.422 64.56C166.395 64.5067 168.422 64.4 170.502 64.24C171.249 64.24 172.022 64.4267 172.822 64.8C173.622 65.12 174.022 65.8133 174.022 66.88C174.022 67.8933 173.729 68.6667 173.142 69.2C172.609 69.7333 171.782 70 170.662 70C166.662 70.16 162.822 70.2667 159.142 70.32C155.515 70.32 151.755 70.2933 147.862 70.24C147.062 70.24 146.262 70.1867 145.462 70.08C144.662 69.9733 143.915 69.7067 143.222 69.28C142.529 68.9067 141.942 68.3467 141.462 67.6C140.982 66.8 140.715 65.7333 140.662 64.4C140.609 63.44 140.555 62.48 140.502 61.52C140.502 60.5067 140.449 59.52 140.342 58.56C140.289 57.6533 140.209 56.7733 140.102 55.92C139.995 55.0133 139.835 54.1867 139.622 53.44C139.462 52.96 139.275 52.48 139.062 52C138.902 51.4667 138.742 50.9333 138.582 50.4C138.422 49.8667 138.315 49.3867 138.262 48.96C138.209 48.48 138.289 48.0267 138.502 47.6C138.822 47.0133 139.195 46.56 139.622 46.24C140.102 45.92 140.902 45.76 142.022 45.76C142.715 45.8133 143.409 45.84 144.102 45.84C144.849 45.84 145.622 45.84 146.422 45.84C149.142 45.84 152.022 45.7867 155.062 45.68C158.155 45.52 161.142 45.3333 164.022 45.12C164.395 45.12 164.769 45.0933 165.142 45.04C165.569 44.9867 165.969 44.9333 166.342 44.88C166.769 44.88 167.169 44.8533 167.542 44.8C167.915 44.7467 168.315 44.6933 168.742 44.64C170.129 44.64 171.222 44.9067 172.022 45.44C172.875 45.92 173.329 46.64 173.382 47.6C173.382 48.56 173.035 49.3333 172.342 49.92C171.702 50.4533 170.662 50.72 169.222 50.72C165.115 50.88 161.142 51.04 157.302 51.2C153.515 51.3067 149.622 51.44 145.622 51.6ZM130.102 77.68C134.155 77.7333 138.262 77.7333 142.422 77.68C146.635 77.6267 150.849 77.5467 155.062 77.44C159.275 77.3333 163.489 77.2 167.702 77.04C171.915 76.88 176.129 76.72 180.342 76.56C180.609 76.56 180.902 76.56 181.222 76.56C181.542 76.5067 181.862 76.4533 182.182 76.4C182.502 76.3467 182.822 76.32 183.142 76.32C183.462 76.2667 183.782 76.24 184.102 76.24C185.169 76.24 185.889 76.5333 186.262 77.12C186.689 77.6533 186.929 78.24 186.982 78.88C187.035 80 186.769 80.8267 186.182 81.36C185.595 81.8933 184.955 82.2133 184.262 82.32C184.049 82.3733 183.862 82.4 183.702 82.4C183.542 82.4 183.329 82.3733 183.062 82.32C182.795 82.32 182.449 82.32 182.022 82.32C181.649 82.2667 181.169 82.24 180.582 82.24C178.715 82.2933 176.902 82.3467 175.142 82.4C173.382 82.4533 171.622 82.5067 169.862 82.56C168.155 82.6133 166.422 82.6667 164.662 82.72C162.955 82.7733 161.275 82.8 159.622 82.8V97.44C159.622 100.32 159.275 102.373 158.582 103.6C157.942 104.88 157.142 105.547 156.182 105.6C155.062 105.707 154.235 105.173 153.702 104C153.222 102.88 152.982 101.44 152.982 99.68L152.742 82.96C148.689 83.12 144.609 83.2533 140.502 83.36C136.449 83.4133 132.262 83.4667 127.942 83.52C127.089 83.5733 126.315 83.4133 125.622 83.04C124.929 82.6133 124.395 82.1067 124.022 81.52C123.595 80.9333 123.329 80.32 123.222 79.68C123.169 79.04 123.302 78.4533 123.622 77.92C123.889 77.4933 124.262 77.2533 124.742 77.2C125.275 77.0933 125.835 77.0667 126.422 77.12C127.009 77.2267 127.622 77.36 128.262 77.52C128.902 77.6267 129.515 77.68 130.102 77.68ZM192.447 48.88C192.554 48.56 192.74 48.32 193.007 48.16C193.274 48 193.594 47.8667 193.967 47.76C194.34 47.7067 194.767 47.68 195.247 47.68C195.78 47.68 196.367 47.6267 197.007 47.52C197.967 47.4667 199.194 47.3867 200.687 47.28C202.18 47.1733 203.78 47.0667 205.487 46.96C207.247 46.8 209.007 46.64 210.767 46.48C212.527 46.32 214.154 46.1067 215.647 45.84C216.18 45.84 216.74 45.8667 217.327 45.92C217.967 45.9733 218.554 46.16 219.087 46.48C219.727 46.8533 220.287 47.3867 220.767 48.08C221.247 48.7733 221.407 49.44 221.247 50.08C220.447 53.3867 219.22 56.6133 217.567 59.76C215.967 62.9067 214.154 65.7867 212.127 68.4C210.1 71.0667 207.994 73.3867 205.807 75.36C203.674 77.28 201.727 78.6667 199.967 79.52C199.327 79.84 198.66 80.08 197.967 80.24C197.327 80.4 196.607 80.32 195.807 80C195.007 79.7867 194.5 79.3067 194.287 78.56C194.127 77.8133 194.5 77.0933 195.407 76.4C197.807 74.64 200.02 72.7733 202.047 70.8C204.074 68.7733 205.94 66.56 207.647 64.16C206.047 64.32 204.474 64.48 202.927 64.64C201.434 64.8 200.074 64.9333 198.847 65.04C197.994 65.2 197.167 65.1733 196.367 64.96C195.567 64.7467 194.874 64.4267 194.287 64C193.7 63.5733 193.274 63.0667 193.007 62.48C192.74 61.8933 192.714 61.3067 192.927 60.72C193.034 60.4 193.22 60.16 193.487 60C193.754 59.84 194.074 59.7067 194.447 59.6C194.82 59.5467 195.247 59.52 195.727 59.52C196.26 59.52 196.847 59.4667 197.487 59.36C198.127 59.3067 198.954 59.2533 199.967 59.2C201.034 59.1467 202.18 59.0933 203.407 59.04C204.634 58.9333 205.887 58.8533 207.167 58.8C208.5 58.6933 209.807 58.56 211.087 58.4C211.62 57.3333 212.1 56.24 212.527 55.12C213.007 54 213.487 52.8 213.967 51.52C212.687 51.68 211.38 51.84 210.047 52C208.714 52.16 207.38 52.2933 206.047 52.4C204.66 52.56 203.3 52.72 201.967 52.88C200.687 52.9867 199.487 53.0933 198.367 53.2C197.514 53.36 196.687 53.3333 195.887 53.12C195.087 52.9067 194.394 52.5867 193.807 52.16C193.22 51.7333 192.794 51.2267 192.527 50.64C192.26 50.0533 192.234 49.4667 192.447 48.88ZM231.967 37.36C232.714 36.72 233.594 36.56 234.607 36.88C235.62 37.1467 236.42 37.6 237.007 38.24C238.074 39.4667 238.927 40.8533 239.567 42.4C240.26 43.8933 240.607 45.44 240.607 47.04L239.967 74.56C239.914 75.36 239.834 76.24 239.727 77.2C239.62 78.16 239.46 79.0933 239.247 80C238.98 80.8533 238.607 81.6 238.127 82.24C237.647 82.8267 237.06 83.1467 236.367 83.2C235.78 83.3067 235.3 83.0933 234.927 82.56C234.554 82.0267 234.26 81.3867 234.047 80.64C233.78 79.8933 233.594 79.12 233.487 78.32C233.434 77.52 233.407 76.8267 233.407 76.24L233.567 63.6L226.607 64.4C224.634 64.72 223.14 64.5333 222.127 63.84C221.167 63.1467 220.767 62.16 220.927 60.88C220.98 60.1333 221.274 59.5733 221.807 59.2C222.34 58.7733 222.9 58.5333 223.487 58.48C223.86 58.48 224.234 58.48 224.607 58.48C225.034 58.48 225.46 58.48 225.887 58.48C226.26 58.48 226.634 58.48 227.007 58.48C227.434 58.48 227.86 58.4533 228.287 58.4C229.194 58.4 230.074 58.3733 230.927 58.32C231.834 58.2133 232.714 58.08 233.567 57.92L233.727 49.36C233.727 48.6133 233.647 47.7067 233.487 46.64C233.38 45.52 233.14 44.56 232.767 43.76C232.287 42.8533 231.807 41.76 231.327 40.48C230.9 39.2 231.114 38.16 231.967 37.36ZM226.287 85.28C226.074 86.08 225.807 86.88 225.487 87.68C225.167 88.48 224.794 89.28 224.367 90.08C227.247 91.68 230.287 93.4933 233.487 95.52C236.687 97.5467 239.354 99.44 241.487 101.2C241.914 101.627 242.154 102.213 242.207 102.96C242.26 103.707 242.02 104.427 241.487 105.12C241.007 105.76 240.42 106.107 239.727 106.16C239.034 106.213 238.42 106.053 237.887 105.68C235.38 104.08 232.554 102.373 229.407 100.56C226.314 98.7467 223.354 97.2 220.527 95.92C218.554 98.32 216.367 100.4 213.967 102.16C211.567 103.973 209.22 105.28 206.927 106.08C206.287 106.347 205.62 106.507 204.927 106.56C204.287 106.613 203.647 106.453 203.007 106.08C202.207 105.707 201.754 105.147 201.647 104.4C201.54 103.707 201.967 103.067 202.927 102.48C206.607 100.347 209.86 97.8667 212.687 95.04C215.567 92.2133 217.807 89.1733 219.407 85.92C219.887 84.9067 220.234 84 220.447 83.2C220.714 82.4 220.954 81.7067 221.167 81.12C221.327 80.5867 221.487 80.16 221.647 79.84C221.86 79.4667 222.207 79.1733 222.687 78.96C223.327 78.6933 223.914 78.7467 224.447 79.12C224.98 79.44 225.434 79.92 225.807 80.56C226.127 81.2533 226.314 82.0267 226.367 82.88C226.474 83.7333 226.447 84.5333 226.287 85.28Z" fill="#E276A4"/>
<path d="M20.8238 1.2207H9.76383V7.56917H19.9328C21.4608 7.56917 22.7008 8.80956 22.7008 10.3381V17.7414C22.7008 19.2699 21.4608 20.5103 19.9328 20.5103H9.76383V7.56917H4.14966V24.7833C4.14966 25.9309 5.07966 26.8587 6.22446 26.8587H20.8238C25.3664 26.8587 29.0473 23.1766 29.0473 18.6326V9.44685C29.0473 4.90281 25.3664 1.2207 20.8238 1.2207Z" fill="#E276A4"/>
<path d="M32.2205 9.44685V18.6326C32.2205 23.1766 35.9014 26.8587 40.444 26.8587H57.6063V11.4759H44.6693V16.6035H51.2598V20.5103H41.0909C39.5628 20.5103 38.3228 19.2699 38.3228 17.7414V10.3381C38.3228 8.80956 39.5628 7.56917 41.0909 7.56917H57.6063V1.2207H40.444C35.9014 1.2207 32.2205 4.90281 32.2205 9.44685Z" fill="#E276A4"/>
<path d="M2.68504 5.37178C4.16795 5.37178 5.37008 4.16927 5.37008 2.68589C5.37008 1.20251 4.16795 0 2.68504 0C1.20213 0 0 1.20251 0 2.68589C0 4.16927 1.20213 5.37178 2.68504 5.37178Z" fill="#E276A4"/>
<path d="M121.315 27.5915C122.798 27.5915 124 26.389 124 24.9056C124 23.4222 122.798 22.2197 121.315 22.2197C119.832 22.2197 118.63 23.4222 118.63 24.9056C118.63 26.389 119.832 27.5915 121.315 27.5915Z" fill="#E276A4"/>
<path d="M77.9884 11.4759H68.5907C67.5118 11.4759 66.638 10.6018 66.638 9.52254C66.638 8.4433 67.5118 7.56917 68.5907 7.56917H84.2128V1.2207H67.9805C63.7332 1.2207 60.2915 4.66353 60.2915 8.91211C60.2915 13.1607 63.7332 16.6035 67.9805 16.6035H77.3781C78.457 16.6035 79.3309 17.4777 79.3309 18.5569C79.3309 19.6361 78.457 20.5103 77.3781 20.5103H61.7561V26.8587H77.9884C82.2356 26.8587 85.6773 23.4159 85.6773 19.1673C85.6773 14.9187 82.2356 11.4759 77.9884 11.4759Z" fill="#E276A4"/>
<path d="M106.913 1.2207H100.567V20.2661H97.2327C95.7047 20.2661 94.4647 19.0257 94.4647 17.4972V1.2207H88.3623V18.6326C88.3623 23.1766 92.0433 26.8587 96.5858 26.8587H113.016V20.2661H106.913V1.2207Z" fill="#E276A4"/>
<path d="M119.362 3.29616C119.362 2.14856 118.432 1.2207 117.288 1.2207H113.016V20.2661H119.362V3.29616Z" fill="#E276A4"/>
<path d="M253.046 33.1538C248.815 36.7038 243.515 37.3524 241.207 34.6024C240.546 33.1538 245.315 28.7038 249.546 25.1538C253.777 21.6037 255.237 21.8835 257.545 24.6335C259.852 27.3835 257.277 29.6038 253.046 33.1538Z" fill="#E276A4"/>
<path d="M235.925 18.3853C237.814 23.5751 236.61 28.7776 233.237 30.0054C231.65 30.1315 229.099 24.1279 227.21 18.9381C225.321 13.7483 226.084 12.4713 229.457 11.2435C232.831 10.0156 234.036 13.1955 235.925 18.3853Z" fill="#E276A4"/>
</svg>
