<svg width="114" height="23" viewBox="0 0 114 23" fill="none" xmlns="http://www.w3.org/2000/svg">
<path d="M1.088 5.312C1.52 5.168 1.92 5.32 2.288 5.768C2.672 6.2 2.904 6.912 2.984 7.904C2.984 8.08 2.984 8.288 2.984 8.528C3 8.768 3.008 9.04 3.008 9.344C3.248 9.328 3.496 9.312 3.752 9.296C4.024 9.28 4.296 9.264 4.568 9.248C4.824 9.232 5.088 9.216 5.36 9.2C5.632 9.184 5.904 9.16 6.176 9.128C6.176 8.44 6.16 7.8 6.128 7.208C6.096 6.616 6.04 6.08 5.96 5.6C5.912 5.424 5.976 5.248 6.152 5.072C6.344 4.88 6.568 4.784 6.824 4.784C7.208 4.784 7.48 4.856 7.64 5C7.8 5.144 7.904 5.328 7.952 5.552C7.984 5.92 8.008 6.44 8.024 7.112C8.04 7.768 8.048 8.48 8.048 9.248C8.032 10.016 8.008 10.792 7.976 11.576C7.96 12.344 7.936 13.016 7.904 13.592C7.856 14.04 7.76 14.416 7.616 14.72C7.472 15.024 7.176 15.24 6.728 15.368C6.152 15.544 5.568 15.688 4.976 15.8C4.384 15.896 3.688 15.944 2.888 15.944C2.504 15.944 2.12 15.832 1.736 15.608C1.352 15.384 1.16 14.912 1.16 14.192C1.144 13.888 1.136 13.416 1.136 12.776C1.152 12.136 1.16 11.464 1.16 10.76C1.16 10.056 1.144 9.392 1.112 8.768C1.096 8.144 1.056 7.688 0.992 7.4C0.912 7.144 0.848 6.904 0.8 6.68C0.752 6.456 0.72 6.248 0.704 6.056C0.688 5.88 0.704 5.728 0.752 5.6C0.816 5.472 0.928 5.376 1.088 5.312ZM3.032 10.904C3.032 11.24 3.024 11.576 3.008 11.912C3.008 12.248 3.008 12.568 3.008 12.872C3.008 13.16 3.008 13.424 3.008 13.664C3.008 13.904 3.016 14.096 3.032 14.24C3.464 14.224 3.936 14.168 4.448 14.072C4.976 13.976 5.52 13.856 6.08 13.712C6.08 13.472 6.08 13.232 6.08 12.992C6.096 12.736 6.104 12.488 6.104 12.248C6.104 11.992 6.104 11.744 6.104 11.504C6.12 11.264 6.136 11.024 6.152 10.784C5.576 10.8 5.024 10.824 4.496 10.856C3.984 10.872 3.496 10.888 3.032 10.904ZM12.152 9.272C12.328 9.272 12.488 9.272 12.632 9.272C12.792 9.256 12.944 9.24 13.088 9.224C13.216 9.208 13.328 9.2 13.424 9.2C13.536 9.184 13.64 9.168 13.736 9.152C13.8 9.152 13.864 9.152 13.928 9.152C14.008 9.152 14.08 9.144 14.144 9.128L14.168 4.808C14.168 4.584 14.144 4.312 14.096 3.992C14.048 3.656 13.968 3.368 13.856 3.128C13.696 2.856 13.552 2.528 13.424 2.144C13.296 1.76 13.36 1.448 13.616 1.208C13.84 1.016 14.096 0.967999 14.384 1.064C14.688 1.144 14.928 1.28 15.104 1.472C15.408 1.84 15.656 2.256 15.848 2.72C16.056 3.168 16.16 3.632 16.16 4.112L15.992 18.872C15.976 19.112 15.952 19.376 15.92 19.664C15.888 19.952 15.832 20.232 15.752 20.504C15.672 20.76 15.56 20.976 15.416 21.152C15.272 21.344 15.096 21.448 14.888 21.464C14.728 21.496 14.592 21.432 14.48 21.272C14.384 21.112 14.304 20.92 14.24 20.696C14.192 20.472 14.152 20.24 14.12 20C14.104 19.76 14.096 19.552 14.096 19.376L14.144 10.856C13.968 10.856 13.8 10.864 13.64 10.88C13.48 10.88 13.32 10.88 13.16 10.88C12.984 10.88 12.808 10.888 12.632 10.904C12.456 10.904 12.28 10.904 12.104 10.904L12.008 17C11.992 17.24 11.968 17.512 11.936 17.816C11.92 18.104 11.872 18.376 11.792 18.632C11.712 18.888 11.6 19.112 11.456 19.304C11.328 19.48 11.16 19.576 10.952 19.592C10.792 19.624 10.656 19.56 10.544 19.4C10.432 19.24 10.344 19.048 10.28 18.824C10.216 18.6 10.168 18.368 10.136 18.128C10.12 17.872 10.112 17.656 10.112 17.48L10.208 6.968C10.208 6.728 10.184 6.448 10.136 6.128C10.088 5.808 10.008 5.528 9.896 5.288C9.752 5 9.616 4.672 9.488 4.304C9.36 3.92 9.416 3.608 9.656 3.368C9.88 3.176 10.136 3.12 10.424 3.2C10.728 3.28 10.968 3.416 11.144 3.608C11.448 3.976 11.696 4.392 11.888 4.856C12.096 5.304 12.2 5.768 12.2 6.248L12.152 9.272ZM19.0409 4.424C19.0729 4.328 19.1289 4.256 19.2089 4.208C19.2889 4.16 19.3849 4.12 19.4969 4.088C19.6089 4.072 19.7369 4.064 19.8809 4.064C20.0409 4.064 20.2169 4.048 20.4089 4.016C20.6969 4 21.0649 3.976 21.5129 3.944C21.9609 3.912 22.4409 3.88 22.9529 3.848C23.4809 3.8 24.0089 3.752 24.5369 3.704C25.0649 3.656 25.5529 3.592 26.0009 3.512C26.1609 3.512 26.3289 3.52 26.5049 3.536C26.6969 3.552 26.8729 3.608 27.0329 3.704C27.2249 3.816 27.3849 3.976 27.5129 4.184C27.6569 4.392 27.7129 4.592 27.6809 4.784C27.4569 5.792 27.0969 6.728 26.6009 7.592C26.1049 8.456 25.5529 9.24 24.9449 9.944C24.3369 10.632 23.7049 11.232 23.0489 11.744C22.4089 12.256 21.8249 12.64 21.2969 12.896C21.1049 12.992 20.9049 13.064 20.6969 13.112C20.5049 13.16 20.2889 13.136 20.0489 13.04C19.8089 12.976 19.6569 12.832 19.5929 12.608C19.5289 12.368 19.6409 12.152 19.9289 11.96C21.2249 11.032 22.3289 10.056 23.2409 9.032C24.1689 8.008 24.9209 6.736 25.4969 5.216C25.1129 5.264 24.7209 5.312 24.3209 5.36C23.9209 5.408 23.5209 5.448 23.1209 5.48C22.7049 5.528 22.2969 5.576 21.8969 5.624C21.5129 5.656 21.1529 5.688 20.8169 5.72C20.5609 5.768 20.3129 5.76 20.0729 5.696C19.8329 5.632 19.6249 5.536 19.4489 5.408C19.2729 5.28 19.1449 5.128 19.0649 4.952C18.9849 4.776 18.9769 4.6 19.0409 4.424ZM31.1369 1.208C31.3609 1.016 31.6249 0.967999 31.9289 1.064C32.2329 1.144 32.4729 1.28 32.6489 1.472C32.9689 1.84 33.2249 2.256 33.4169 2.72C33.6249 3.168 33.7289 3.632 33.7289 4.112L33.5369 11.168C33.5209 11.408 33.4969 11.672 33.4649 11.96C33.4329 12.248 33.3849 12.528 33.3209 12.8C33.2409 13.056 33.1289 13.28 32.9849 13.472C32.8409 13.648 32.6649 13.744 32.4569 13.76C32.2809 13.792 32.1369 13.728 32.0249 13.568C31.9129 13.408 31.8249 13.216 31.7609 12.992C31.6809 12.768 31.6249 12.536 31.5929 12.296C31.5769 12.056 31.5689 11.848 31.5689 11.672L31.5929 10.448L29.5289 10.688C28.9369 10.784 28.4889 10.728 28.1849 10.52C27.8969 10.312 27.7769 10.016 27.8249 9.632C27.8409 9.408 27.9289 9.24 28.0889 9.128C28.2489 9 28.4169 8.928 28.5929 8.912C28.7049 8.912 28.8169 8.912 28.9289 8.912C29.0569 8.912 29.1849 8.912 29.3129 8.912C29.4249 8.912 29.5369 8.912 29.6489 8.912C29.7769 8.912 29.9049 8.904 30.0329 8.888C30.1609 8.888 30.2889 8.888 30.4169 8.888C30.5609 8.872 30.6969 8.856 30.8249 8.84C30.9529 8.824 31.0809 8.816 31.2089 8.816C31.3369 8.8 31.4729 8.776 31.6169 8.744L31.6409 6.872L29.7689 7.088C29.1769 7.184 28.7289 7.128 28.4249 6.92C28.1369 6.712 28.0169 6.416 28.0649 6.032C28.0809 5.808 28.1689 5.64 28.3289 5.528C28.4889 5.4 28.6569 5.328 28.8329 5.312C28.9449 5.312 29.0569 5.312 29.1689 5.312C29.2969 5.312 29.4249 5.312 29.5529 5.312C29.6649 5.312 29.7769 5.312 29.8889 5.312C30.0169 5.312 30.1449 5.304 30.2729 5.288C30.3849 5.288 30.4969 5.288 30.6089 5.288C30.7369 5.272 30.8569 5.256 30.9689 5.24C31.0809 5.224 31.1929 5.216 31.3049 5.216C31.4169 5.2 31.5369 5.184 31.6649 5.168V4.808C31.6649 4.584 31.6409 4.312 31.5929 3.992C31.5609 3.656 31.4889 3.368 31.3769 3.128C31.2329 2.856 31.0889 2.528 30.9449 2.144C30.8169 1.76 30.8809 1.448 31.1369 1.208ZM23.6249 17.984C23.6249 17.344 23.7529 16.768 24.0089 16.256C24.2649 15.744 24.6169 15.304 25.0649 14.936C25.4969 14.568 26.0089 14.288 26.6009 14.096C27.1929 13.904 27.8169 13.808 28.4729 13.808C29.1129 13.808 29.7289 13.904 30.3209 14.096C30.9129 14.288 31.4249 14.568 31.8569 14.936C32.3049 15.288 32.6569 15.728 32.9129 16.256C33.1849 16.768 33.3209 17.344 33.3209 17.984C33.3209 18.64 33.1849 19.224 32.9129 19.736C32.6569 20.248 32.3049 20.688 31.8569 21.056C31.4249 21.408 30.9129 21.68 30.3209 21.872C29.7289 22.064 29.1129 22.16 28.4729 22.16C27.8169 22.176 27.1929 22.088 26.6009 21.896C26.0089 21.704 25.4969 21.424 25.0649 21.056C24.6169 20.688 24.2649 20.248 24.0089 19.736C23.7529 19.224 23.6249 18.64 23.6249 17.984ZM25.5929 17.984C25.5929 18.624 25.8409 19.192 26.3369 19.688C26.8489 20.184 27.5609 20.424 28.4729 20.408C29.3689 20.408 30.0729 20.168 30.5849 19.688C31.0969 19.192 31.3529 18.624 31.3529 17.984C31.3529 17.344 31.0969 16.784 30.5849 16.304C30.0729 15.808 29.3689 15.56 28.4729 15.56C27.5609 15.56 26.8489 15.8 26.3369 16.28C25.8409 16.76 25.5929 17.328 25.5929 17.984ZM41.8466 14.312C40.9826 14.2 40.2386 13.904 39.6146 13.424C38.9906 12.944 38.6786 12.2 38.6786 11.192C38.6786 10.152 39.0706 9.368 39.8546 8.84C40.6386 8.296 41.6066 8.024 42.7586 8.024C44.1026 8.024 45.1266 8.32 45.8306 8.912C46.5506 9.504 46.9106 10.264 46.9106 11.192C46.9106 12.008 46.6306 12.696 46.0706 13.256C45.5106 13.816 44.7266 14.168 43.7186 14.312L43.6946 15.752C43.9186 15.736 44.1506 15.72 44.3906 15.704C44.6466 15.672 44.9106 15.648 45.1826 15.632C45.4546 15.6 45.7346 15.576 46.0226 15.56C46.3266 15.528 46.6386 15.496 46.9586 15.464C47.0386 15.464 47.1266 15.464 47.2226 15.464C47.3186 15.448 47.4146 15.432 47.5106 15.416C47.6066 15.4 47.7026 15.392 47.7986 15.392C47.8946 15.376 47.9906 15.368 48.0866 15.368C48.4066 15.368 48.6226 15.456 48.7346 15.632C48.8626 15.808 48.9346 15.992 48.9506 16.184C48.9666 16.52 48.8866 16.768 48.7106 16.928C48.5346 17.072 48.3426 17.168 48.1346 17.216C48.0706 17.232 48.0146 17.24 47.9666 17.24C47.9186 17.224 47.8546 17.208 47.7746 17.192C47.6946 17.176 47.5906 17.168 47.4626 17.168C47.3506 17.152 47.2066 17.152 47.0306 17.168C46.2946 17.248 45.5506 17.32 44.7986 17.384C44.0466 17.448 43.2786 17.512 42.4946 17.576C41.7266 17.64 40.9506 17.696 40.1666 17.744C39.3826 17.776 38.5986 17.792 37.8146 17.792C37.5586 17.792 37.3266 17.736 37.1186 17.624C36.9106 17.512 36.7506 17.368 36.6386 17.192C36.5106 17.016 36.4306 16.832 36.3986 16.64C36.3666 16.448 36.3986 16.272 36.4946 16.112C36.5746 15.984 36.6866 15.912 36.8306 15.896C36.9906 15.864 37.1666 15.864 37.3586 15.896C37.5346 15.928 37.7186 15.968 37.9106 16.016C38.1026 16.064 38.2866 16.08 38.4626 16.064C39.0866 16.048 39.6706 16.032 40.2146 16.016C40.7746 15.984 41.3426 15.944 41.9186 15.896L41.8466 14.312ZM42.7346 12.728C43.3906 12.728 43.9266 12.608 44.3426 12.368C44.7746 12.112 44.9906 11.728 44.9906 11.216C44.9906 10.704 44.7906 10.32 44.3906 10.064C44.0066 9.808 43.4626 9.68 42.7586 9.68C42.0386 9.68 41.4946 9.824 41.1266 10.112C40.7746 10.384 40.5986 10.752 40.5986 11.216C40.5986 11.744 40.7906 12.128 41.1746 12.368C41.5586 12.608 42.0786 12.728 42.7346 12.728ZM39.1586 5.528C39.6706 5.56 40.1586 5.576 40.6226 5.576C41.1026 5.576 41.5986 5.568 42.1106 5.552C42.6386 5.552 43.2066 5.536 43.8146 5.504C44.4386 5.456 45.1586 5.4 45.9746 5.336C46.0546 5.336 46.1426 5.336 46.2386 5.336C46.3506 5.32 46.4546 5.304 46.5506 5.288C46.6466 5.288 46.7426 5.28 46.8386 5.264C46.9346 5.248 47.0306 5.24 47.1266 5.24C47.4466 5.24 47.6626 5.328 47.7746 5.504C47.9026 5.664 47.9746 5.84 47.9906 6.032C48.0066 6.368 47.9266 6.616 47.7506 6.776C47.5906 6.92 47.4066 7.016 47.1986 7.064C47.1346 7.08 47.0706 7.088 47.0066 7.088C46.9586 7.088 46.8946 7.088 46.8146 7.088C46.7346 7.088 46.6306 7.088 46.5026 7.088C46.3746 7.072 46.2226 7.064 46.0466 7.064C45.2786 7.08 44.5986 7.096 44.0066 7.112C43.4306 7.128 42.8626 7.144 42.3026 7.16C41.7426 7.192 41.1666 7.216 40.5746 7.232C39.9826 7.248 39.2946 7.256 38.5106 7.256C38.2546 7.256 38.0226 7.2 37.8146 7.088C37.6066 6.976 37.4386 6.832 37.3106 6.656C37.1826 6.48 37.1026 6.296 37.0706 6.104C37.0546 5.896 37.0946 5.712 37.1906 5.552C37.2706 5.424 37.3826 5.352 37.5266 5.336C37.6866 5.32 37.8626 5.32 38.0546 5.336C38.2306 5.368 38.4146 5.408 38.6066 5.456C38.7986 5.504 38.9826 5.528 39.1586 5.528ZM39.2786 2.384C39.3746 2.288 39.5026 2.248 39.6626 2.264C39.8386 2.28 39.9906 2.312 40.1186 2.36C40.6306 2.616 41.2466 2.808 41.9666 2.936C42.6866 3.064 43.6786 3.064 44.9426 2.936C45.2306 2.904 45.4466 2.928 45.5906 3.008C45.7506 3.088 45.8546 3.216 45.9026 3.392C45.9346 3.616 45.8706 3.816 45.7106 3.992C45.5506 4.168 45.3906 4.304 45.2306 4.4C45.0546 4.512 44.7986 4.592 44.4626 4.64C44.1266 4.672 43.8306 4.688 43.5746 4.688C43.0466 4.688 42.4226 4.664 41.7026 4.616C40.9826 4.552 40.3586 4.368 39.8306 4.064C39.4946 3.888 39.2626 3.616 39.1346 3.248C39.0226 2.864 39.0706 2.576 39.2786 2.384ZM49.3106 1.208C49.5346 1.016 49.7986 0.96 50.1026 1.04C50.4066 1.12 50.6466 1.256 50.8226 1.448C51.1426 1.816 51.3986 2.232 51.5906 2.696C51.7986 3.144 51.9026 3.608 51.9026 4.088L51.8306 9.56C52.1666 9.544 52.5026 9.528 52.8386 9.512C53.1746 9.48 53.5266 9.448 53.8946 9.416C53.9746 9.416 54.0626 9.416 54.1586 9.416C54.2546 9.416 54.3506 9.416 54.4466 9.416C54.5426 9.416 54.6386 9.416 54.7346 9.416C54.8306 9.416 54.9266 9.416 55.0226 9.416C55.3426 9.432 55.5586 9.528 55.6706 9.704C55.7826 9.88 55.8386 10.064 55.8386 10.256C55.8386 10.576 55.7426 10.808 55.5506 10.952C55.3746 11.096 55.1746 11.176 54.9506 11.192C54.8866 11.208 54.8306 11.216 54.7826 11.216C54.7346 11.2 54.6706 11.184 54.5906 11.168C54.5266 11.152 54.4306 11.144 54.3026 11.144C54.1906 11.128 54.0466 11.12 53.8706 11.12C53.6946 11.136 53.5186 11.144 53.3426 11.144C53.1826 11.144 53.0226 11.144 52.8626 11.144C52.6866 11.16 52.5106 11.168 52.3346 11.168C52.1586 11.168 51.9826 11.168 51.8066 11.168L51.7106 18.848C51.6946 19.088 51.6706 19.36 51.6386 19.664C51.6066 19.952 51.5586 20.224 51.4946 20.48C51.4146 20.752 51.3026 20.976 51.1586 21.152C51.0146 21.344 50.8386 21.448 50.6306 21.464C50.4546 21.496 50.3106 21.432 50.1986 21.272C50.0866 21.112 49.9986 20.92 49.9346 20.696C49.8546 20.472 49.7986 20.24 49.7666 20C49.7506 19.744 49.7426 19.528 49.7426 19.352L49.8386 4.808C49.8386 4.568 49.8146 4.288 49.7666 3.968C49.7346 3.648 49.6626 3.368 49.5506 3.128C49.4706 2.984 49.3906 2.832 49.3106 2.672C49.2306 2.496 49.1666 2.32 49.1186 2.144C49.0706 1.968 49.0546 1.8 49.0706 1.64C49.1026 1.48 49.1826 1.336 49.3106 1.208ZM59.2428 5.768C59.3068 6.216 59.3628 6.696 59.4108 7.208C59.4588 7.704 59.4988 8.208 59.5308 8.72C59.5628 9.232 59.5868 9.736 59.6028 10.232C59.6348 10.728 59.6668 11.184 59.6988 11.6C60.2428 11.568 60.8988 11.52 61.6668 11.456C62.4508 11.376 63.1628 11.272 63.8028 11.144C63.8508 10.248 63.8908 9.296 63.9228 8.288C63.9548 7.28 63.9788 6.304 63.9948 5.36C63.6268 5.408 63.2428 5.448 62.8428 5.48C62.4588 5.512 62.0588 5.552 61.6428 5.6C61.2428 5.632 60.8348 5.664 60.4188 5.696C60.0188 5.728 59.6268 5.752 59.2428 5.768ZM56.9868 4.544C57.0348 4.368 57.1548 4.248 57.3468 4.184C57.5388 4.104 57.7708 4.064 58.0428 4.064C58.1708 4.08 58.2988 4.088 58.4268 4.088C58.5548 4.088 58.6908 4.088 58.8348 4.088C58.9628 4.088 59.0908 4.088 59.2188 4.088C59.3468 4.072 59.4828 4.064 59.6268 4.064C59.9308 4.064 60.2588 4.056 60.6108 4.04C60.9628 4.008 61.3388 3.976 61.7388 3.944C62.1228 3.896 62.5308 3.848 62.9628 3.8C63.4108 3.752 63.8748 3.704 64.3548 3.656C64.9148 3.608 65.3148 3.712 65.5548 3.968C65.8108 4.224 65.9388 4.52 65.9388 4.856C65.9388 4.984 65.9308 5.104 65.9148 5.216C65.9148 5.328 65.9148 5.432 65.9148 5.528C66.0108 5.528 66.0988 5.536 66.1788 5.552C66.2748 5.552 66.3628 5.552 66.4428 5.552C66.5388 5.552 66.6268 5.552 66.7068 5.552C66.8028 5.552 66.8988 5.544 66.9948 5.528C67.2028 5.512 67.4108 5.496 67.6188 5.48C67.8428 5.464 68.0668 5.448 68.2908 5.432C68.5148 5.416 68.7308 5.4 68.9388 5.384C69.1628 5.368 69.3788 5.344 69.5868 5.312V4.808C69.5868 4.568 69.5628 4.288 69.5148 3.968C69.4828 3.648 69.4108 3.368 69.2988 3.128C69.2188 2.984 69.1388 2.832 69.0588 2.672C68.9788 2.496 68.9148 2.32 68.8668 2.144C68.8188 1.968 68.8028 1.8 68.8188 1.64C68.8508 1.48 68.9308 1.336 69.0588 1.208C69.2828 1.016 69.5468 0.967999 69.8508 1.064C70.1548 1.144 70.3948 1.28 70.5708 1.472C70.8908 1.824 71.1468 2.232 71.3388 2.696C71.5468 3.144 71.6508 3.608 71.6508 4.088L71.4588 14.312C71.4428 14.552 71.4188 14.824 71.3868 15.128C71.3548 15.416 71.3068 15.688 71.2428 15.944C71.1628 16.216 71.0508 16.448 70.9068 16.64C70.7628 16.816 70.5868 16.912 70.3788 16.928C70.2028 16.944 70.0588 16.88 69.9468 16.736C69.8348 16.576 69.7468 16.376 69.6828 16.136C69.6028 15.912 69.5468 15.68 69.5148 15.44C69.4988 15.2 69.4908 14.992 69.4908 14.816L69.5388 10.64L66.4908 10.976C66.3148 11.008 66.1548 11.024 66.0108 11.024C65.8668 11.024 65.7468 11.008 65.6508 10.976C65.6028 11.536 65.4988 11.952 65.3388 12.224C65.1788 12.48 64.9228 12.648 64.5708 12.728C63.8828 12.888 63.1068 13.024 62.2428 13.136C61.3788 13.248 60.5148 13.304 59.6508 13.304C59.0268 13.32 58.5708 13.2 58.2828 12.944C57.9948 12.688 57.8428 12.344 57.8268 11.912C57.8108 11.624 57.7868 11.208 57.7548 10.664C57.7388 10.12 57.7148 9.544 57.6828 8.936C57.6508 8.344 57.5948 7.784 57.5148 7.256C57.4508 6.712 57.3708 6.312 57.2748 6.056C57.1628 5.816 57.0668 5.56 56.9868 5.288C56.9068 5 56.9068 4.752 56.9868 4.544ZM65.8668 7.352C65.8508 7.512 65.8348 7.672 65.8188 7.832C65.8188 7.976 65.8108 8.128 65.7948 8.288C65.7788 8.448 65.7628 8.608 65.7468 8.768C65.7468 8.912 65.7468 9.056 65.7468 9.2C65.8428 9.2 65.9388 9.2 66.0348 9.2C66.1468 9.2 66.2588 9.2 66.3708 9.2C66.4668 9.2 66.5628 9.2 66.6588 9.2C66.7708 9.2 66.8828 9.192 66.9948 9.176C67.3948 9.16 67.8108 9.136 68.2428 9.104C68.6908 9.056 69.1228 9.008 69.5388 8.96L69.5628 6.992L66.4908 7.328C66.3628 7.36 66.2508 7.376 66.1548 7.376C66.0588 7.376 65.9628 7.368 65.8668 7.352ZM60.3948 16.688C60.3148 16.496 60.2828 16.28 60.2988 16.04C60.3308 15.784 60.4988 15.584 60.8028 15.44C60.9788 15.344 61.1868 15.32 61.4268 15.368C61.6668 15.4 61.8428 15.504 61.9548 15.68C62.0828 15.904 62.1948 16.192 62.2908 16.544C62.4028 16.896 62.5068 17.264 62.6028 17.648C62.6828 18.048 62.7468 18.448 62.7948 18.848C62.8588 19.248 62.9148 19.608 62.9628 19.928C64.3548 20.12 65.7708 20.2 67.2108 20.168C68.6668 20.136 69.9948 20.072 71.1948 19.976C71.4828 19.96 71.6908 20.024 71.8188 20.168C71.9628 20.328 72.0428 20.512 72.0588 20.72C72.0588 21.008 71.9788 21.232 71.8188 21.392C71.6748 21.552 71.5068 21.64 71.3148 21.656C70.0188 21.832 68.6748 21.92 67.2828 21.92C65.8908 21.92 64.5388 21.848 63.2268 21.704C63.0348 21.688 62.8188 21.656 62.5788 21.608C62.3548 21.56 62.1388 21.48 61.9308 21.368C61.7228 21.256 61.5388 21.104 61.3788 20.912C61.2188 20.72 61.1148 20.472 61.0668 20.168C61.0028 19.88 60.9468 19.576 60.8988 19.256C60.8508 18.92 60.8028 18.6 60.7548 18.296C60.6908 17.992 60.6268 17.704 60.5628 17.432C60.5148 17.144 60.4588 16.896 60.3948 16.688ZM87.0416 4.784C86.9456 5.136 86.8416 5.48 86.7296 5.816C86.6176 6.152 86.4896 6.48 86.3456 6.8C87.0976 7.376 87.8336 8.016 88.5536 8.72C89.2896 9.424 89.8656 10.064 90.2816 10.64C90.3776 10.8 90.3856 10.992 90.3056 11.216C90.2256 11.424 90.1136 11.576 89.9696 11.672C89.7776 11.816 89.5856 11.872 89.3936 11.84C89.2016 11.808 89.0336 11.72 88.8896 11.576C88.3936 11.064 87.8416 10.552 87.2336 10.04C86.6416 9.512 86.0176 9.008 85.3616 8.528C84.8336 9.296 84.2496 9.976 83.6096 10.568C82.9696 11.144 82.3456 11.6 81.7376 11.936C81.5456 12.032 81.3456 12.104 81.1376 12.152C80.9456 12.2 80.7296 12.176 80.4896 12.08C80.2496 12.016 80.1056 11.872 80.0576 11.648C80.0096 11.424 80.1136 11.208 80.3696 11C81.4256 10.184 82.3456 9.248 83.1296 8.192C83.9296 7.12 84.4736 6.152 84.7616 5.288C84.8576 4.952 84.9376 4.648 85.0016 4.376C85.0656 4.104 85.1216 3.864 85.1696 3.656C85.2336 3.448 85.2976 3.28 85.3616 3.152C85.4416 3.024 85.5456 2.936 85.6736 2.888C85.8816 2.824 86.0736 2.84 86.2496 2.936C86.4416 3.032 86.6096 3.184 86.7536 3.392C86.8816 3.584 86.9696 3.808 87.0176 4.064C87.0816 4.32 87.0896 4.56 87.0416 4.784ZM92.7776 1.208C93.0016 1.016 93.2656 0.96 93.5696 1.04C93.8736 1.12 94.1136 1.256 94.2896 1.448C94.6096 1.816 94.8656 2.232 95.0576 2.696C95.2656 3.144 95.3696 3.608 95.3696 4.088L95.1776 9.968C95.1616 10.208 95.1376 10.48 95.1056 10.784C95.0736 11.072 95.0256 11.344 94.9616 11.6C94.8816 11.872 94.7696 12.104 94.6256 12.296C94.4816 12.472 94.3056 12.568 94.0976 12.584C93.9216 12.616 93.7776 12.552 93.6656 12.392C93.5536 12.232 93.4656 12.04 93.4016 11.816C93.3216 11.592 93.2656 11.36 93.2336 11.12C93.2176 10.864 93.2096 10.648 93.2096 10.472L93.2576 7.424L90.9296 7.712C90.3376 7.808 89.8896 7.752 89.5856 7.544C89.2976 7.336 89.1776 7.04 89.2256 6.656C89.2416 6.432 89.3296 6.264 89.4896 6.152C89.6496 6.024 89.8176 5.952 89.9936 5.936C90.1056 5.936 90.2176 5.936 90.3296 5.936C90.4576 5.936 90.5856 5.936 90.7136 5.936C90.8256 5.936 90.9376 5.936 91.0496 5.936C91.1776 5.936 91.3056 5.928 91.4336 5.912C91.7536 5.896 92.0656 5.88 92.3696 5.864C92.6736 5.832 92.9776 5.792 93.2816 5.744L93.3056 4.808C93.3056 4.568 93.2816 4.288 93.2336 3.968C93.2016 3.648 93.1296 3.368 93.0176 3.128C92.9376 2.984 92.8576 2.832 92.7776 2.672C92.6976 2.496 92.6336 2.32 92.5856 2.144C92.5376 1.968 92.5216 1.8 92.5376 1.64C92.5696 1.48 92.6496 1.336 92.7776 1.208ZM83.9456 14.024C84.0256 13.88 84.1696 13.8 84.3776 13.784C84.5856 13.752 84.7856 13.736 84.9776 13.736C85.6176 13.736 86.2976 13.728 87.0176 13.712C87.7536 13.68 88.4976 13.648 89.2496 13.616C89.9856 13.6 90.7136 13.576 91.4336 13.544C92.1696 13.496 92.8576 13.448 93.4976 13.4C93.8176 13.4 94.1296 13.52 94.4336 13.76C94.7376 14 94.8816 14.304 94.8656 14.672C94.8496 14.896 94.8336 15.128 94.8176 15.368C94.8176 15.592 94.8096 15.816 94.7936 16.04C94.7776 16.264 94.7616 16.48 94.7456 16.688C94.7456 16.896 94.7376 17.088 94.7216 17.264C94.6576 17.76 94.4416 18.088 94.0736 18.248C93.7216 18.392 93.3776 18.456 93.0416 18.44C92.4176 18.44 91.8176 18.448 91.2416 18.464C90.6816 18.464 90.1216 18.472 89.5616 18.488C89.0176 18.504 88.4816 18.528 87.9536 18.56C87.4256 18.576 86.9056 18.592 86.3936 18.608L86.8496 20.216C88.0016 20.232 89.2256 20.232 90.5216 20.216C91.8176 20.2 93.0576 20.144 94.2416 20.048C94.5776 20.016 94.8256 20.088 94.9856 20.264C95.1456 20.44 95.2256 20.632 95.2256 20.84C95.1936 21.208 95.0576 21.464 94.8176 21.608C94.5776 21.752 94.3376 21.824 94.0976 21.824C93.3456 21.824 92.6576 21.832 92.0336 21.848C91.4096 21.864 90.8176 21.88 90.2576 21.896C89.6976 21.912 89.1536 21.928 88.6256 21.944C88.1136 21.96 87.5936 21.96 87.0656 21.944C86.5216 21.944 86.0816 21.824 85.7456 21.584C85.4256 21.36 85.1856 20.984 85.0256 20.456C84.9616 20.28 84.8976 20.104 84.8336 19.928C84.7856 19.752 84.7296 19.576 84.6656 19.4C84.6176 19.24 84.5536 19.08 84.4736 18.92C84.4096 18.744 84.3376 18.576 84.2576 18.416C84.0496 18.064 84.0176 17.744 84.1616 17.456C84.3216 17.152 84.5936 17 84.9776 17C85.6176 17.032 86.2976 17.048 87.0176 17.048C87.7536 17.032 88.4736 17.008 89.1776 16.976C89.8816 16.944 90.5536 16.912 91.1936 16.88C91.8336 16.832 92.3936 16.784 92.8736 16.736L92.8976 15.128C92.3376 15.16 91.7296 15.192 91.0736 15.224C90.4336 15.256 89.7776 15.28 89.1056 15.296C88.4496 15.328 87.7936 15.36 87.1376 15.392C86.4976 15.424 85.9056 15.448 85.3616 15.464C85.1376 15.48 84.9216 15.448 84.7136 15.368C84.5056 15.272 84.3296 15.152 84.1856 15.008C84.0416 14.864 83.9376 14.712 83.8736 14.552C83.8256 14.376 83.8496 14.2 83.9456 14.024ZM98.4472 4.304C98.4792 4.208 98.5352 4.136 98.6152 4.088C98.6952 4.04 98.7912 4 98.9032 3.968C99.0152 3.952 99.1432 3.944 99.2872 3.944C99.4472 3.944 99.6232 3.928 99.8152 3.896C100.103 3.88 100.447 3.856 100.847 3.824C101.247 3.792 101.671 3.76 102.119 3.728C102.583 3.68 103.055 3.632 103.535 3.584C104.015 3.536 104.479 3.472 104.927 3.392C105.087 3.392 105.255 3.4 105.431 3.416C105.623 3.432 105.799 3.488 105.959 3.584C106.151 3.696 106.319 3.856 106.463 4.064C106.607 4.272 106.655 4.472 106.607 4.664C106.431 5.304 106.191 5.928 105.887 6.536C105.599 7.128 105.271 7.688 104.903 8.216C105.511 8.696 106.095 9.2 106.655 9.728C107.231 10.256 107.727 10.76 108.143 11.24C108.239 11.384 108.247 11.568 108.167 11.792C108.087 12.016 107.975 12.184 107.831 12.296C107.639 12.44 107.439 12.512 107.231 12.512C107.023 12.512 106.855 12.44 106.727 12.296C106.215 11.768 105.703 11.312 105.191 10.928C104.679 10.528 104.167 10.144 103.655 9.776C103.079 10.416 102.487 10.976 101.879 11.456C101.271 11.936 100.719 12.296 100.223 12.536C100.031 12.632 99.8312 12.704 99.6232 12.752C99.4312 12.8 99.2152 12.776 98.9752 12.68C98.7352 12.616 98.5832 12.472 98.5192 12.248C98.4712 12.008 98.5832 11.792 98.8552 11.6C99.3992 11.216 99.9512 10.784 100.511 10.304C101.087 9.808 101.623 9.28 102.119 8.72C102.615 8.16 103.063 7.576 103.463 6.968C103.863 6.36 104.183 5.736 104.423 5.096C104.039 5.144 103.671 5.192 103.319 5.24C102.967 5.288 102.623 5.328 102.287 5.36C101.935 5.408 101.583 5.456 101.231 5.504C100.895 5.536 100.559 5.568 100.223 5.6C99.9672 5.648 99.7192 5.64 99.4792 5.576C99.2392 5.512 99.0312 5.416 98.8552 5.288C98.6792 5.16 98.5512 5.008 98.4712 4.832C98.3912 4.656 98.3832 4.48 98.4472 4.304ZM110.543 1.208C110.767 1.016 111.031 0.967999 111.335 1.064C111.639 1.144 111.879 1.28 112.055 1.472C112.375 1.84 112.631 2.256 112.823 2.72C113.031 3.168 113.135 3.632 113.135 4.112L112.943 11.168C112.927 11.408 112.903 11.672 112.871 11.96C112.839 12.248 112.791 12.528 112.727 12.8C112.647 13.056 112.535 13.28 112.391 13.472C112.247 13.648 112.071 13.744 111.863 13.76C111.687 13.792 111.543 13.728 111.431 13.568C111.319 13.408 111.231 13.216 111.167 12.992C111.087 12.768 111.031 12.536 110.999 12.296C110.983 12.056 110.975 11.848 110.975 11.672L111.023 8.144L108.695 8.432C108.103 8.528 107.655 8.472 107.351 8.264C107.063 8.056 106.943 7.76 106.991 7.376C107.007 7.152 107.095 6.984 107.255 6.872C107.415 6.744 107.583 6.672 107.759 6.656C107.871 6.656 107.983 6.656 108.095 6.656C108.223 6.656 108.351 6.656 108.479 6.656C108.591 6.656 108.703 6.656 108.815 6.656C108.943 6.656 109.071 6.648 109.199 6.632C109.519 6.616 109.831 6.6 110.135 6.584C110.439 6.552 110.743 6.512 111.047 6.464L111.071 4.808C111.071 4.584 111.047 4.312 110.999 3.992C110.967 3.656 110.895 3.368 110.783 3.128C110.639 2.856 110.495 2.528 110.351 2.144C110.223 1.76 110.287 1.448 110.543 1.208ZM103.031 17.984C103.031 17.344 103.159 16.768 103.415 16.256C103.671 15.744 104.023 15.304 104.471 14.936C104.903 14.568 105.415 14.288 106.007 14.096C106.599 13.904 107.223 13.808 107.879 13.808C108.519 13.808 109.135 13.904 109.727 14.096C110.319 14.288 110.831 14.568 111.263 14.936C111.711 15.288 112.063 15.728 112.319 16.256C112.591 16.768 112.727 17.344 112.727 17.984C112.727 18.64 112.591 19.224 112.319 19.736C112.063 20.248 111.711 20.688 111.263 21.056C110.831 21.408 110.319 21.68 109.727 21.872C109.135 22.064 108.519 22.16 107.879 22.16C107.223 22.176 106.599 22.088 106.007 21.896C105.415 21.704 104.903 21.424 104.471 21.056C104.023 20.688 103.671 20.248 103.415 19.736C103.159 19.224 103.031 18.64 103.031 17.984ZM104.999 17.984C104.999 18.624 105.247 19.192 105.743 19.688C106.255 20.184 106.967 20.424 107.879 20.408C108.775 20.408 109.479 20.168 109.991 19.688C110.503 19.192 110.759 18.624 110.759 17.984C110.759 17.344 110.503 16.784 109.991 16.304C109.479 15.808 108.775 15.56 107.879 15.56C106.967 15.56 106.255 15.8 105.743 16.28C105.247 16.76 104.999 17.328 104.999 17.984Z" fill="#E276A4"/>
</svg>
