<svg width="141" height="23" viewBox="0 0 141 23" fill="none" xmlns="http://www.w3.org/2000/svg">
<path d="M3.528 12.032C3.576 11.792 3.688 11.624 3.864 11.528C4.056 11.416 4.288 11.368 4.56 11.384C4.768 11.416 5.072 11.44 5.472 11.456C5.872 11.456 6.328 11.456 6.84 11.456C6.824 11.168 6.792 10.84 6.744 10.472C6.712 10.088 6.656 9.704 6.576 9.32C6.432 8.808 6.352 8.36 6.336 7.976C6.32 7.592 6.432 7.344 6.672 7.232C7.04 7.072 7.432 7.216 7.848 7.664C8.264 8.112 8.504 8.832 8.568 9.824C8.568 9.968 8.568 10.112 8.568 10.256C8.584 10.384 8.592 10.512 8.592 10.64C8.608 10.784 8.616 10.928 8.616 11.072C8.632 11.2 8.64 11.328 8.64 11.456C8.864 11.456 9.088 11.456 9.312 11.456C9.552 11.44 9.792 11.432 10.032 11.432C10.256 11.416 10.488 11.408 10.728 11.408C10.968 11.392 11.208 11.376 11.448 11.36C11.464 10.784 11.464 10.144 11.448 9.44C11.432 8.736 11.376 8.144 11.28 7.664C11.232 7.488 11.28 7.296 11.424 7.088C11.568 6.864 11.8 6.736 12.12 6.704C12.424 6.688 12.672 6.768 12.864 6.944C13.072 7.12 13.2 7.32 13.248 7.544C13.312 8.152 13.336 8.768 13.32 9.392C13.32 10.016 13.296 10.64 13.248 11.264C13.68 11.248 14.088 11.216 14.472 11.168C14.856 11.12 15.2 11.064 15.504 11C15.68 10.968 15.848 11.032 16.008 11.192C16.168 11.352 16.256 11.552 16.272 11.792C16.272 12 16.224 12.192 16.128 12.368C16.032 12.528 15.912 12.632 15.768 12.68C15.384 12.808 14.68 12.912 13.656 12.992C12.648 13.072 11.56 13.128 10.392 13.16C9.208 13.208 8.064 13.232 6.96 13.232C5.872 13.232 5.056 13.2 4.512 13.136C4.08 13.088 3.792 12.968 3.648 12.776C3.52 12.568 3.48 12.32 3.528 12.032ZM5.736 4.424C6.232 4.408 6.856 4.392 7.608 4.376C8.36 4.344 9.128 4.312 9.912 4.28C10.68 4.248 11.4 4.216 12.072 4.184C12.76 4.152 13.28 4.112 13.632 4.064C13.808 4.048 13.992 4.032 14.184 4.016C14.392 3.984 14.584 3.968 14.76 3.968C15.08 3.968 15.296 4.056 15.408 4.232C15.536 4.408 15.608 4.592 15.624 4.784C15.64 5.12 15.56 5.368 15.384 5.528C15.208 5.672 15.016 5.768 14.808 5.816C14.744 5.832 14.688 5.84 14.64 5.84C14.592 5.824 14.528 5.808 14.448 5.792C14.368 5.792 14.264 5.792 14.136 5.792C14.024 5.776 13.88 5.768 13.704 5.768C13.368 5.8 12.84 5.84 12.12 5.888C11.4 5.92 10.616 5.96 9.768 6.008C8.92 6.056 8.072 6.096 7.224 6.128C6.376 6.144 5.664 6.152 5.088 6.152C4.832 6.152 4.6 6.096 4.392 5.984C4.184 5.872 4.024 5.728 3.912 5.552C3.784 5.376 3.704 5.192 3.672 5C3.64 4.808 3.672 4.632 3.768 4.472C3.848 4.344 3.96 4.272 4.104 4.256C4.264 4.224 4.44 4.224 4.632 4.256C4.808 4.288 4.992 4.328 5.184 4.376C5.376 4.424 5.56 4.44 5.736 4.424ZM2.304 16.4C3.52 16.416 4.752 16.416 6 16.4C7.264 16.384 8.528 16.36 9.792 16.328C11.056 16.28 12.32 16.232 13.584 16.184C14.848 16.136 16.112 16.088 17.376 16.04C17.456 16.04 17.544 16.04 17.64 16.04C17.736 16.024 17.832 16.016 17.928 16.016C18.024 16 18.12 15.992 18.216 15.992C18.312 15.976 18.408 15.968 18.504 15.968C18.824 15.968 19.04 16.056 19.152 16.232C19.28 16.392 19.352 16.568 19.368 16.76C19.384 17.096 19.304 17.344 19.128 17.504C18.952 17.664 18.76 17.76 18.552 17.792C18.488 17.808 18.432 17.816 18.384 17.816C18.336 17.816 18.272 17.808 18.192 17.792C18.112 17.792 18.008 17.784 17.88 17.768C17.768 17.752 17.624 17.744 17.448 17.744C16.056 17.792 14.704 17.84 13.392 17.888C12.096 17.92 10.808 17.952 9.528 17.984C8.248 18.016 6.952 18.048 5.64 18.08C4.344 18.112 3.016 18.136 1.656 18.152C1.4 18.168 1.168 18.12 0.96 18.008C0.752 17.88 0.592 17.728 0.48 17.552C0.352 17.376 0.272 17.192 0.24 17C0.224 16.792 0.264 16.608 0.36 16.448C0.44 16.32 0.552 16.248 0.696 16.232C0.856 16.216 1.024 16.216 1.2 16.232C1.376 16.264 1.56 16.304 1.752 16.352C1.944 16.384 2.128 16.4 2.304 16.4ZM23.9355 14.288C24.7515 14.288 25.5195 14.24 26.2395 14.144C26.9755 14.048 27.8395 13.888 28.8315 13.664C29.0075 13.632 29.1755 13.696 29.3355 13.856C29.4955 14 29.5835 14.192 29.5995 14.432C29.5995 14.64 29.5515 14.824 29.4555 14.984C29.3595 15.144 29.2395 15.248 29.0955 15.296C28.4075 15.536 27.5435 15.728 26.5035 15.872C25.4635 16.016 24.4715 16.056 23.5275 15.992C23.0955 15.976 22.7435 15.84 22.4715 15.584C22.2155 15.312 22.0635 14.896 22.0155 14.336C21.9835 14.048 21.9435 13.728 21.8955 13.376C21.8475 13.008 21.7915 12.656 21.7275 12.32C21.6635 11.968 21.5915 11.648 21.5115 11.36C21.4475 11.072 21.3835 10.84 21.3195 10.664C21.2235 10.488 21.2235 10.272 21.3195 10.016C21.4315 9.76 21.6795 9.632 22.0635 9.632C22.6555 9.632 23.1595 9.624 23.5755 9.608C23.9915 9.576 24.3675 9.544 24.7035 9.512C25.0235 9.48 25.3195 9.448 25.5915 9.416C25.8635 9.368 26.1515 9.32 26.4555 9.272L26.4795 6.536C26.2075 6.552 25.9115 6.576 25.5915 6.608C25.2875 6.64 24.9835 6.672 24.6795 6.704C24.3595 6.736 24.0395 6.768 23.7195 6.8C23.4155 6.816 23.1275 6.832 22.8555 6.848C22.6315 6.864 22.4155 6.832 22.2075 6.752C21.9995 6.656 21.8235 6.528 21.6795 6.368C21.5355 6.224 21.4315 6.064 21.3675 5.888C21.3195 5.712 21.3435 5.536 21.4395 5.36C21.5355 5.216 21.6795 5.136 21.8715 5.12C22.0795 5.088 22.2795 5.072 22.4715 5.072C23.0795 5.072 23.8075 5.04 24.6555 4.976C25.5035 4.912 26.3275 4.84 27.1275 4.76C27.4475 4.744 27.7595 4.864 28.0635 5.12C28.3675 5.36 28.5115 5.664 28.4955 6.032C28.4795 6.256 28.4635 6.552 28.4475 6.92C28.4315 7.272 28.4155 7.64 28.3995 8.024C28.3995 8.392 28.3915 8.752 28.3755 9.104C28.3595 9.44 28.3435 9.696 28.3275 9.872C28.2635 10.352 28.0875 10.664 27.7995 10.808C27.5115 10.936 27.1995 11.008 26.8635 11.024C26.6555 11.04 26.3995 11.064 26.0955 11.096C25.8075 11.112 25.5115 11.128 25.2075 11.144C24.8875 11.16 24.5835 11.184 24.2955 11.216C24.0075 11.232 23.7595 11.24 23.5515 11.24L23.9355 14.288ZM34.3035 1.208C34.5275 1.016 34.7835 0.967999 35.0715 1.064C35.3755 1.144 35.6155 1.28 35.7915 1.472C36.0955 1.84 36.3435 2.256 36.5355 2.72C36.7435 3.168 36.8475 3.632 36.8475 4.112L36.6795 18.872C36.6635 19.112 36.6395 19.376 36.6075 19.664C36.5755 19.952 36.5195 20.232 36.4395 20.504C36.3595 20.76 36.2475 20.976 36.1035 21.152C35.9595 21.344 35.7835 21.448 35.5755 21.464C35.4155 21.496 35.2795 21.432 35.1675 21.272C35.0715 21.112 34.9915 20.92 34.9275 20.696C34.8795 20.472 34.8395 20.24 34.8075 20C34.7915 19.76 34.7835 19.552 34.7835 19.376L34.8555 4.808C34.8555 4.584 34.8315 4.312 34.7835 3.992C34.7355 3.656 34.6555 3.368 34.5435 3.128C34.3835 2.856 34.2395 2.528 34.1115 2.144C33.9835 1.76 34.0475 1.448 34.3035 1.208ZM30.4635 3.368C30.6875 3.176 30.9435 3.12 31.2315 3.2C31.5355 3.28 31.7755 3.416 31.9515 3.608C32.2555 3.976 32.5035 4.392 32.6955 4.856C32.9035 5.304 33.0075 5.768 33.0075 6.248L32.8155 17C32.7995 17.24 32.7755 17.512 32.7435 17.816C32.7275 18.104 32.6795 18.376 32.5995 18.632C32.5195 18.888 32.4075 19.112 32.2635 19.304C32.1355 19.48 31.9675 19.576 31.7595 19.592C31.5995 19.624 31.4635 19.56 31.3515 19.4C31.2395 19.24 31.1515 19.048 31.0875 18.824C31.0235 18.6 30.9755 18.368 30.9435 18.128C30.9275 17.872 30.9195 17.656 30.9195 17.48L30.9675 10.928L30.5595 10.976C29.9835 11.072 29.5435 11.016 29.2395 10.808C28.9515 10.6 28.8315 10.304 28.8795 9.92C28.8955 9.776 28.9835 9.648 29.1435 9.536C29.3035 9.408 29.4715 9.336 29.6475 9.32C29.7595 9.32 29.8635 9.32 29.9595 9.32C30.0715 9.32 30.1835 9.32 30.2955 9.32C30.4075 9.32 30.5195 9.32 30.6315 9.32C30.7435 9.32 30.8635 9.32 30.9915 9.32L31.0155 6.968C31.0155 6.728 30.9915 6.448 30.9435 6.128C30.8955 5.808 30.8155 5.528 30.7035 5.288C30.5595 5 30.4235 4.672 30.2955 4.304C30.1675 3.92 30.2235 3.608 30.4635 3.368ZM46.5444 7.928C46.5444 7.064 46.3444 6.368 45.9444 5.84C45.5444 5.296 44.8964 5.024 44.0004 5.024C43.0884 5.024 42.4404 5.296 42.0564 5.84C41.6724 6.384 41.4804 7.08 41.4804 7.928C41.4804 8.84 41.6964 9.56 42.1284 10.088C42.5604 10.6 43.1844 10.856 44.0004 10.856C44.8484 10.856 45.4804 10.584 45.8964 10.04C46.3284 9.496 46.5444 8.792 46.5444 7.928ZM48.5124 7.928C48.5124 8.52 48.4244 9.104 48.2484 9.68C48.0884 10.24 47.8244 10.744 47.4564 11.192C47.1044 11.624 46.6404 11.976 46.0644 12.248C45.5044 12.52 44.8244 12.656 44.0244 12.656C43.1764 12.656 42.4644 12.528 41.8884 12.272C41.3284 12 40.8644 11.64 40.4964 11.192C40.1444 10.744 39.8884 10.24 39.7284 9.68C39.5844 9.12 39.5124 8.536 39.5124 7.928C39.5124 7.304 39.6084 6.704 39.8004 6.128C39.9924 5.552 40.2724 5.048 40.6404 4.616C41.0244 4.184 41.4964 3.84 42.0564 3.584C42.6164 3.312 43.2724 3.176 44.0244 3.176C44.7604 3.176 45.4084 3.304 45.9684 3.56C46.5444 3.816 47.0164 4.16 47.3844 4.592C47.7524 5.024 48.0324 5.528 48.2244 6.104C48.4164 6.68 48.5124 7.288 48.5124 7.928ZM51.8244 1.208C52.0484 1.016 52.3124 0.967999 52.6164 1.064C52.9204 1.144 53.1604 1.28 53.3364 1.472C53.6564 1.84 53.9124 2.256 54.1044 2.72C54.3124 3.168 54.4164 3.632 54.4164 4.112L54.2244 10.712C54.2084 10.952 54.1844 11.216 54.1524 11.504C54.1204 11.792 54.0724 12.072 54.0084 12.344C53.9284 12.6 53.8164 12.824 53.6724 13.016C53.5284 13.192 53.3524 13.288 53.1444 13.304C52.9684 13.336 52.8244 13.272 52.7124 13.112C52.6004 12.952 52.5124 12.76 52.4484 12.536C52.3684 12.312 52.3124 12.08 52.2804 11.84C52.2644 11.6 52.2564 11.392 52.2564 11.216L52.3524 4.808C52.3524 4.584 52.3284 4.312 52.2804 3.992C52.2484 3.656 52.1764 3.368 52.0644 3.128C51.9204 2.856 51.7764 2.528 51.6324 2.144C51.5044 1.76 51.5684 1.448 51.8244 1.208ZM45.2004 16.28C45.3124 16.856 45.4084 17.488 45.4884 18.176C45.5684 18.864 45.6244 19.544 45.6564 20.216C46.7924 20.264 47.9204 20.28 49.0404 20.264C50.1764 20.248 51.1284 20.2 51.8964 20.12C51.9124 19.784 51.9284 19.44 51.9444 19.088C51.9764 18.736 52.0004 18.384 52.0164 18.032C52.0484 17.68 52.0644 17.336 52.0644 17C52.0804 16.648 52.0884 16.312 52.0884 15.992C51.5444 16.04 50.9764 16.08 50.3844 16.112C49.8084 16.128 49.2244 16.144 48.6324 16.16C48.0404 16.176 47.4484 16.2 46.8564 16.232C46.2804 16.248 45.7284 16.264 45.2004 16.28ZM42.7044 15.104C42.7524 14.896 42.8724 14.76 43.0644 14.696C43.2724 14.632 43.5844 14.608 44.0004 14.624C44.2564 14.64 44.5124 14.648 44.7684 14.648C45.0244 14.648 45.2964 14.64 45.5844 14.624C46.1284 14.608 46.6884 14.592 47.2644 14.576C47.8404 14.544 48.4164 14.52 48.9924 14.504C49.5684 14.488 50.1444 14.472 50.7204 14.456C51.2964 14.424 51.8644 14.384 52.4244 14.336C53.0004 14.288 53.4084 14.392 53.6484 14.648C53.9044 14.904 54.0324 15.2 54.0324 15.536C54.0004 16.256 53.9524 17.096 53.8884 18.056C53.8404 19 53.7924 19.816 53.7444 20.504C53.6964 20.936 53.5764 21.248 53.3844 21.44C53.1924 21.632 52.8004 21.744 52.2084 21.776C51.8244 21.808 51.3444 21.832 50.7684 21.848C50.2084 21.88 49.6244 21.904 49.0164 21.92C48.3924 21.936 47.7764 21.936 47.1684 21.92C46.5764 21.92 46.0564 21.904 45.6084 21.872C44.9684 21.824 44.5044 21.608 44.2164 21.224C43.9444 20.84 43.8004 20.432 43.7844 20C43.7524 19.712 43.7284 19.424 43.7124 19.136C43.6964 18.832 43.6724 18.536 43.6404 18.248C43.5924 17.96 43.5364 17.68 43.4724 17.408C43.4084 17.136 43.3284 16.872 43.2324 16.616C43.1684 16.504 43.0964 16.384 43.0164 16.256C42.9524 16.112 42.8964 15.968 42.8484 15.824C42.7844 15.696 42.7364 15.576 42.7044 15.464C42.6724 15.336 42.6724 15.216 42.7044 15.104ZM69.6152 5.12C69.5192 5.584 69.4072 6.032 69.2792 6.464C69.1512 6.88 68.9992 7.288 68.8232 7.688C69.4632 8.232 70.1192 8.864 70.7912 9.584C71.4792 10.304 72.0072 10.936 72.3752 11.48C72.4712 11.64 72.4792 11.832 72.3992 12.056C72.3352 12.264 72.2312 12.416 72.0872 12.512C71.8952 12.656 71.7032 12.712 71.5112 12.68C71.3192 12.648 71.1592 12.56 71.0312 12.416C70.5512 11.888 70.0232 11.384 69.4472 10.904C68.8712 10.408 68.3192 9.96 67.7912 9.56C67.3432 10.232 66.8632 10.824 66.3512 11.336C65.8392 11.832 65.3272 12.224 64.8152 12.512C64.6392 12.608 64.4312 12.704 64.1912 12.8C63.9672 12.896 63.7352 12.896 63.4952 12.8C63.2552 12.736 63.1112 12.6 63.0632 12.392C63.0152 12.168 63.1192 11.944 63.3752 11.72C64.2392 11 65.0472 10.112 65.7992 9.056C66.5672 8 67.1432 6.8 67.5272 5.456C67.6232 5.12 67.6872 4.824 67.7192 4.568C67.7512 4.296 67.7832 4.064 67.8152 3.872C67.8472 3.68 67.8872 3.528 67.9352 3.416C67.9992 3.288 68.1032 3.192 68.2472 3.128C68.4552 3.048 68.6552 3.064 68.8472 3.176C69.0392 3.272 69.1992 3.424 69.3272 3.632C69.4392 3.84 69.5192 4.08 69.5672 4.352C69.6312 4.624 69.6472 4.88 69.6152 5.12ZM75.4952 6.632C75.8632 6.632 76.1752 6.624 76.4312 6.608C76.7032 6.576 76.9272 6.544 77.1032 6.512C77.1832 6.512 77.2552 6.512 77.3192 6.512C77.3832 6.512 77.4472 6.504 77.5112 6.488L77.5352 4.808C77.5352 4.584 77.5112 4.312 77.4632 3.992C77.4152 3.656 77.3352 3.368 77.2232 3.128C77.0632 2.856 76.9192 2.528 76.7912 2.144C76.6632 1.76 76.7272 1.448 76.9832 1.208C77.2072 1.016 77.4632 0.967999 77.7512 1.064C78.0552 1.144 78.2952 1.28 78.4712 1.472C78.7752 1.84 79.0232 2.256 79.2152 2.72C79.4072 3.168 79.5032 3.632 79.5032 4.112L79.3352 10.712C79.3352 10.952 79.3192 11.216 79.2872 11.504C79.2552 11.792 79.1992 12.072 79.1192 12.344C79.0392 12.6 78.9272 12.824 78.7832 13.016C78.6392 13.192 78.4632 13.288 78.2552 13.304C78.0952 13.336 77.9592 13.272 77.8472 13.112C77.7512 12.952 77.6712 12.76 77.6072 12.536C77.5592 12.312 77.5192 12.08 77.4872 11.84C77.4712 11.6 77.4632 11.392 77.4632 11.216L77.4872 8.24C77.3112 8.24 77.1432 8.248 76.9832 8.264C76.8232 8.264 76.6632 8.264 76.5032 8.264C76.3272 8.264 76.1512 8.264 75.9752 8.264C75.7992 8.264 75.6232 8.264 75.4472 8.264L75.3752 10.544C75.3752 10.784 75.3592 11.056 75.3272 11.36C75.2952 11.648 75.2392 11.92 75.1592 12.176C75.0952 12.432 74.9912 12.656 74.8472 12.848C74.7032 13.024 74.5272 13.12 74.3192 13.136C74.1592 13.168 74.0232 13.112 73.9112 12.968C73.8152 12.808 73.7352 12.616 73.6712 12.392C73.6072 12.168 73.5592 11.936 73.5272 11.696C73.5112 11.44 73.5032 11.224 73.5032 11.048L73.5752 5.432C73.5752 5.208 73.5512 4.936 73.5032 4.616C73.4552 4.28 73.3752 3.992 73.2632 3.752C73.1192 3.48 72.9832 3.152 72.8552 2.768C72.7272 2.384 72.7832 2.072 73.0232 1.832C73.2472 1.64 73.5032 1.592 73.7912 1.688C74.0952 1.768 74.3352 1.904 74.5112 2.096C74.8152 2.464 75.0632 2.88 75.2552 3.344C75.4472 3.792 75.5432 4.256 75.5432 4.736L75.4952 6.632ZM68.1272 14.984C68.1752 14.888 68.2712 14.816 68.4152 14.768C68.5752 14.72 68.7592 14.688 68.9672 14.672C69.1752 14.672 69.3832 14.672 69.5912 14.672C69.7992 14.672 69.9912 14.664 70.1672 14.648C70.4872 14.648 70.9432 14.64 71.5352 14.624C72.1272 14.592 72.7512 14.56 73.4072 14.528C74.0632 14.512 74.7112 14.496 75.3512 14.48C76.0072 14.448 76.5592 14.416 77.0072 14.384C77.1352 14.384 77.2632 14.384 77.3912 14.384C77.5192 14.368 77.6552 14.36 77.7992 14.36C77.9272 14.376 78.0552 14.408 78.1832 14.456C78.3272 14.504 78.4712 14.584 78.6152 14.696C78.7432 14.808 78.8472 14.96 78.9272 15.152C79.0072 15.344 79.0472 15.504 79.0472 15.632L78.8072 19.76C78.7912 20 78.7512 20.248 78.6872 20.504C78.6392 20.776 78.5672 21.024 78.4712 21.248C78.3752 21.456 78.2552 21.632 78.1112 21.776C77.9832 21.92 77.8392 21.984 77.6792 21.968C77.3912 21.968 77.2072 21.792 77.1272 21.44C77.0472 21.104 77.0072 20.752 77.0072 20.384L77.0552 16.064L69.5912 16.376C69.0632 16.408 68.6552 16.248 68.3672 15.896C68.0792 15.544 67.9992 15.24 68.1272 14.984ZM88.7681 5.264C88.6721 5.68 88.5601 6.08 88.4321 6.464C88.3201 6.848 88.1921 7.208 88.0481 7.544C88.7521 8.104 89.4641 8.712 90.1841 9.368C90.9041 10.008 91.5121 10.672 92.0081 11.36C92.1041 11.52 92.1041 11.712 92.0081 11.936C91.9281 12.144 91.8161 12.296 91.6721 12.392C91.4801 12.536 91.2801 12.592 91.0721 12.56C90.8641 12.528 90.6961 12.44 90.5681 12.296C90.1041 11.816 89.5681 11.328 88.9601 10.832C88.3521 10.32 87.7201 9.824 87.0641 9.344C86.5361 10.112 85.9521 10.776 85.3121 11.336C84.6881 11.896 84.0721 12.336 83.4641 12.656C83.2721 12.752 83.0721 12.824 82.8641 12.872C82.6721 12.92 82.4561 12.896 82.2161 12.8C81.9761 12.736 81.8241 12.592 81.7601 12.368C81.7121 12.144 81.8241 11.928 82.0961 11.72C83.4081 10.712 84.4081 9.704 85.0961 8.696C85.7841 7.688 86.2721 6.752 86.5601 5.888C86.6561 5.552 86.7201 5.232 86.7521 4.928C86.8001 4.624 86.8481 4.352 86.8961 4.112C86.9281 3.872 86.9841 3.672 87.0641 3.512C87.1601 3.336 87.3041 3.208 87.4961 3.128C87.7521 3.048 87.9681 3.08 88.1441 3.224C88.3201 3.352 88.4561 3.536 88.5521 3.776C88.6641 4.016 88.7361 4.28 88.7681 4.568C88.8001 4.84 88.8001 5.072 88.7681 5.264ZM93.9041 1.208C94.1281 1.016 94.3921 0.967999 94.6961 1.064C95.0001 1.144 95.2401 1.28 95.4161 1.472C95.7361 1.84 95.9921 2.256 96.1841 2.72C96.3921 3.168 96.4961 3.632 96.4961 4.112L96.4241 6.728C96.7601 6.712 97.0961 6.696 97.4321 6.68C97.7681 6.648 98.1201 6.616 98.4881 6.584C98.6641 6.584 98.8481 6.584 99.0401 6.584C99.2481 6.568 99.4401 6.56 99.6161 6.56C99.9361 6.592 100.152 6.696 100.264 6.872C100.376 7.032 100.432 7.208 100.432 7.4C100.432 7.736 100.336 7.976 100.144 8.12C99.9681 8.264 99.7681 8.352 99.5441 8.384C99.4801 8.4 99.4241 8.408 99.3761 8.408C99.3281 8.392 99.2641 8.376 99.1841 8.36C99.1201 8.344 99.0241 8.328 98.8961 8.312C98.7841 8.296 98.6401 8.288 98.4641 8.288C98.1281 8.304 97.7841 8.32 97.4321 8.336C97.0961 8.352 96.7441 8.36 96.3761 8.36L96.3041 11.168C96.2881 11.408 96.2641 11.672 96.2321 11.96C96.2001 12.248 96.1521 12.528 96.0881 12.8C96.0081 13.056 95.8961 13.28 95.7521 13.472C95.6081 13.648 95.4321 13.744 95.2241 13.76C95.0481 13.792 94.9041 13.728 94.7921 13.568C94.6801 13.408 94.5921 13.216 94.5281 12.992C94.4481 12.768 94.3921 12.536 94.3601 12.296C94.3441 12.056 94.3361 11.848 94.3361 11.672L94.4321 4.808C94.4321 4.584 94.4081 4.312 94.3601 3.992C94.3281 3.656 94.2561 3.368 94.1441 3.128C94.0001 2.856 93.8561 2.528 93.7121 2.144C93.5841 1.76 93.6481 1.448 93.9041 1.208ZM86.7521 17.984C86.7521 17.344 86.8801 16.768 87.1361 16.256C87.3921 15.744 87.7441 15.304 88.1921 14.936C88.6241 14.568 89.1361 14.288 89.7281 14.096C90.3201 13.904 90.9441 13.808 91.6001 13.808C92.2401 13.808 92.8561 13.904 93.4481 14.096C94.0401 14.288 94.5521 14.568 94.9841 14.936C95.4321 15.288 95.7841 15.728 96.0401 16.256C96.3121 16.768 96.4481 17.344 96.4481 17.984C96.4481 18.64 96.3121 19.224 96.0401 19.736C95.7841 20.248 95.4321 20.688 94.9841 21.056C94.5521 21.408 94.0401 21.68 93.4481 21.872C92.8561 22.064 92.2401 22.16 91.6001 22.16C90.9441 22.176 90.3201 22.088 89.7281 21.896C89.1361 21.704 88.6241 21.424 88.1921 21.056C87.7441 20.688 87.3921 20.248 87.1361 19.736C86.8801 19.224 86.7521 18.64 86.7521 17.984ZM88.7201 17.984C88.7201 18.624 88.9681 19.192 89.4641 19.688C89.9761 20.184 90.6881 20.424 91.6001 20.408C92.4961 20.408 93.2001 20.168 93.7121 19.688C94.2241 19.192 94.4801 18.624 94.4801 17.984C94.4801 17.344 94.2241 16.784 93.7121 16.304C93.2001 15.808 92.4961 15.56 91.6001 15.56C90.6881 15.56 89.9761 15.8 89.4641 16.28C88.9681 16.76 88.7201 17.328 88.7201 17.984ZM113.917 4.784C113.821 5.136 113.717 5.48 113.605 5.816C113.493 6.152 113.365 6.48 113.221 6.8C113.973 7.376 114.709 8.016 115.429 8.72C116.165 9.424 116.741 10.064 117.157 10.64C117.253 10.8 117.261 10.992 117.181 11.216C117.101 11.424 116.989 11.576 116.845 11.672C116.653 11.816 116.461 11.872 116.269 11.84C116.077 11.808 115.909 11.72 115.765 11.576C115.269 11.064 114.717 10.552 114.109 10.04C113.517 9.512 112.893 9.008 112.237 8.528C111.709 9.296 111.125 9.976 110.485 10.568C109.845 11.144 109.221 11.6 108.613 11.936C108.421 12.032 108.221 12.104 108.013 12.152C107.821 12.2 107.605 12.176 107.365 12.08C107.125 12.016 106.981 11.872 106.933 11.648C106.885 11.424 106.989 11.208 107.245 11C108.301 10.184 109.221 9.248 110.005 8.192C110.805 7.12 111.349 6.152 111.637 5.288C111.733 4.952 111.813 4.648 111.877 4.376C111.941 4.104 111.997 3.864 112.045 3.656C112.109 3.448 112.173 3.28 112.237 3.152C112.317 3.024 112.421 2.936 112.549 2.888C112.757 2.824 112.949 2.84 113.125 2.936C113.317 3.032 113.485 3.184 113.629 3.392C113.757 3.584 113.845 3.808 113.893 4.064C113.957 4.32 113.965 4.56 113.917 4.784ZM119.653 1.208C119.877 1.016 120.141 0.96 120.445 1.04C120.749 1.12 120.989 1.256 121.165 1.448C121.485 1.816 121.741 2.232 121.933 2.696C122.141 3.144 122.245 3.608 122.245 4.088L122.053 9.968C122.037 10.208 122.013 10.48 121.981 10.784C121.949 11.072 121.901 11.344 121.837 11.6C121.757 11.872 121.645 12.104 121.501 12.296C121.357 12.472 121.181 12.568 120.973 12.584C120.797 12.616 120.653 12.552 120.541 12.392C120.429 12.232 120.341 12.04 120.277 11.816C120.197 11.592 120.141 11.36 120.109 11.12C120.093 10.864 120.085 10.648 120.085 10.472L120.133 7.424L117.805 7.712C117.213 7.808 116.765 7.752 116.461 7.544C116.173 7.336 116.053 7.04 116.101 6.656C116.117 6.432 116.205 6.264 116.365 6.152C116.525 6.024 116.693 5.952 116.869 5.936C116.981 5.936 117.093 5.936 117.205 5.936C117.333 5.936 117.461 5.936 117.589 5.936C117.701 5.936 117.813 5.936 117.925 5.936C118.053 5.936 118.181 5.928 118.309 5.912C118.629 5.896 118.941 5.88 119.245 5.864C119.549 5.832 119.853 5.792 120.157 5.744L120.181 4.808C120.181 4.568 120.157 4.288 120.109 3.968C120.077 3.648 120.005 3.368 119.893 3.128C119.813 2.984 119.733 2.832 119.653 2.672C119.573 2.496 119.509 2.32 119.461 2.144C119.413 1.968 119.397 1.8 119.413 1.64C119.445 1.48 119.525 1.336 119.653 1.208ZM110.821 14.024C110.901 13.88 111.045 13.8 111.253 13.784C111.461 13.752 111.661 13.736 111.853 13.736C112.493 13.736 113.173 13.728 113.893 13.712C114.629 13.68 115.373 13.648 116.125 13.616C116.861 13.6 117.589 13.576 118.309 13.544C119.045 13.496 119.733 13.448 120.373 13.4C120.693 13.4 121.005 13.52 121.309 13.76C121.613 14 121.757 14.304 121.741 14.672C121.725 14.896 121.709 15.128 121.693 15.368C121.693 15.592 121.685 15.816 121.669 16.04C121.653 16.264 121.637 16.48 121.621 16.688C121.621 16.896 121.613 17.088 121.597 17.264C121.533 17.76 121.317 18.088 120.949 18.248C120.597 18.392 120.253 18.456 119.917 18.44C119.293 18.44 118.693 18.448 118.117 18.464C117.557 18.464 116.997 18.472 116.437 18.488C115.893 18.504 115.357 18.528 114.829 18.56C114.301 18.576 113.781 18.592 113.269 18.608L113.725 20.216C114.877 20.232 116.101 20.232 117.397 20.216C118.693 20.2 119.933 20.144 121.117 20.048C121.453 20.016 121.701 20.088 121.861 20.264C122.021 20.44 122.101 20.632 122.101 20.84C122.069 21.208 121.933 21.464 121.693 21.608C121.453 21.752 121.213 21.824 120.973 21.824C120.221 21.824 119.533 21.832 118.909 21.848C118.285 21.864 117.693 21.88 117.133 21.896C116.573 21.912 116.029 21.928 115.501 21.944C114.989 21.96 114.469 21.96 113.941 21.944C113.397 21.944 112.957 21.824 112.621 21.584C112.301 21.36 112.061 20.984 111.901 20.456C111.837 20.28 111.773 20.104 111.709 19.928C111.661 19.752 111.605 19.576 111.541 19.4C111.493 19.24 111.429 19.08 111.349 18.92C111.285 18.744 111.213 18.576 111.133 18.416C110.925 18.064 110.893 17.744 111.037 17.456C111.197 17.152 111.469 17 111.853 17C112.493 17.032 113.173 17.048 113.893 17.048C114.629 17.032 115.349 17.008 116.053 16.976C116.757 16.944 117.429 16.912 118.069 16.88C118.709 16.832 119.269 16.784 119.749 16.736L119.773 15.128C119.213 15.16 118.605 15.192 117.949 15.224C117.309 15.256 116.653 15.28 115.981 15.296C115.325 15.328 114.669 15.36 114.013 15.392C113.373 15.424 112.781 15.448 112.237 15.464C112.013 15.48 111.797 15.448 111.589 15.368C111.381 15.272 111.205 15.152 111.061 15.008C110.917 14.864 110.813 14.712 110.749 14.552C110.701 14.376 110.725 14.2 110.821 14.024ZM125.322 4.304C125.354 4.208 125.41 4.136 125.49 4.088C125.57 4.04 125.666 4 125.778 3.968C125.89 3.952 126.018 3.944 126.162 3.944C126.322 3.944 126.498 3.928 126.69 3.896C126.978 3.88 127.322 3.856 127.722 3.824C128.122 3.792 128.546 3.76 128.994 3.728C129.458 3.68 129.93 3.632 130.41 3.584C130.89 3.536 131.354 3.472 131.802 3.392C131.962 3.392 132.13 3.4 132.306 3.416C132.498 3.432 132.674 3.488 132.834 3.584C133.026 3.696 133.194 3.856 133.338 4.064C133.482 4.272 133.53 4.472 133.482 4.664C133.306 5.304 133.066 5.928 132.762 6.536C132.474 7.128 132.146 7.688 131.778 8.216C132.386 8.696 132.97 9.2 133.53 9.728C134.106 10.256 134.602 10.76 135.018 11.24C135.114 11.384 135.122 11.568 135.042 11.792C134.962 12.016 134.85 12.184 134.706 12.296C134.514 12.44 134.314 12.512 134.106 12.512C133.898 12.512 133.73 12.44 133.602 12.296C133.09 11.768 132.578 11.312 132.066 10.928C131.554 10.528 131.042 10.144 130.53 9.776C129.954 10.416 129.362 10.976 128.754 11.456C128.146 11.936 127.594 12.296 127.098 12.536C126.906 12.632 126.706 12.704 126.498 12.752C126.306 12.8 126.09 12.776 125.85 12.68C125.61 12.616 125.458 12.472 125.394 12.248C125.346 12.008 125.458 11.792 125.73 11.6C126.274 11.216 126.826 10.784 127.386 10.304C127.962 9.808 128.498 9.28 128.994 8.72C129.49 8.16 129.938 7.576 130.338 6.968C130.738 6.36 131.058 5.736 131.298 5.096C130.914 5.144 130.546 5.192 130.194 5.24C129.842 5.288 129.498 5.328 129.162 5.36C128.81 5.408 128.458 5.456 128.106 5.504C127.77 5.536 127.434 5.568 127.098 5.6C126.842 5.648 126.594 5.64 126.354 5.576C126.114 5.512 125.906 5.416 125.73 5.288C125.554 5.16 125.426 5.008 125.346 4.832C125.266 4.656 125.258 4.48 125.322 4.304ZM137.418 1.208C137.642 1.016 137.906 0.967999 138.21 1.064C138.514 1.144 138.754 1.28 138.93 1.472C139.25 1.84 139.506 2.256 139.698 2.72C139.906 3.168 140.01 3.632 140.01 4.112L139.818 11.168C139.802 11.408 139.778 11.672 139.746 11.96C139.714 12.248 139.666 12.528 139.602 12.8C139.522 13.056 139.41 13.28 139.266 13.472C139.122 13.648 138.946 13.744 138.738 13.76C138.562 13.792 138.418 13.728 138.306 13.568C138.194 13.408 138.106 13.216 138.042 12.992C137.962 12.768 137.906 12.536 137.874 12.296C137.858 12.056 137.85 11.848 137.85 11.672L137.898 8.144L135.57 8.432C134.978 8.528 134.53 8.472 134.226 8.264C133.938 8.056 133.818 7.76 133.866 7.376C133.882 7.152 133.97 6.984 134.13 6.872C134.29 6.744 134.458 6.672 134.634 6.656C134.746 6.656 134.858 6.656 134.97 6.656C135.098 6.656 135.226 6.656 135.354 6.656C135.466 6.656 135.578 6.656 135.69 6.656C135.818 6.656 135.946 6.648 136.074 6.632C136.394 6.616 136.706 6.6 137.01 6.584C137.314 6.552 137.618 6.512 137.922 6.464L137.946 4.808C137.946 4.584 137.922 4.312 137.874 3.992C137.842 3.656 137.77 3.368 137.658 3.128C137.514 2.856 137.37 2.528 137.226 2.144C137.098 1.76 137.162 1.448 137.418 1.208ZM129.906 17.984C129.906 17.344 130.034 16.768 130.29 16.256C130.546 15.744 130.898 15.304 131.346 14.936C131.778 14.568 132.29 14.288 132.882 14.096C133.474 13.904 134.098 13.808 134.754 13.808C135.394 13.808 136.01 13.904 136.602 14.096C137.194 14.288 137.706 14.568 138.138 14.936C138.586 15.288 138.938 15.728 139.194 16.256C139.466 16.768 139.602 17.344 139.602 17.984C139.602 18.64 139.466 19.224 139.194 19.736C138.938 20.248 138.586 20.688 138.138 21.056C137.706 21.408 137.194 21.68 136.602 21.872C136.01 22.064 135.394 22.16 134.754 22.16C134.098 22.176 133.474 22.088 132.882 21.896C132.29 21.704 131.778 21.424 131.346 21.056C130.898 20.688 130.546 20.248 130.29 19.736C130.034 19.224 129.906 18.64 129.906 17.984ZM131.874 17.984C131.874 18.624 132.122 19.192 132.618 19.688C133.13 20.184 133.842 20.424 134.754 20.408C135.65 20.408 136.354 20.168 136.866 19.688C137.378 19.192 137.634 18.624 137.634 17.984C137.634 17.344 137.378 16.784 136.866 16.304C136.354 15.808 135.65 15.56 134.754 15.56C133.842 15.56 133.13 15.8 132.618 16.28C132.122 16.76 131.874 17.328 131.874 17.984Z" fill="#E276A4"/>
</svg>
