<svg width="76" height="23" viewBox="0 0 76 23" fill="none" xmlns="http://www.w3.org/2000/svg">
<path d="M0.36 10.616C0.408 10.376 0.512 10.224 0.672 10.16C0.848 10.096 1.072 10.072 1.344 10.088C1.536 10.12 1.76 10.136 2.016 10.136C2.288 10.136 2.592 10.136 2.928 10.136C2.912 9.848 2.888 9.576 2.856 9.32C2.824 9.064 2.776 8.752 2.712 8.384C2.648 8.128 2.592 7.888 2.544 7.664C2.496 7.44 2.464 7.232 2.448 7.04C2.432 6.864 2.448 6.712 2.496 6.584C2.544 6.456 2.648 6.36 2.808 6.296C3.24 6.152 3.632 6.304 3.984 6.752C4.352 7.184 4.6 7.896 4.728 8.888C4.744 9.128 4.76 9.336 4.776 9.512C4.792 9.672 4.808 9.848 4.824 10.04C5.112 10.04 5.4 10.032 5.688 10.016C5.992 9.984 6.288 9.952 6.576 9.92C6.592 9.44 6.584 8.928 6.552 8.384C6.52 7.84 6.472 7.24 6.408 6.584C6.376 6.408 6.44 6.232 6.6 6.056C6.776 5.864 6.992 5.768 7.248 5.768C7.632 5.768 7.904 5.84 8.064 5.984C8.224 6.128 8.328 6.312 8.376 6.536C8.424 7.032 8.448 7.56 8.448 8.12C8.464 8.664 8.464 9.2 8.448 9.728C8.768 9.696 9.08 9.664 9.384 9.632C9.688 9.584 9.984 9.528 10.272 9.464C10.448 9.432 10.616 9.496 10.776 9.656C10.936 9.8 11.024 9.992 11.04 10.232C11.04 10.44 10.992 10.624 10.896 10.784C10.8 10.944 10.68 11.048 10.536 11.096C10.152 11.224 9.56 11.344 8.76 11.456C7.976 11.552 7.128 11.632 6.216 11.696C5.304 11.776 4.408 11.832 3.528 11.864C2.648 11.88 1.936 11.856 1.392 11.792C0.96 11.744 0.656 11.608 0.48 11.384C0.32 11.16 0.28 10.904 0.36 10.616ZM2.568 3.608C3.064 3.592 3.576 3.576 4.104 3.56C4.648 3.528 5.184 3.496 5.712 3.464C6.224 3.432 6.712 3.4 7.176 3.368C7.64 3.336 8.048 3.296 8.4 3.248C8.576 3.232 8.76 3.216 8.952 3.2C9.16 3.168 9.352 3.152 9.528 3.152C9.848 3.152 10.064 3.24 10.176 3.416C10.304 3.592 10.376 3.776 10.392 3.968C10.408 4.304 10.328 4.552 10.152 4.712C9.976 4.856 9.784 4.952 9.576 5C9.512 5.016 9.456 5.024 9.408 5.024C9.36 5.008 9.296 4.992 9.216 4.976C9.136 4.976 9.032 4.976 8.904 4.976C8.792 4.96 8.648 4.952 8.472 4.952C8.136 4.984 7.712 5.024 7.2 5.072C6.704 5.104 6.16 5.144 5.568 5.192C4.976 5.24 4.36 5.28 3.72 5.312C3.096 5.328 2.496 5.336 1.92 5.336C1.664 5.336 1.432 5.28 1.224 5.168C1.016 5.056 0.856 4.912 0.744 4.736C0.616 4.56 0.536 4.376 0.504 4.184C0.472 3.992 0.504 3.816 0.6 3.656C0.68 3.528 0.792 3.456 0.936 3.44C1.096 3.408 1.272 3.408 1.464 3.44C1.64 3.472 1.824 3.512 2.016 3.56C2.208 3.608 2.392 3.624 2.568 3.608ZM13.176 1.208C13.4 1.016 13.664 0.96 13.968 1.04C14.272 1.12 14.512 1.256 14.688 1.448C15.008 1.816 15.264 2.232 15.456 2.696C15.664 3.144 15.768 3.608 15.768 4.088L15.576 9.968C15.56 10.208 15.536 10.48 15.504 10.784C15.472 11.072 15.424 11.344 15.36 11.6C15.28 11.872 15.168 12.104 15.024 12.296C14.88 12.472 14.704 12.568 14.496 12.584C14.32 12.616 14.176 12.552 14.064 12.392C13.952 12.232 13.864 12.04 13.8 11.816C13.72 11.592 13.664 11.36 13.632 11.12C13.616 10.864 13.608 10.648 13.608 10.472L13.704 4.808C13.704 4.568 13.68 4.288 13.632 3.968C13.6 3.648 13.528 3.368 13.416 3.128C13.336 2.984 13.256 2.832 13.176 2.672C13.096 2.496 13.032 2.32 12.984 2.144C12.936 1.968 12.92 1.8 12.936 1.64C12.968 1.48 13.048 1.336 13.176 1.208ZM4.344 14.024C4.424 13.88 4.568 13.8 4.776 13.784C4.984 13.752 5.184 13.736 5.376 13.736C6.016 13.736 6.696 13.728 7.416 13.712C8.152 13.68 8.896 13.648 9.648 13.616C10.384 13.6 11.112 13.576 11.832 13.544C12.568 13.496 13.256 13.448 13.896 13.4C14.216 13.4 14.528 13.52 14.832 13.76C15.136 14 15.28 14.304 15.264 14.672C15.248 14.896 15.232 15.128 15.216 15.368C15.216 15.592 15.208 15.816 15.192 16.04C15.176 16.264 15.16 16.48 15.144 16.688C15.144 16.896 15.136 17.088 15.12 17.264C15.056 17.76 14.84 18.088 14.472 18.248C14.12 18.392 13.776 18.456 13.44 18.44C12.816 18.44 12.216 18.448 11.64 18.464C11.08 18.464 10.52 18.472 9.96 18.488C9.416 18.504 8.88 18.528 8.352 18.56C7.824 18.576 7.304 18.592 6.792 18.608L7.248 20.216C8.4 20.232 9.624 20.232 10.92 20.216C12.216 20.2 13.456 20.144 14.64 20.048C14.976 20.016 15.224 20.088 15.384 20.264C15.544 20.44 15.624 20.632 15.624 20.84C15.592 21.208 15.456 21.464 15.216 21.608C14.976 21.752 14.736 21.824 14.496 21.824C13.744 21.824 13.056 21.832 12.432 21.848C11.808 21.864 11.216 21.88 10.656 21.896C10.096 21.912 9.552 21.928 9.024 21.944C8.512 21.96 7.992 21.96 7.464 21.944C6.92 21.944 6.48 21.824 6.144 21.584C5.824 21.36 5.584 20.984 5.424 20.456C5.36 20.28 5.296 20.104 5.232 19.928C5.184 19.752 5.128 19.576 5.064 19.4C5.016 19.24 4.952 19.08 4.872 18.92C4.808 18.744 4.736 18.576 4.656 18.416C4.448 18.064 4.416 17.744 4.56 17.456C4.72 17.152 4.992 17 5.376 17C6.016 17.032 6.696 17.048 7.416 17.048C8.152 17.032 8.872 17.008 9.576 16.976C10.28 16.944 10.952 16.912 11.592 16.88C12.232 16.832 12.792 16.784 13.272 16.736L13.296 15.128C12.736 15.16 12.128 15.192 11.472 15.224C10.832 15.256 10.176 15.28 9.504 15.296C8.848 15.328 8.192 15.36 7.536 15.392C6.896 15.424 6.304 15.448 5.76 15.464C5.536 15.48 5.32 15.448 5.112 15.368C4.904 15.272 4.728 15.152 4.584 15.008C4.44 14.864 4.336 14.712 4.272 14.552C4.224 14.376 4.248 14.2 4.344 14.024ZM21.9656 14.24C22.3496 14.288 22.7816 14.304 23.2616 14.288C23.7576 14.256 24.2696 14.208 24.7976 14.144C25.3096 14.096 25.8056 14.032 26.2856 13.952C26.7816 13.872 27.2136 13.784 27.5816 13.688C27.7576 13.656 27.9256 13.72 28.0856 13.88C28.2456 14.024 28.3336 14.216 28.3496 14.456C28.3496 14.664 28.3016 14.848 28.2056 15.008C28.1096 15.168 27.9896 15.272 27.8456 15.32C27.4776 15.448 27.0216 15.568 26.4776 15.68C25.9336 15.776 25.3656 15.848 24.7736 15.896C24.1656 15.96 23.5736 16 22.9976 16.016C22.4216 16.016 21.9336 15.992 21.5336 15.944C21.1016 15.896 20.7416 15.744 20.4536 15.488C20.1816 15.216 20.0376 14.816 20.0216 14.288C20.0056 14 19.9896 13.528 19.9736 12.872C19.9736 12.216 19.9576 11.528 19.9256 10.808C19.9096 10.088 19.8856 9.416 19.8536 8.792C19.8216 8.168 19.7736 7.744 19.7096 7.52C19.6616 7.376 19.6056 7.232 19.5416 7.088C19.4936 6.928 19.4456 6.768 19.3976 6.608C19.3496 6.448 19.3176 6.304 19.3016 6.176C19.2856 6.032 19.3096 5.896 19.3736 5.768C19.4696 5.592 19.5816 5.456 19.7096 5.36C19.8536 5.264 20.0936 5.216 20.4296 5.216C20.6376 5.232 20.8456 5.248 21.0536 5.264C21.2776 5.264 21.5096 5.256 21.7496 5.24C21.9896 5.224 22.2936 5.208 22.6616 5.192C23.0456 5.16 23.4376 5.128 23.8376 5.096C24.2376 5.064 24.6216 5.032 24.9896 5C25.3736 4.952 25.6856 4.912 25.9256 4.88C26.3416 4.832 26.6696 4.896 26.9096 5.072C27.1656 5.248 27.3016 5.48 27.3176 5.768C27.3176 6.056 27.2136 6.288 27.0056 6.464C26.8136 6.64 26.5016 6.728 26.0696 6.728C25.7976 6.744 25.4696 6.76 25.0856 6.776C24.7176 6.776 24.3256 6.784 23.9096 6.8C23.4936 6.832 23.0776 6.864 22.6616 6.896C22.2456 6.912 21.8696 6.928 21.5336 6.944C21.5816 7.2 21.6216 7.576 21.6536 8.072C21.7016 8.552 21.7496 9.08 21.7976 9.656C21.9576 9.656 22.1416 9.648 22.3496 9.632C22.5576 9.616 22.7736 9.6 22.9976 9.584C23.2376 9.568 23.4856 9.552 23.7416 9.536C23.9976 9.504 24.2536 9.472 24.5096 9.44C24.6216 9.44 24.7336 9.432 24.8456 9.416C24.9736 9.4 25.0936 9.384 25.2056 9.368C25.3336 9.352 25.4536 9.344 25.5656 9.344C25.6776 9.328 25.7976 9.312 25.9256 9.296C26.3416 9.296 26.6696 9.376 26.9096 9.536C27.1656 9.68 27.3016 9.896 27.3176 10.184C27.3176 10.472 27.2136 10.704 27.0056 10.88C26.8136 11.056 26.5016 11.144 26.0696 11.144C25.4936 11.176 24.8216 11.208 24.0536 11.24C23.2856 11.272 22.5656 11.304 21.8936 11.336C21.9096 11.96 21.9256 12.536 21.9416 13.064C21.9576 13.576 21.9656 13.968 21.9656 14.24ZM30.9416 1.208C31.1656 1.016 31.4296 0.96 31.7336 1.04C32.0376 1.12 32.2776 1.256 32.4536 1.448C32.7736 1.816 33.0296 2.232 33.2216 2.696C33.4296 3.144 33.5336 3.608 33.5336 4.088L33.3416 18.848C33.3256 19.088 33.3016 19.36 33.2696 19.664C33.2376 19.952 33.1896 20.224 33.1256 20.48C33.0456 20.752 32.9336 20.976 32.7896 21.152C32.6456 21.344 32.4696 21.448 32.2616 21.464C32.0856 21.496 31.9416 21.432 31.8296 21.272C31.7176 21.112 31.6296 20.92 31.5656 20.696C31.4856 20.472 31.4296 20.24 31.3976 20C31.3816 19.744 31.3736 19.528 31.3736 19.352L31.4216 10.688L30.0536 10.856C29.4616 10.952 29.0136 10.896 28.7096 10.688C28.4216 10.48 28.3016 10.184 28.3496 9.8C28.3656 9.576 28.4536 9.408 28.6136 9.296C28.7736 9.168 28.9416 9.096 29.1176 9.08C29.2296 9.08 29.3416 9.08 29.4536 9.08C29.5816 9.08 29.7096 9.08 29.8376 9.08C29.9496 9.08 30.0616 9.08 30.1736 9.08C30.3016 9.08 30.4296 9.072 30.5576 9.056C30.6216 9.056 30.6856 9.056 30.7496 9.056C30.8296 9.04 30.9096 9.032 30.9896 9.032C31.0696 9.032 31.1416 9.032 31.2056 9.032C31.2856 9.016 31.3656 9 31.4456 8.984L31.4696 4.808C31.4696 4.568 31.4456 4.288 31.3976 3.968C31.3656 3.648 31.2936 3.368 31.1816 3.128C31.1016 2.984 31.0216 2.832 30.9416 2.672C30.8616 2.496 30.7976 2.32 30.7496 2.144C30.7016 1.968 30.6856 1.8 30.7016 1.64C30.7336 1.48 30.8136 1.336 30.9416 1.208ZM48.9244 4.784C48.8284 5.136 48.7244 5.48 48.6124 5.816C48.5004 6.152 48.3724 6.48 48.2284 6.8C48.9804 7.376 49.7164 8.016 50.4364 8.72C51.1724 9.424 51.7484 10.064 52.1644 10.64C52.2604 10.8 52.2684 10.992 52.1884 11.216C52.1084 11.424 51.9964 11.576 51.8524 11.672C51.6604 11.816 51.4684 11.872 51.2764 11.84C51.0844 11.808 50.9164 11.72 50.7724 11.576C50.2764 11.064 49.7244 10.552 49.1164 10.04C48.5244 9.512 47.9004 9.008 47.2444 8.528C46.7164 9.296 46.1324 9.976 45.4924 10.568C44.8524 11.144 44.2284 11.6 43.6204 11.936C43.4284 12.032 43.2284 12.104 43.0204 12.152C42.8284 12.2 42.6124 12.176 42.3724 12.08C42.1324 12.016 41.9884 11.872 41.9404 11.648C41.8924 11.424 41.9964 11.208 42.2524 11C43.3084 10.184 44.2284 9.248 45.0124 8.192C45.8124 7.12 46.3564 6.152 46.6444 5.288C46.7404 4.952 46.8204 4.648 46.8844 4.376C46.9484 4.104 47.0044 3.864 47.0524 3.656C47.1164 3.448 47.1804 3.28 47.2444 3.152C47.3244 3.024 47.4284 2.936 47.5564 2.888C47.7644 2.824 47.9564 2.84 48.1324 2.936C48.3244 3.032 48.4924 3.184 48.6364 3.392C48.7644 3.584 48.8524 3.808 48.9004 4.064C48.9644 4.32 48.9724 4.56 48.9244 4.784ZM54.6604 1.208C54.8844 1.016 55.1484 0.96 55.4524 1.04C55.7564 1.12 55.9964 1.256 56.1724 1.448C56.4924 1.816 56.7484 2.232 56.9404 2.696C57.1484 3.144 57.2524 3.608 57.2524 4.088L57.0604 9.968C57.0444 10.208 57.0204 10.48 56.9884 10.784C56.9564 11.072 56.9084 11.344 56.8444 11.6C56.7644 11.872 56.6524 12.104 56.5084 12.296C56.3644 12.472 56.1884 12.568 55.9804 12.584C55.8044 12.616 55.6604 12.552 55.5484 12.392C55.4364 12.232 55.3484 12.04 55.2844 11.816C55.2044 11.592 55.1484 11.36 55.1164 11.12C55.1004 10.864 55.0924 10.648 55.0924 10.472L55.1404 7.424L52.8124 7.712C52.2204 7.808 51.7724 7.752 51.4684 7.544C51.1804 7.336 51.0604 7.04 51.1084 6.656C51.1244 6.432 51.2124 6.264 51.3724 6.152C51.5324 6.024 51.7004 5.952 51.8764 5.936C51.9884 5.936 52.1004 5.936 52.2124 5.936C52.3404 5.936 52.4684 5.936 52.5964 5.936C52.7084 5.936 52.8204 5.936 52.9324 5.936C53.0604 5.936 53.1884 5.928 53.3164 5.912C53.6364 5.896 53.9484 5.88 54.2524 5.864C54.5564 5.832 54.8604 5.792 55.1644 5.744L55.1884 4.808C55.1884 4.568 55.1644 4.288 55.1164 3.968C55.0844 3.648 55.0124 3.368 54.9004 3.128C54.8204 2.984 54.7404 2.832 54.6604 2.672C54.5804 2.496 54.5164 2.32 54.4684 2.144C54.4204 1.968 54.4044 1.8 54.4204 1.64C54.4524 1.48 54.5324 1.336 54.6604 1.208ZM45.8284 14.024C45.9084 13.88 46.0524 13.8 46.2604 13.784C46.4684 13.752 46.6684 13.736 46.8604 13.736C47.5004 13.736 48.1804 13.728 48.9004 13.712C49.6364 13.68 50.3804 13.648 51.1324 13.616C51.8684 13.6 52.5964 13.576 53.3164 13.544C54.0524 13.496 54.7404 13.448 55.3804 13.4C55.7004 13.4 56.0124 13.52 56.3164 13.76C56.6204 14 56.7644 14.304 56.7484 14.672C56.7324 14.896 56.7164 15.128 56.7004 15.368C56.7004 15.592 56.6924 15.816 56.6764 16.04C56.6604 16.264 56.6444 16.48 56.6284 16.688C56.6284 16.896 56.6204 17.088 56.6044 17.264C56.5404 17.76 56.3244 18.088 55.9564 18.248C55.6044 18.392 55.2604 18.456 54.9244 18.44C54.3004 18.44 53.7004 18.448 53.1244 18.464C52.5644 18.464 52.0044 18.472 51.4444 18.488C50.9004 18.504 50.3644 18.528 49.8364 18.56C49.3084 18.576 48.7884 18.592 48.2764 18.608L48.7324 20.216C49.8844 20.232 51.1084 20.232 52.4044 20.216C53.7004 20.2 54.9404 20.144 56.1244 20.048C56.4604 20.016 56.7084 20.088 56.8684 20.264C57.0284 20.44 57.1084 20.632 57.1084 20.84C57.0764 21.208 56.9404 21.464 56.7004 21.608C56.4604 21.752 56.2204 21.824 55.9804 21.824C55.2284 21.824 54.5404 21.832 53.9164 21.848C53.2924 21.864 52.7004 21.88 52.1404 21.896C51.5804 21.912 51.0364 21.928 50.5084 21.944C49.9964 21.96 49.4764 21.96 48.9484 21.944C48.4044 21.944 47.9644 21.824 47.6284 21.584C47.3084 21.36 47.0684 20.984 46.9084 20.456C46.8444 20.28 46.7804 20.104 46.7164 19.928C46.6684 19.752 46.6124 19.576 46.5484 19.4C46.5004 19.24 46.4364 19.08 46.3564 18.92C46.2924 18.744 46.2204 18.576 46.1404 18.416C45.9324 18.064 45.9004 17.744 46.0444 17.456C46.2044 17.152 46.4764 17 46.8604 17C47.5004 17.032 48.1804 17.048 48.9004 17.048C49.6364 17.032 50.3564 17.008 51.0604 16.976C51.7644 16.944 52.4364 16.912 53.0764 16.88C53.7164 16.832 54.2764 16.784 54.7564 16.736L54.7804 15.128C54.2204 15.16 53.6124 15.192 52.9564 15.224C52.3164 15.256 51.6604 15.28 50.9884 15.296C50.3324 15.328 49.6764 15.36 49.0204 15.392C48.3804 15.424 47.7884 15.448 47.2444 15.464C47.0204 15.48 46.8044 15.448 46.5964 15.368C46.3884 15.272 46.2124 15.152 46.0684 15.008C45.9244 14.864 45.8204 14.712 45.7564 14.552C45.7084 14.376 45.7324 14.2 45.8284 14.024ZM60.33 4.304C60.362 4.208 60.418 4.136 60.498 4.088C60.578 4.04 60.674 4 60.786 3.968C60.898 3.952 61.026 3.944 61.17 3.944C61.33 3.944 61.506 3.928 61.698 3.896C61.986 3.88 62.33 3.856 62.73 3.824C63.13 3.792 63.554 3.76 64.002 3.728C64.466 3.68 64.938 3.632 65.418 3.584C65.898 3.536 66.362 3.472 66.81 3.392C66.97 3.392 67.138 3.4 67.314 3.416C67.506 3.432 67.682 3.488 67.842 3.584C68.034 3.696 68.202 3.856 68.346 4.064C68.49 4.272 68.538 4.472 68.49 4.664C68.314 5.304 68.074 5.928 67.77 6.536C67.482 7.128 67.154 7.688 66.786 8.216C67.394 8.696 67.978 9.2 68.538 9.728C69.114 10.256 69.61 10.76 70.026 11.24C70.122 11.384 70.13 11.568 70.05 11.792C69.97 12.016 69.858 12.184 69.714 12.296C69.522 12.44 69.322 12.512 69.114 12.512C68.906 12.512 68.738 12.44 68.61 12.296C68.098 11.768 67.586 11.312 67.074 10.928C66.562 10.528 66.05 10.144 65.538 9.776C64.962 10.416 64.37 10.976 63.762 11.456C63.154 11.936 62.602 12.296 62.106 12.536C61.914 12.632 61.714 12.704 61.506 12.752C61.314 12.8 61.098 12.776 60.858 12.68C60.618 12.616 60.466 12.472 60.402 12.248C60.354 12.008 60.466 11.792 60.738 11.6C61.282 11.216 61.834 10.784 62.394 10.304C62.97 9.808 63.506 9.28 64.002 8.72C64.498 8.16 64.946 7.576 65.346 6.968C65.746 6.36 66.066 5.736 66.306 5.096C65.922 5.144 65.554 5.192 65.202 5.24C64.85 5.288 64.506 5.328 64.17 5.36C63.818 5.408 63.466 5.456 63.114 5.504C62.778 5.536 62.442 5.568 62.106 5.6C61.85 5.648 61.602 5.64 61.362 5.576C61.122 5.512 60.914 5.416 60.738 5.288C60.562 5.16 60.434 5.008 60.354 4.832C60.274 4.656 60.266 4.48 60.33 4.304ZM72.426 1.208C72.65 1.016 72.914 0.967999 73.218 1.064C73.522 1.144 73.762 1.28 73.938 1.472C74.258 1.84 74.514 2.256 74.706 2.72C74.914 3.168 75.018 3.632 75.018 4.112L74.826 11.168C74.81 11.408 74.786 11.672 74.754 11.96C74.722 12.248 74.674 12.528 74.61 12.8C74.53 13.056 74.418 13.28 74.274 13.472C74.13 13.648 73.954 13.744 73.746 13.76C73.57 13.792 73.426 13.728 73.314 13.568C73.202 13.408 73.114 13.216 73.05 12.992C72.97 12.768 72.914 12.536 72.882 12.296C72.866 12.056 72.858 11.848 72.858 11.672L72.906 8.144L70.578 8.432C69.986 8.528 69.538 8.472 69.234 8.264C68.946 8.056 68.826 7.76 68.874 7.376C68.89 7.152 68.978 6.984 69.138 6.872C69.298 6.744 69.466 6.672 69.642 6.656C69.754 6.656 69.866 6.656 69.978 6.656C70.106 6.656 70.234 6.656 70.362 6.656C70.474 6.656 70.586 6.656 70.698 6.656C70.826 6.656 70.954 6.648 71.082 6.632C71.402 6.616 71.714 6.6 72.018 6.584C72.322 6.552 72.626 6.512 72.93 6.464L72.954 4.808C72.954 4.584 72.93 4.312 72.882 3.992C72.85 3.656 72.778 3.368 72.666 3.128C72.522 2.856 72.378 2.528 72.234 2.144C72.106 1.76 72.17 1.448 72.426 1.208ZM64.914 17.984C64.914 17.344 65.042 16.768 65.298 16.256C65.554 15.744 65.906 15.304 66.354 14.936C66.786 14.568 67.298 14.288 67.89 14.096C68.482 13.904 69.106 13.808 69.762 13.808C70.402 13.808 71.018 13.904 71.61 14.096C72.202 14.288 72.714 14.568 73.146 14.936C73.594 15.288 73.946 15.728 74.202 16.256C74.474 16.768 74.61 17.344 74.61 17.984C74.61 18.64 74.474 19.224 74.202 19.736C73.946 20.248 73.594 20.688 73.146 21.056C72.714 21.408 72.202 21.68 71.61 21.872C71.018 22.064 70.402 22.16 69.762 22.16C69.106 22.176 68.482 22.088 67.89 21.896C67.298 21.704 66.786 21.424 66.354 21.056C65.906 20.688 65.554 20.248 65.298 19.736C65.042 19.224 64.914 18.64 64.914 17.984ZM66.882 17.984C66.882 18.624 67.13 19.192 67.626 19.688C68.138 20.184 68.85 20.424 69.762 20.408C70.658 20.408 71.362 20.168 71.874 19.688C72.386 19.192 72.642 18.624 72.642 17.984C72.642 17.344 72.386 16.784 71.874 16.304C71.362 15.808 70.658 15.56 69.762 15.56C68.85 15.56 68.138 15.8 67.626 16.28C67.13 16.76 66.882 17.328 66.882 17.984Z" fill="#E276A4"/>
</svg>
