<svg width="156" height="23" viewBox="0 0 156 23" fill="none" xmlns="http://www.w3.org/2000/svg">
<path d="M3.528 12.032C3.576 11.792 3.688 11.624 3.864 11.528C4.056 11.416 4.288 11.368 4.56 11.384C4.768 11.416 5.072 11.44 5.472 11.456C5.872 11.456 6.328 11.456 6.84 11.456C6.824 11.168 6.792 10.84 6.744 10.472C6.712 10.088 6.656 9.704 6.576 9.32C6.432 8.808 6.352 8.36 6.336 7.976C6.32 7.592 6.432 7.344 6.672 7.232C7.04 7.072 7.432 7.216 7.848 7.664C8.264 8.112 8.504 8.832 8.568 9.824C8.568 9.968 8.568 10.112 8.568 10.256C8.584 10.384 8.592 10.512 8.592 10.64C8.608 10.784 8.616 10.928 8.616 11.072C8.632 11.2 8.64 11.328 8.64 11.456C8.864 11.456 9.088 11.456 9.312 11.456C9.552 11.44 9.792 11.432 10.032 11.432C10.256 11.416 10.488 11.408 10.728 11.408C10.968 11.392 11.208 11.376 11.448 11.36C11.464 10.784 11.464 10.144 11.448 9.44C11.432 8.736 11.376 8.144 11.28 7.664C11.232 7.488 11.28 7.296 11.424 7.088C11.568 6.864 11.8 6.736 12.12 6.704C12.424 6.688 12.672 6.768 12.864 6.944C13.072 7.12 13.2 7.32 13.248 7.544C13.312 8.152 13.336 8.768 13.32 9.392C13.32 10.016 13.296 10.64 13.248 11.264C13.68 11.248 14.088 11.216 14.472 11.168C14.856 11.12 15.2 11.064 15.504 11C15.68 10.968 15.848 11.032 16.008 11.192C16.168 11.352 16.256 11.552 16.272 11.792C16.272 12 16.224 12.192 16.128 12.368C16.032 12.528 15.912 12.632 15.768 12.68C15.384 12.808 14.68 12.912 13.656 12.992C12.648 13.072 11.56 13.128 10.392 13.16C9.208 13.208 8.064 13.232 6.96 13.232C5.872 13.232 5.056 13.2 4.512 13.136C4.08 13.088 3.792 12.968 3.648 12.776C3.52 12.568 3.48 12.32 3.528 12.032ZM5.736 4.424C6.232 4.408 6.856 4.392 7.608 4.376C8.36 4.344 9.128 4.312 9.912 4.28C10.68 4.248 11.4 4.216 12.072 4.184C12.76 4.152 13.28 4.112 13.632 4.064C13.808 4.048 13.992 4.032 14.184 4.016C14.392 3.984 14.584 3.968 14.76 3.968C15.08 3.968 15.296 4.056 15.408 4.232C15.536 4.408 15.608 4.592 15.624 4.784C15.64 5.12 15.56 5.368 15.384 5.528C15.208 5.672 15.016 5.768 14.808 5.816C14.744 5.832 14.688 5.84 14.64 5.84C14.592 5.824 14.528 5.808 14.448 5.792C14.368 5.792 14.264 5.792 14.136 5.792C14.024 5.776 13.88 5.768 13.704 5.768C13.368 5.8 12.84 5.84 12.12 5.888C11.4 5.92 10.616 5.96 9.768 6.008C8.92 6.056 8.072 6.096 7.224 6.128C6.376 6.144 5.664 6.152 5.088 6.152C4.832 6.152 4.6 6.096 4.392 5.984C4.184 5.872 4.024 5.728 3.912 5.552C3.784 5.376 3.704 5.192 3.672 5C3.64 4.808 3.672 4.632 3.768 4.472C3.848 4.344 3.96 4.272 4.104 4.256C4.264 4.224 4.44 4.224 4.632 4.256C4.808 4.288 4.992 4.328 5.184 4.376C5.376 4.424 5.56 4.44 5.736 4.424ZM2.304 16.4C3.52 16.416 4.752 16.416 6 16.4C7.264 16.384 8.528 16.36 9.792 16.328C11.056 16.28 12.32 16.232 13.584 16.184C14.848 16.136 16.112 16.088 17.376 16.04C17.456 16.04 17.544 16.04 17.64 16.04C17.736 16.024 17.832 16.016 17.928 16.016C18.024 16 18.12 15.992 18.216 15.992C18.312 15.976 18.408 15.968 18.504 15.968C18.824 15.968 19.04 16.056 19.152 16.232C19.28 16.392 19.352 16.568 19.368 16.76C19.384 17.096 19.304 17.344 19.128 17.504C18.952 17.664 18.76 17.76 18.552 17.792C18.488 17.808 18.432 17.816 18.384 17.816C18.336 17.816 18.272 17.808 18.192 17.792C18.112 17.792 18.008 17.784 17.88 17.768C17.768 17.752 17.624 17.744 17.448 17.744C16.056 17.792 14.704 17.84 13.392 17.888C12.096 17.92 10.808 17.952 9.528 17.984C8.248 18.016 6.952 18.048 5.64 18.08C4.344 18.112 3.016 18.136 1.656 18.152C1.4 18.168 1.168 18.12 0.96 18.008C0.752 17.88 0.592 17.728 0.48 17.552C0.352 17.376 0.272 17.192 0.24 17C0.224 16.792 0.264 16.608 0.36 16.448C0.44 16.32 0.552 16.248 0.696 16.232C0.856 16.216 1.024 16.216 1.2 16.232C1.376 16.264 1.56 16.304 1.752 16.352C1.944 16.384 2.128 16.4 2.304 16.4ZM23.9355 14.288C24.7515 14.288 25.5195 14.24 26.2395 14.144C26.9755 14.048 27.8395 13.888 28.8315 13.664C29.0075 13.632 29.1755 13.696 29.3355 13.856C29.4955 14 29.5835 14.192 29.5995 14.432C29.5995 14.64 29.5515 14.824 29.4555 14.984C29.3595 15.144 29.2395 15.248 29.0955 15.296C28.4075 15.536 27.5435 15.728 26.5035 15.872C25.4635 16.016 24.4715 16.056 23.5275 15.992C23.0955 15.976 22.7435 15.84 22.4715 15.584C22.2155 15.312 22.0635 14.896 22.0155 14.336C21.9835 14.048 21.9435 13.728 21.8955 13.376C21.8475 13.008 21.7915 12.656 21.7275 12.32C21.6635 11.968 21.5915 11.648 21.5115 11.36C21.4475 11.072 21.3835 10.84 21.3195 10.664C21.2235 10.488 21.2235 10.272 21.3195 10.016C21.4315 9.76 21.6795 9.632 22.0635 9.632C22.6555 9.632 23.1595 9.624 23.5755 9.608C23.9915 9.576 24.3675 9.544 24.7035 9.512C25.0235 9.48 25.3195 9.448 25.5915 9.416C25.8635 9.368 26.1515 9.32 26.4555 9.272L26.4795 6.536C26.2075 6.552 25.9115 6.576 25.5915 6.608C25.2875 6.64 24.9835 6.672 24.6795 6.704C24.3595 6.736 24.0395 6.768 23.7195 6.8C23.4155 6.816 23.1275 6.832 22.8555 6.848C22.6315 6.864 22.4155 6.832 22.2075 6.752C21.9995 6.656 21.8235 6.528 21.6795 6.368C21.5355 6.224 21.4315 6.064 21.3675 5.888C21.3195 5.712 21.3435 5.536 21.4395 5.36C21.5355 5.216 21.6795 5.136 21.8715 5.12C22.0795 5.088 22.2795 5.072 22.4715 5.072C23.0795 5.072 23.8075 5.04 24.6555 4.976C25.5035 4.912 26.3275 4.84 27.1275 4.76C27.4475 4.744 27.7595 4.864 28.0635 5.12C28.3675 5.36 28.5115 5.664 28.4955 6.032C28.4795 6.256 28.4635 6.552 28.4475 6.92C28.4315 7.272 28.4155 7.64 28.3995 8.024C28.3995 8.392 28.3915 8.752 28.3755 9.104C28.3595 9.44 28.3435 9.696 28.3275 9.872C28.2635 10.352 28.0875 10.664 27.7995 10.808C27.5115 10.936 27.1995 11.008 26.8635 11.024C26.6555 11.04 26.3995 11.064 26.0955 11.096C25.8075 11.112 25.5115 11.128 25.2075 11.144C24.8875 11.16 24.5835 11.184 24.2955 11.216C24.0075 11.232 23.7595 11.24 23.5515 11.24L23.9355 14.288ZM34.3035 1.208C34.5275 1.016 34.7835 0.967999 35.0715 1.064C35.3755 1.144 35.6155 1.28 35.7915 1.472C36.0955 1.84 36.3435 2.256 36.5355 2.72C36.7435 3.168 36.8475 3.632 36.8475 4.112L36.6795 18.872C36.6635 19.112 36.6395 19.376 36.6075 19.664C36.5755 19.952 36.5195 20.232 36.4395 20.504C36.3595 20.76 36.2475 20.976 36.1035 21.152C35.9595 21.344 35.7835 21.448 35.5755 21.464C35.4155 21.496 35.2795 21.432 35.1675 21.272C35.0715 21.112 34.9915 20.92 34.9275 20.696C34.8795 20.472 34.8395 20.24 34.8075 20C34.7915 19.76 34.7835 19.552 34.7835 19.376L34.8555 4.808C34.8555 4.584 34.8315 4.312 34.7835 3.992C34.7355 3.656 34.6555 3.368 34.5435 3.128C34.3835 2.856 34.2395 2.528 34.1115 2.144C33.9835 1.76 34.0475 1.448 34.3035 1.208ZM30.4635 3.368C30.6875 3.176 30.9435 3.12 31.2315 3.2C31.5355 3.28 31.7755 3.416 31.9515 3.608C32.2555 3.976 32.5035 4.392 32.6955 4.856C32.9035 5.304 33.0075 5.768 33.0075 6.248L32.8155 17C32.7995 17.24 32.7755 17.512 32.7435 17.816C32.7275 18.104 32.6795 18.376 32.5995 18.632C32.5195 18.888 32.4075 19.112 32.2635 19.304C32.1355 19.48 31.9675 19.576 31.7595 19.592C31.5995 19.624 31.4635 19.56 31.3515 19.4C31.2395 19.24 31.1515 19.048 31.0875 18.824C31.0235 18.6 30.9755 18.368 30.9435 18.128C30.9275 17.872 30.9195 17.656 30.9195 17.48L30.9675 10.928L30.5595 10.976C29.9835 11.072 29.5435 11.016 29.2395 10.808C28.9515 10.6 28.8315 10.304 28.8795 9.92C28.8955 9.776 28.9835 9.648 29.1435 9.536C29.3035 9.408 29.4715 9.336 29.6475 9.32C29.7595 9.32 29.8635 9.32 29.9595 9.32C30.0715 9.32 30.1835 9.32 30.2955 9.32C30.4075 9.32 30.5195 9.32 30.6315 9.32C30.7435 9.32 30.8635 9.32 30.9915 9.32L31.0155 6.968C31.0155 6.728 30.9915 6.448 30.9435 6.128C30.8955 5.808 30.8155 5.528 30.7035 5.288C30.5595 5 30.4235 4.672 30.2955 4.304C30.1675 3.92 30.2235 3.608 30.4635 3.368ZM46.5444 7.928C46.5444 7.064 46.3444 6.368 45.9444 5.84C45.5444 5.296 44.8964 5.024 44.0004 5.024C43.0884 5.024 42.4404 5.296 42.0564 5.84C41.6724 6.384 41.4804 7.08 41.4804 7.928C41.4804 8.84 41.6964 9.56 42.1284 10.088C42.5604 10.6 43.1844 10.856 44.0004 10.856C44.8484 10.856 45.4804 10.584 45.8964 10.04C46.3284 9.496 46.5444 8.792 46.5444 7.928ZM48.5124 7.928C48.5124 8.52 48.4244 9.104 48.2484 9.68C48.0884 10.24 47.8244 10.744 47.4564 11.192C47.1044 11.624 46.6404 11.976 46.0644 12.248C45.5044 12.52 44.8244 12.656 44.0244 12.656C43.1764 12.656 42.4644 12.528 41.8884 12.272C41.3284 12 40.8644 11.64 40.4964 11.192C40.1444 10.744 39.8884 10.24 39.7284 9.68C39.5844 9.12 39.5124 8.536 39.5124 7.928C39.5124 7.304 39.6084 6.704 39.8004 6.128C39.9924 5.552 40.2724 5.048 40.6404 4.616C41.0244 4.184 41.4964 3.84 42.0564 3.584C42.6164 3.312 43.2724 3.176 44.0244 3.176C44.7604 3.176 45.4084 3.304 45.9684 3.56C46.5444 3.816 47.0164 4.16 47.3844 4.592C47.7524 5.024 48.0324 5.528 48.2244 6.104C48.4164 6.68 48.5124 7.288 48.5124 7.928ZM51.8244 1.208C52.0484 1.016 52.3124 0.967999 52.6164 1.064C52.9204 1.144 53.1604 1.28 53.3364 1.472C53.6564 1.84 53.9124 2.256 54.1044 2.72C54.3124 3.168 54.4164 3.632 54.4164 4.112L54.2244 10.712C54.2084 10.952 54.1844 11.216 54.1524 11.504C54.1204 11.792 54.0724 12.072 54.0084 12.344C53.9284 12.6 53.8164 12.824 53.6724 13.016C53.5284 13.192 53.3524 13.288 53.1444 13.304C52.9684 13.336 52.8244 13.272 52.7124 13.112C52.6004 12.952 52.5124 12.76 52.4484 12.536C52.3684 12.312 52.3124 12.08 52.2804 11.84C52.2644 11.6 52.2564 11.392 52.2564 11.216L52.3524 4.808C52.3524 4.584 52.3284 4.312 52.2804 3.992C52.2484 3.656 52.1764 3.368 52.0644 3.128C51.9204 2.856 51.7764 2.528 51.6324 2.144C51.5044 1.76 51.5684 1.448 51.8244 1.208ZM45.2004 16.28C45.3124 16.856 45.4084 17.488 45.4884 18.176C45.5684 18.864 45.6244 19.544 45.6564 20.216C46.7924 20.264 47.9204 20.28 49.0404 20.264C50.1764 20.248 51.1284 20.2 51.8964 20.12C51.9124 19.784 51.9284 19.44 51.9444 19.088C51.9764 18.736 52.0004 18.384 52.0164 18.032C52.0484 17.68 52.0644 17.336 52.0644 17C52.0804 16.648 52.0884 16.312 52.0884 15.992C51.5444 16.04 50.9764 16.08 50.3844 16.112C49.8084 16.128 49.2244 16.144 48.6324 16.16C48.0404 16.176 47.4484 16.2 46.8564 16.232C46.2804 16.248 45.7284 16.264 45.2004 16.28ZM42.7044 15.104C42.7524 14.896 42.8724 14.76 43.0644 14.696C43.2724 14.632 43.5844 14.608 44.0004 14.624C44.2564 14.64 44.5124 14.648 44.7684 14.648C45.0244 14.648 45.2964 14.64 45.5844 14.624C46.1284 14.608 46.6884 14.592 47.2644 14.576C47.8404 14.544 48.4164 14.52 48.9924 14.504C49.5684 14.488 50.1444 14.472 50.7204 14.456C51.2964 14.424 51.8644 14.384 52.4244 14.336C53.0004 14.288 53.4084 14.392 53.6484 14.648C53.9044 14.904 54.0324 15.2 54.0324 15.536C54.0004 16.256 53.9524 17.096 53.8884 18.056C53.8404 19 53.7924 19.816 53.7444 20.504C53.6964 20.936 53.5764 21.248 53.3844 21.44C53.1924 21.632 52.8004 21.744 52.2084 21.776C51.8244 21.808 51.3444 21.832 50.7684 21.848C50.2084 21.88 49.6244 21.904 49.0164 21.92C48.3924 21.936 47.7764 21.936 47.1684 21.92C46.5764 21.92 46.0564 21.904 45.6084 21.872C44.9684 21.824 44.5044 21.608 44.2164 21.224C43.9444 20.84 43.8004 20.432 43.7844 20C43.7524 19.712 43.7284 19.424 43.7124 19.136C43.6964 18.832 43.6724 18.536 43.6404 18.248C43.5924 17.96 43.5364 17.68 43.4724 17.408C43.4084 17.136 43.3284 16.872 43.2324 16.616C43.1684 16.504 43.0964 16.384 43.0164 16.256C42.9524 16.112 42.8964 15.968 42.8484 15.824C42.7844 15.696 42.7364 15.576 42.7044 15.464C42.6724 15.336 42.6724 15.216 42.7044 15.104ZM65.6072 10.208C65.6072 11.136 65.8392 11.912 66.3032 12.536C66.7832 13.16 67.4872 13.472 68.4152 13.472C69.3272 13.472 70.0232 13.16 70.5032 12.536C70.9832 11.912 71.2232 11.136 71.2232 10.208C71.2232 9.296 70.9832 8.528 70.5032 7.904C70.0232 7.264 69.3272 6.944 68.4152 6.944C67.4872 6.944 66.7832 7.264 66.3032 7.904C65.8392 8.528 65.6072 9.296 65.6072 10.208ZM63.6392 10.208C63.6392 9.488 63.7432 8.816 63.9512 8.192C64.1752 7.568 64.4872 7.032 64.8872 6.584C65.3032 6.12 65.8072 5.76 66.3992 5.504C66.9912 5.232 67.6632 5.096 68.4152 5.096C69.1512 5.096 69.8152 5.232 70.4072 5.504C70.9992 5.76 71.5032 6.12 71.9192 6.584C72.3192 7.048 72.6312 7.592 72.8552 8.216C73.0792 8.824 73.1912 9.488 73.1912 10.208C73.1912 10.944 73.0792 11.624 72.8552 12.248C72.6312 12.872 72.3192 13.408 71.9192 13.856C71.5032 14.32 70.9992 14.68 70.4072 14.936C69.8152 15.192 69.1512 15.32 68.4152 15.32C67.6632 15.32 66.9912 15.192 66.3992 14.936C65.8072 14.68 65.3032 14.32 64.8872 13.856C64.4872 13.408 64.1752 12.872 63.9512 12.248C63.7432 11.624 63.6392 10.944 63.6392 10.208ZM75.5432 1.208C75.7672 1.016 76.0312 0.96 76.3352 1.04C76.6392 1.12 76.8792 1.256 77.0552 1.448C77.3752 1.816 77.6312 2.232 77.8232 2.696C78.0312 3.144 78.1352 3.608 78.1352 4.088L77.9432 18.848C77.9272 19.088 77.9032 19.36 77.8712 19.664C77.8392 19.952 77.7912 20.224 77.7272 20.48C77.6472 20.752 77.5352 20.976 77.3912 21.152C77.2472 21.344 77.0712 21.448 76.8632 21.464C76.6872 21.496 76.5432 21.432 76.4312 21.272C76.3192 21.112 76.2312 20.92 76.1672 20.696C76.0872 20.472 76.0312 20.24 75.9992 20C75.9832 19.744 75.9752 19.528 75.9752 19.352L76.0712 4.808C76.0712 4.568 76.0472 4.288 75.9992 3.968C75.9672 3.648 75.8952 3.368 75.7832 3.128C75.7032 2.984 75.6232 2.832 75.5432 2.672C75.4632 2.496 75.3992 2.32 75.3512 2.144C75.3032 1.968 75.2872 1.8 75.3032 1.64C75.3352 1.48 75.4152 1.336 75.5432 1.208ZM83.8768 7.4C83.9408 7.848 83.9968 8.368 84.0448 8.96C84.0928 9.536 84.1328 10.128 84.1648 10.736C84.1968 11.344 84.2208 11.936 84.2368 12.512C84.2688 13.088 84.3008 13.584 84.3328 14C84.8768 13.968 85.4928 13.92 86.1808 13.856C86.8848 13.776 87.5568 13.672 88.1968 13.544C88.2128 13.096 88.2288 12.592 88.2448 12.032C88.2768 11.472 88.3008 10.896 88.3168 10.304C88.3328 9.712 88.3408 9.136 88.3408 8.576C88.3568 8 88.3728 7.472 88.3888 6.992C88.0208 7.04 87.6528 7.08 87.2848 7.112C86.9168 7.144 86.5408 7.184 86.1568 7.232C85.7888 7.264 85.4128 7.296 85.0288 7.328C84.6448 7.36 84.2608 7.384 83.8768 7.4ZM81.6208 6.176C81.6688 6 81.7888 5.88 81.9808 5.816C82.1728 5.736 82.4048 5.696 82.6768 5.696C82.8048 5.712 82.9328 5.72 83.0608 5.72C83.1888 5.72 83.3248 5.72 83.4688 5.72C83.5968 5.72 83.7248 5.72 83.8528 5.72C83.9808 5.704 84.1168 5.696 84.2608 5.696C84.5648 5.696 84.8768 5.688 85.1968 5.672C85.5328 5.64 85.8848 5.608 86.2528 5.576C86.6048 5.528 86.9888 5.48 87.4048 5.432C87.8208 5.384 88.2688 5.336 88.7488 5.288C89.3088 5.24 89.7088 5.344 89.9488 5.6C90.2048 5.856 90.3328 6.152 90.3328 6.488C90.3168 7.64 90.2768 8.792 90.2128 9.944C90.1648 11.08 90.1088 12.224 90.0448 13.376C89.9968 13.936 89.8928 14.352 89.7328 14.624C89.5728 14.88 89.3168 15.048 88.9648 15.128C88.2768 15.288 87.5408 15.424 86.7568 15.536C85.9728 15.648 85.1488 15.704 84.2848 15.704C83.6608 15.72 83.2048 15.6 82.9168 15.344C82.6288 15.088 82.4768 14.744 82.4608 14.312C82.4448 14.024 82.4208 13.568 82.3888 12.944C82.3728 12.32 82.3488 11.656 82.3168 10.952C82.2848 10.264 82.2288 9.616 82.1488 9.008C82.0848 8.384 82.0048 7.944 81.9088 7.688C81.7968 7.448 81.7008 7.192 81.6208 6.92C81.5408 6.632 81.5408 6.384 81.6208 6.176ZM93.3088 1.208C93.5328 1.016 93.7968 0.96 94.1008 1.04C94.4048 1.12 94.6448 1.256 94.8208 1.448C95.1408 1.816 95.3968 2.232 95.5888 2.696C95.7968 3.144 95.9008 3.608 95.9008 4.088L95.7088 18.848C95.6928 19.088 95.6688 19.36 95.6368 19.664C95.6048 19.952 95.5568 20.224 95.4928 20.48C95.4128 20.752 95.3008 20.976 95.1568 21.152C95.0128 21.344 94.8368 21.448 94.6288 21.464C94.4528 21.496 94.3088 21.432 94.1968 21.272C94.0848 21.112 93.9968 20.92 93.9328 20.696C93.8528 20.472 93.7968 20.24 93.7648 20C93.7488 19.744 93.7408 19.528 93.7408 19.352L93.8368 4.808C93.8368 4.568 93.8128 4.288 93.7648 3.968C93.7328 3.648 93.6608 3.368 93.5488 3.128C93.4688 2.984 93.3888 2.832 93.3088 2.672C93.2288 2.496 93.1648 2.32 93.1168 2.144C93.0688 1.968 93.0528 1.8 93.0688 1.64C93.1008 1.48 93.1808 1.336 93.3088 1.208ZM99.2184 6.104C99.2504 6.008 99.3064 5.936 99.3864 5.888C99.4664 5.84 99.5624 5.8 99.6744 5.768C99.7864 5.752 99.9144 5.744 100.058 5.744C100.218 5.744 100.394 5.728 100.586 5.696C100.874 5.68 101.218 5.656 101.618 5.624C102.018 5.592 102.442 5.56 102.89 5.528C103.354 5.48 103.826 5.432 104.306 5.384C104.786 5.336 105.25 5.272 105.698 5.192C105.858 5.192 106.026 5.2 106.202 5.216C106.394 5.232 106.57 5.288 106.73 5.384C106.922 5.496 107.082 5.656 107.21 5.864C107.354 6.072 107.41 6.272 107.378 6.464C107.186 7.248 106.914 8.032 106.562 8.816C106.226 9.6 105.842 10.352 105.41 11.072C106.066 11.632 106.706 12.208 107.33 12.8C107.954 13.392 108.482 13.952 108.914 14.48C109.01 14.624 109.018 14.808 108.938 15.032C108.858 15.256 108.746 15.424 108.602 15.536C108.41 15.68 108.21 15.752 108.002 15.752C107.794 15.752 107.626 15.68 107.498 15.536C106.97 15.008 106.434 14.504 105.89 14.024C105.346 13.544 104.81 13.104 104.282 12.704C103.722 13.44 103.154 14.08 102.578 14.624C102.002 15.152 101.474 15.536 100.994 15.776C100.802 15.872 100.602 15.944 100.394 15.992C100.202 16.04 99.9864 16.016 99.7464 15.92C99.5064 15.856 99.3544 15.712 99.2904 15.488C99.2424 15.264 99.3544 15.048 99.6264 14.84C100.874 13.864 101.97 12.728 102.914 11.432C103.858 10.136 104.618 8.624 105.194 6.896C104.81 6.944 104.442 6.992 104.09 7.04C103.738 7.088 103.394 7.128 103.058 7.16C102.706 7.208 102.354 7.256 102.002 7.304C101.666 7.336 101.33 7.368 100.994 7.4C100.738 7.448 100.49 7.44 100.25 7.376C100.01 7.312 99.8024 7.216 99.6264 7.088C99.4504 6.96 99.3224 6.808 99.2424 6.632C99.1624 6.456 99.1544 6.28 99.2184 6.104ZM111.074 1.208C111.298 1.016 111.562 0.96 111.866 1.04C112.17 1.12 112.41 1.256 112.586 1.448C112.906 1.816 113.162 2.232 113.354 2.696C113.562 3.144 113.666 3.608 113.666 4.088L113.474 18.848C113.458 19.088 113.434 19.36 113.402 19.664C113.37 19.952 113.322 20.224 113.258 20.48C113.178 20.752 113.066 20.976 112.922 21.152C112.778 21.344 112.602 21.448 112.394 21.464C112.218 21.496 112.074 21.432 111.962 21.272C111.85 21.112 111.762 20.92 111.698 20.696C111.618 20.472 111.562 20.24 111.53 20C111.514 19.744 111.506 19.528 111.506 19.352L111.602 4.808C111.602 4.568 111.578 4.288 111.53 3.968C111.498 3.648 111.426 3.368 111.314 3.128C111.234 2.984 111.154 2.832 111.074 2.672C110.994 2.496 110.93 2.32 110.882 2.144C110.834 1.968 110.818 1.8 110.834 1.64C110.866 1.48 110.946 1.336 111.074 1.208ZM129.057 4.784C128.961 5.136 128.857 5.48 128.745 5.816C128.633 6.152 128.505 6.48 128.361 6.8C129.113 7.376 129.849 8.016 130.569 8.72C131.305 9.424 131.881 10.064 132.297 10.64C132.393 10.8 132.401 10.992 132.321 11.216C132.241 11.424 132.129 11.576 131.985 11.672C131.793 11.816 131.601 11.872 131.409 11.84C131.217 11.808 131.049 11.72 130.905 11.576C130.409 11.064 129.857 10.552 129.249 10.04C128.657 9.512 128.033 9.008 127.377 8.528C126.849 9.296 126.265 9.976 125.625 10.568C124.985 11.144 124.361 11.6 123.753 11.936C123.561 12.032 123.361 12.104 123.153 12.152C122.961 12.2 122.745 12.176 122.505 12.08C122.265 12.016 122.121 11.872 122.073 11.648C122.025 11.424 122.129 11.208 122.385 11C123.441 10.184 124.361 9.248 125.145 8.192C125.945 7.12 126.489 6.152 126.777 5.288C126.873 4.952 126.953 4.648 127.017 4.376C127.081 4.104 127.137 3.864 127.185 3.656C127.249 3.448 127.313 3.28 127.377 3.152C127.457 3.024 127.561 2.936 127.689 2.888C127.897 2.824 128.089 2.84 128.265 2.936C128.457 3.032 128.625 3.184 128.769 3.392C128.897 3.584 128.985 3.808 129.033 4.064C129.097 4.32 129.105 4.56 129.057 4.784ZM134.793 1.208C135.017 1.016 135.281 0.96 135.585 1.04C135.889 1.12 136.129 1.256 136.305 1.448C136.625 1.816 136.881 2.232 137.073 2.696C137.281 3.144 137.385 3.608 137.385 4.088L137.193 9.968C137.177 10.208 137.153 10.48 137.121 10.784C137.089 11.072 137.041 11.344 136.977 11.6C136.897 11.872 136.785 12.104 136.641 12.296C136.497 12.472 136.321 12.568 136.113 12.584C135.937 12.616 135.793 12.552 135.681 12.392C135.569 12.232 135.481 12.04 135.417 11.816C135.337 11.592 135.281 11.36 135.249 11.12C135.233 10.864 135.225 10.648 135.225 10.472L135.273 7.424L132.945 7.712C132.353 7.808 131.905 7.752 131.601 7.544C131.313 7.336 131.193 7.04 131.241 6.656C131.257 6.432 131.345 6.264 131.505 6.152C131.665 6.024 131.833 5.952 132.009 5.936C132.121 5.936 132.233 5.936 132.345 5.936C132.473 5.936 132.601 5.936 132.729 5.936C132.841 5.936 132.953 5.936 133.065 5.936C133.193 5.936 133.321 5.928 133.449 5.912C133.769 5.896 134.081 5.88 134.385 5.864C134.689 5.832 134.993 5.792 135.297 5.744L135.321 4.808C135.321 4.568 135.297 4.288 135.249 3.968C135.217 3.648 135.145 3.368 135.033 3.128C134.953 2.984 134.873 2.832 134.793 2.672C134.713 2.496 134.649 2.32 134.601 2.144C134.553 1.968 134.537 1.8 134.553 1.64C134.585 1.48 134.665 1.336 134.793 1.208ZM125.961 14.024C126.041 13.88 126.185 13.8 126.393 13.784C126.601 13.752 126.801 13.736 126.993 13.736C127.633 13.736 128.313 13.728 129.033 13.712C129.769 13.68 130.513 13.648 131.265 13.616C132.001 13.6 132.729 13.576 133.449 13.544C134.185 13.496 134.873 13.448 135.513 13.4C135.833 13.4 136.145 13.52 136.449 13.76C136.753 14 136.897 14.304 136.881 14.672C136.865 14.896 136.849 15.128 136.833 15.368C136.833 15.592 136.825 15.816 136.809 16.04C136.793 16.264 136.777 16.48 136.761 16.688C136.761 16.896 136.753 17.088 136.737 17.264C136.673 17.76 136.457 18.088 136.089 18.248C135.737 18.392 135.393 18.456 135.057 18.44C134.433 18.44 133.833 18.448 133.257 18.464C132.697 18.464 132.137 18.472 131.577 18.488C131.033 18.504 130.497 18.528 129.969 18.56C129.441 18.576 128.921 18.592 128.409 18.608L128.865 20.216C130.017 20.232 131.241 20.232 132.537 20.216C133.833 20.2 135.073 20.144 136.257 20.048C136.593 20.016 136.841 20.088 137.001 20.264C137.161 20.44 137.241 20.632 137.241 20.84C137.209 21.208 137.073 21.464 136.833 21.608C136.593 21.752 136.353 21.824 136.113 21.824C135.361 21.824 134.673 21.832 134.049 21.848C133.425 21.864 132.833 21.88 132.273 21.896C131.713 21.912 131.169 21.928 130.641 21.944C130.129 21.96 129.609 21.96 129.081 21.944C128.537 21.944 128.097 21.824 127.761 21.584C127.441 21.36 127.201 20.984 127.041 20.456C126.977 20.28 126.913 20.104 126.849 19.928C126.801 19.752 126.745 19.576 126.681 19.4C126.633 19.24 126.569 19.08 126.489 18.92C126.425 18.744 126.353 18.576 126.273 18.416C126.065 18.064 126.033 17.744 126.177 17.456C126.337 17.152 126.609 17 126.993 17C127.633 17.032 128.313 17.048 129.033 17.048C129.769 17.032 130.489 17.008 131.193 16.976C131.897 16.944 132.569 16.912 133.209 16.88C133.849 16.832 134.409 16.784 134.889 16.736L134.913 15.128C134.353 15.16 133.745 15.192 133.089 15.224C132.449 15.256 131.793 15.28 131.121 15.296C130.465 15.328 129.809 15.36 129.153 15.392C128.513 15.424 127.921 15.448 127.377 15.464C127.153 15.48 126.937 15.448 126.729 15.368C126.521 15.272 126.345 15.152 126.201 15.008C126.057 14.864 125.953 14.712 125.889 14.552C125.841 14.376 125.865 14.2 125.961 14.024ZM140.463 4.304C140.495 4.208 140.551 4.136 140.631 4.088C140.711 4.04 140.807 4 140.919 3.968C141.031 3.952 141.159 3.944 141.303 3.944C141.463 3.944 141.639 3.928 141.831 3.896C142.119 3.88 142.463 3.856 142.863 3.824C143.263 3.792 143.687 3.76 144.135 3.728C144.599 3.68 145.071 3.632 145.551 3.584C146.031 3.536 146.495 3.472 146.943 3.392C147.103 3.392 147.271 3.4 147.447 3.416C147.639 3.432 147.815 3.488 147.975 3.584C148.167 3.696 148.335 3.856 148.479 4.064C148.623 4.272 148.671 4.472 148.623 4.664C148.447 5.304 148.207 5.928 147.903 6.536C147.615 7.128 147.287 7.688 146.919 8.216C147.527 8.696 148.111 9.2 148.671 9.728C149.247 10.256 149.743 10.76 150.159 11.24C150.255 11.384 150.263 11.568 150.183 11.792C150.103 12.016 149.991 12.184 149.847 12.296C149.655 12.44 149.455 12.512 149.247 12.512C149.039 12.512 148.871 12.44 148.743 12.296C148.231 11.768 147.719 11.312 147.207 10.928C146.695 10.528 146.183 10.144 145.671 9.776C145.095 10.416 144.503 10.976 143.895 11.456C143.287 11.936 142.735 12.296 142.239 12.536C142.047 12.632 141.847 12.704 141.639 12.752C141.447 12.8 141.231 12.776 140.991 12.68C140.751 12.616 140.599 12.472 140.535 12.248C140.487 12.008 140.599 11.792 140.871 11.6C141.415 11.216 141.967 10.784 142.527 10.304C143.103 9.808 143.639 9.28 144.135 8.72C144.631 8.16 145.079 7.576 145.479 6.968C145.879 6.36 146.199 5.736 146.439 5.096C146.055 5.144 145.687 5.192 145.335 5.24C144.983 5.288 144.639 5.328 144.303 5.36C143.951 5.408 143.599 5.456 143.247 5.504C142.911 5.536 142.575 5.568 142.239 5.6C141.983 5.648 141.735 5.64 141.495 5.576C141.255 5.512 141.047 5.416 140.871 5.288C140.695 5.16 140.567 5.008 140.487 4.832C140.407 4.656 140.399 4.48 140.463 4.304ZM152.559 1.208C152.783 1.016 153.047 0.967999 153.351 1.064C153.655 1.144 153.895 1.28 154.071 1.472C154.391 1.84 154.647 2.256 154.839 2.72C155.047 3.168 155.151 3.632 155.151 4.112L154.959 11.168C154.943 11.408 154.919 11.672 154.887 11.96C154.855 12.248 154.807 12.528 154.743 12.8C154.663 13.056 154.551 13.28 154.407 13.472C154.263 13.648 154.087 13.744 153.879 13.76C153.703 13.792 153.559 13.728 153.447 13.568C153.335 13.408 153.247 13.216 153.183 12.992C153.103 12.768 153.047 12.536 153.015 12.296C152.999 12.056 152.991 11.848 152.991 11.672L153.039 8.144L150.711 8.432C150.119 8.528 149.671 8.472 149.367 8.264C149.079 8.056 148.959 7.76 149.007 7.376C149.023 7.152 149.111 6.984 149.271 6.872C149.431 6.744 149.599 6.672 149.775 6.656C149.887 6.656 149.999 6.656 150.111 6.656C150.239 6.656 150.367 6.656 150.495 6.656C150.607 6.656 150.719 6.656 150.831 6.656C150.959 6.656 151.087 6.648 151.215 6.632C151.535 6.616 151.847 6.6 152.151 6.584C152.455 6.552 152.759 6.512 153.063 6.464L153.087 4.808C153.087 4.584 153.063 4.312 153.015 3.992C152.983 3.656 152.911 3.368 152.799 3.128C152.655 2.856 152.511 2.528 152.367 2.144C152.239 1.76 152.303 1.448 152.559 1.208ZM145.047 17.984C145.047 17.344 145.175 16.768 145.431 16.256C145.687 15.744 146.039 15.304 146.487 14.936C146.919 14.568 147.431 14.288 148.023 14.096C148.615 13.904 149.239 13.808 149.895 13.808C150.535 13.808 151.151 13.904 151.743 14.096C152.335 14.288 152.847 14.568 153.279 14.936C153.727 15.288 154.079 15.728 154.335 16.256C154.607 16.768 154.743 17.344 154.743 17.984C154.743 18.64 154.607 19.224 154.335 19.736C154.079 20.248 153.727 20.688 153.279 21.056C152.847 21.408 152.335 21.68 151.743 21.872C151.151 22.064 150.535 22.16 149.895 22.16C149.239 22.176 148.615 22.088 148.023 21.896C147.431 21.704 146.919 21.424 146.487 21.056C146.039 20.688 145.687 20.248 145.431 19.736C145.175 19.224 145.047 18.64 145.047 17.984ZM147.015 17.984C147.015 18.624 147.263 19.192 147.759 19.688C148.271 20.184 148.983 20.424 149.895 20.408C150.791 20.408 151.495 20.168 152.007 19.688C152.519 19.192 152.775 18.624 152.775 17.984C152.775 17.344 152.519 16.784 152.007 16.304C151.495 15.808 150.791 15.56 149.895 15.56C148.983 15.56 148.271 15.8 147.759 16.28C147.263 16.76 147.015 17.328 147.015 17.984Z" fill="#E276A4"/>
</svg>
