<svg width="82" height="22" viewBox="0 0 82 22" fill="none" xmlns="http://www.w3.org/2000/svg">
<path d="M6.648 4.784C6.744 5.296 6.84 5.92 6.936 6.656C7.032 7.392 7.096 8.024 7.128 8.552C8.248 8.6 9.336 8.616 10.392 8.6C11.448 8.584 12.368 8.536 13.152 8.456C13.168 8.184 13.184 7.864 13.2 7.496C13.216 7.128 13.232 6.752 13.248 6.368C13.264 6 13.272 5.64 13.272 5.288C13.288 4.936 13.304 4.632 13.32 4.376C12.776 4.424 12.216 4.472 11.64 4.52C11.08 4.552 10.52 4.584 9.96 4.616C9.4 4.648 8.84 4.68 8.28 4.712C7.72 4.744 7.176 4.768 6.648 4.784ZM4.152 3.608C4.2 3.4 4.32 3.264 4.512 3.2C4.72 3.136 5.032 3.112 5.448 3.128C5.704 3.144 5.96 3.152 6.216 3.152C6.488 3.152 6.76 3.144 7.032 3.128C8.136 3.08 9.24 3.024 10.344 2.96C11.448 2.896 12.56 2.816 13.68 2.72C14.24 2.672 14.64 2.776 14.88 3.032C15.136 3.288 15.264 3.584 15.264 3.92C15.232 4.688 15.184 5.544 15.12 6.488C15.072 7.432 15.024 8.216 14.976 8.84C14.928 9.272 14.808 9.584 14.616 9.776C14.424 9.968 14.04 10.08 13.464 10.112C13.08 10.144 12.616 10.176 12.072 10.208C11.528 10.224 10.96 10.24 10.368 10.256C9.776 10.272 9.184 10.28 8.592 10.28C8.016 10.264 7.504 10.24 7.056 10.208C6.432 10.16 5.976 9.944 5.688 9.56C5.4 9.176 5.248 8.768 5.232 8.336C5.2 7.76 5.136 7.168 5.04 6.56C4.944 5.936 4.824 5.456 4.68 5.12C4.616 5.008 4.544 4.888 4.464 4.76C4.4 4.616 4.336 4.472 4.272 4.328C4.224 4.2 4.184 4.08 4.152 3.968C4.12 3.84 4.12 3.72 4.152 3.608ZM2.304 12.488C4.752 12.52 7.248 12.496 9.792 12.416C12.336 12.336 14.864 12.248 17.376 12.152C17.456 12.152 17.544 12.152 17.64 12.152C17.736 12.136 17.832 12.128 17.928 12.128C18.024 12.112 18.12 12.104 18.216 12.104C18.312 12.088 18.408 12.08 18.504 12.08C18.824 12.08 19.04 12.16 19.152 12.32C19.28 12.48 19.352 12.656 19.368 12.848C19.384 13.184 19.304 13.432 19.128 13.592C18.952 13.752 18.76 13.848 18.552 13.88C18.488 13.896 18.432 13.904 18.384 13.904C18.336 13.904 18.272 13.896 18.192 13.88C18.112 13.88 18.008 13.88 17.88 13.88C17.768 13.864 17.624 13.856 17.448 13.856C16.424 13.888 15.416 13.92 14.424 13.952C13.448 13.968 12.488 13.984 11.544 14V15.752C11.544 16.616 11.44 17.24 11.232 17.624C11.04 17.992 10.8 18.184 10.512 18.2C10.176 18.232 9.928 18.08 9.768 17.744C9.624 17.392 9.552 16.952 9.552 16.424L9.504 14.072C8.848 14.088 8.2 14.104 7.56 14.12C6.92 14.136 6.28 14.152 5.64 14.168C4.984 14.184 4.32 14.2 3.648 14.216C2.992 14.232 2.328 14.24 1.656 14.24C1.4 14.256 1.168 14.208 0.96 14.096C0.752 13.968 0.592 13.816 0.48 13.64C0.352 13.464 0.272 13.28 0.24 13.088C0.224 12.896 0.264 12.72 0.36 12.56C0.44 12.432 0.552 12.36 0.696 12.344C0.856 12.312 1.024 12.312 1.2 12.344C1.376 12.36 1.56 12.392 1.752 12.44C1.944 12.472 2.128 12.488 2.304 12.488ZM4.896 15.464C5.168 15.368 5.416 15.36 5.64 15.44C5.864 15.504 6.032 15.64 6.144 15.848C6.384 16.376 6.584 17.016 6.744 17.768C6.904 18.52 7.024 19.24 7.104 19.928C7.632 20.024 8.232 20.088 8.904 20.12C9.592 20.168 10.304 20.184 11.04 20.168C11.76 20.168 12.488 20.144 13.224 20.096C13.96 20.064 14.656 20.016 15.312 19.952C15.504 19.952 15.656 20.032 15.768 20.192C15.896 20.352 15.968 20.552 15.984 20.792C15.984 21.016 15.92 21.208 15.792 21.368C15.68 21.528 15.536 21.616 15.36 21.632C14.816 21.728 14.16 21.8 13.392 21.848C12.64 21.896 11.856 21.928 11.04 21.944C10.224 21.944 9.424 21.92 8.64 21.872C7.872 21.84 7.216 21.76 6.672 21.632C6.24 21.552 5.888 21.4 5.616 21.176C5.36 20.952 5.208 20.624 5.16 20.192C5.064 19.568 4.96 18.936 4.848 18.296C4.736 17.64 4.568 17.056 4.344 16.544C4.264 16.4 4.264 16.216 4.344 15.992C4.424 15.752 4.608 15.576 4.896 15.464ZM24.2235 4.04C24.2555 3.928 24.3355 3.848 24.4635 3.8C24.6075 3.752 24.7675 3.72 24.9435 3.704C25.1195 3.688 25.3035 3.688 25.4955 3.704C25.6875 3.704 25.8555 3.704 25.9995 3.704C27.2955 3.672 28.5035 3.632 29.6235 3.584C30.7595 3.536 31.9275 3.48 33.1275 3.416C33.6875 3.384 34.1595 3.456 34.5435 3.632C34.9435 3.808 35.1355 4.192 35.1195 4.784C35.1035 5.104 35.0875 5.432 35.0715 5.768C35.0555 6.088 35.0315 6.432 34.9995 6.8C34.9835 7.168 34.9515 7.56 34.9035 7.976C34.8555 8.376 34.7995 8.816 34.7355 9.296C34.6875 9.552 34.6315 9.824 34.5675 10.112C34.5195 10.384 34.4395 10.64 34.3275 10.88C34.2155 11.104 34.0795 11.288 33.9195 11.432C33.7755 11.56 33.5915 11.608 33.3675 11.576C33.1275 11.544 32.9675 11.368 32.8875 11.048C32.8075 10.712 32.8075 10.136 32.8875 9.32C32.9195 8.872 32.9435 8.456 32.9595 8.072C32.9915 7.688 33.0155 7.32 33.0315 6.968C33.0475 6.632 33.0555 6.312 33.0555 6.008C33.0715 5.688 33.0875 5.384 33.1035 5.096C32.4795 5.128 31.8635 5.16 31.2555 5.192C30.6475 5.224 30.0315 5.256 29.4075 5.288C28.7995 5.336 28.1835 5.376 27.5595 5.408C26.9515 5.44 26.3355 5.464 25.7115 5.48C25.5355 5.496 25.3435 5.472 25.1355 5.408C24.9275 5.328 24.7435 5.216 24.5835 5.072C24.4235 4.944 24.3035 4.792 24.2235 4.616C24.1435 4.424 24.1435 4.232 24.2235 4.04ZM21.9915 12.584C23.2075 12.6 24.4395 12.6 25.6875 12.584C26.9515 12.568 28.2155 12.544 29.4795 12.512C30.7435 12.48 32.0075 12.44 33.2715 12.392C34.5355 12.344 35.7995 12.296 37.0635 12.248C37.1435 12.248 37.2315 12.248 37.3275 12.248C37.4235 12.232 37.5195 12.216 37.6155 12.2C37.7115 12.184 37.8075 12.176 37.9035 12.176C37.9995 12.16 38.0955 12.152 38.1915 12.152C38.5115 12.152 38.7275 12.24 38.8395 12.416C38.9675 12.576 39.0395 12.752 39.0555 12.944C39.0715 13.28 38.9915 13.528 38.8155 13.688C38.6395 13.848 38.4475 13.944 38.2395 13.976C38.1755 13.992 38.1195 14 38.0715 14C38.0235 14 37.9595 13.992 37.8795 13.976C37.7995 13.976 37.6955 13.976 37.5675 13.976C37.4555 13.96 37.3115 13.952 37.1355 13.952C36.5755 13.984 36.0315 14.008 35.5035 14.024C34.9755 14.04 34.4475 14.048 33.9195 14.048C33.4075 14.064 32.8875 14.08 32.3595 14.096C31.8475 14.112 31.3435 14.12 30.8475 14.12V19.232C30.8475 20.096 30.7435 20.712 30.5355 21.08C30.3435 21.464 30.1035 21.664 29.8155 21.68C29.4795 21.712 29.2315 21.552 29.0715 21.2C28.9275 20.864 28.8555 20.432 28.8555 19.904L28.7835 14.168C27.5675 14.216 26.3435 14.256 25.1115 14.288C23.8955 14.304 22.6395 14.32 21.3435 14.336C21.0875 14.352 20.8555 14.304 20.6475 14.192C20.4395 14.064 20.2795 13.912 20.1675 13.736C20.0395 13.56 19.9595 13.376 19.9275 13.184C19.9115 12.992 19.9515 12.816 20.0475 12.656C20.1275 12.528 20.2395 12.456 20.3835 12.44C20.5435 12.408 20.7115 12.4 20.8875 12.416C21.0635 12.448 21.2475 12.488 21.4395 12.536C21.6315 12.568 21.8155 12.584 21.9915 12.584ZM52.5281 5.504C52.5281 6.224 52.8001 6.76 53.3441 7.112C53.9041 7.448 54.5761 7.616 55.3601 7.616C56.1281 7.616 56.7921 7.448 57.3521 7.112C57.9121 6.76 58.1921 6.224 58.1921 5.504C58.1921 4.784 57.9121 4.256 57.3521 3.92C56.7921 3.568 56.1281 3.392 55.3601 3.392C54.5761 3.392 53.9041 3.568 53.3441 3.92C52.8001 4.256 52.5281 4.784 52.5281 5.504ZM50.5601 5.504C50.5601 4.88 50.6881 4.336 50.9441 3.872C51.2001 3.392 51.5521 2.992 52.0001 2.672C52.4321 2.368 52.9361 2.136 53.5121 1.976C54.1041 1.8 54.7201 1.712 55.3601 1.712C55.9841 1.712 56.5841 1.8 57.1601 1.976C57.7521 2.136 58.2641 2.368 58.6961 2.672C59.1441 2.992 59.4961 3.392 59.7521 3.872C60.0241 4.336 60.1601 4.88 60.1601 5.504C60.1601 6.576 59.7921 7.432 59.0561 8.072C58.3361 8.696 57.4561 9.08 56.4161 9.224L56.3921 10.712C56.9041 10.696 57.4241 10.68 57.9521 10.664C58.4801 10.648 59.0081 10.632 59.5361 10.616C60.0641 10.6 60.5921 10.584 61.1201 10.568C61.6481 10.536 62.1761 10.504 62.7041 10.472C62.7841 10.472 62.8721 10.472 62.9681 10.472C63.0641 10.456 63.1601 10.448 63.2561 10.448C63.3521 10.432 63.4481 10.424 63.5441 10.424C63.6401 10.408 63.7361 10.4 63.8321 10.4C64.1521 10.4 64.3681 10.488 64.4801 10.664C64.6081 10.824 64.6801 11 64.6961 11.192C64.7121 11.528 64.6321 11.776 64.4561 11.936C64.2801 12.08 64.0881 12.168 63.8801 12.2C63.8161 12.216 63.7601 12.224 63.7121 12.224C63.6641 12.224 63.6001 12.216 63.5201 12.2C63.4401 12.2 63.3361 12.192 63.2081 12.176C63.0961 12.16 62.9521 12.152 62.7761 12.152C61.3841 12.2 60.0321 12.248 58.7201 12.296C57.4241 12.328 56.1361 12.36 54.8561 12.392C53.5761 12.424 52.2801 12.456 50.9681 12.488C49.6721 12.52 48.3441 12.544 46.9841 12.56C46.7281 12.576 46.4961 12.528 46.2881 12.416C46.0801 12.288 45.9201 12.144 45.8081 11.984C45.6801 11.808 45.6001 11.624 45.5681 11.432C45.5521 11.224 45.5921 11.04 45.6881 10.88C45.7681 10.752 45.8801 10.68 46.0241 10.664C46.1841 10.648 46.3521 10.648 46.5281 10.664C46.7041 10.696 46.8881 10.736 47.0801 10.784C47.2721 10.816 47.4561 10.832 47.6321 10.832C48.7361 10.848 49.8641 10.856 51.0161 10.856C52.1681 10.84 53.3201 10.808 54.4721 10.76L54.4241 9.248C53.3521 9.104 52.4401 8.72 51.6881 8.096C50.9361 7.472 50.5601 6.608 50.5601 5.504ZM50.3201 14.048C50.7201 13.904 51.1121 14.032 51.4961 14.432C51.8961 14.832 52.1521 15.472 52.2641 16.352C53.2721 16.336 54.3121 16.312 55.3841 16.28C56.4721 16.248 57.5441 16.208 58.6001 16.16C58.5841 15.824 58.5601 15.504 58.5281 15.2C58.5121 14.88 58.4801 14.592 58.4321 14.336C58.3841 14.16 58.4481 13.984 58.6241 13.808C58.8161 13.616 59.0401 13.52 59.2961 13.52C59.6801 13.52 59.9521 13.592 60.1121 13.736C60.2881 13.88 60.4001 14.064 60.4481 14.288C60.5281 15.024 60.5601 15.952 60.5441 17.072C60.5281 18.176 60.4801 19.312 60.4001 20.48C60.3521 20.928 60.2401 21.248 60.0641 21.44C59.8881 21.632 59.5281 21.744 58.9841 21.776C57.9121 21.84 56.7841 21.888 55.6001 21.92C54.4321 21.952 53.2961 21.944 52.1921 21.896C51.8081 21.896 51.4081 21.768 50.9921 21.512C50.5921 21.272 50.3921 20.792 50.3921 20.072C50.3761 19.768 50.3681 19.448 50.3681 19.112C50.3841 18.76 50.3921 18.408 50.3921 18.056C50.3921 17.704 50.3761 17.368 50.3441 17.048C50.3281 16.712 50.2881 16.408 50.2241 16.136C50.1441 15.88 50.0801 15.64 50.0321 15.416C49.9841 15.192 49.9521 14.984 49.9361 14.792C49.9201 14.616 49.9361 14.464 49.9841 14.336C50.0481 14.208 50.1601 14.112 50.3201 14.048ZM52.3361 17.984C52.3361 18.176 52.3361 18.368 52.3361 18.56C52.3361 18.752 52.3441 18.936 52.3601 19.112C52.3601 19.304 52.3601 19.496 52.3601 19.688C52.3601 19.864 52.3681 20.04 52.3841 20.216C53.4081 20.296 54.4481 20.32 55.5041 20.288C56.5761 20.272 57.5921 20.216 58.5521 20.12C58.5521 19.976 58.5521 19.816 58.5521 19.64C58.5521 19.448 58.5521 19.256 58.5521 19.064C58.5521 18.872 58.5521 18.68 58.5521 18.488C58.5681 18.28 58.5841 18.064 58.6001 17.84C57.6401 17.84 56.6161 17.856 55.5281 17.888C54.4561 17.904 53.3921 17.936 52.3361 17.984ZM72.4556 5.504C72.3596 5.936 72.2476 6.36 72.1196 6.776C72.0076 7.176 71.8796 7.56 71.7356 7.928C72.4396 8.568 73.1516 9.264 73.8716 10.016C74.6076 10.752 75.2156 11.48 75.6956 12.2C75.7916 12.36 75.7916 12.552 75.6956 12.776C75.6156 12.984 75.5036 13.136 75.3596 13.232C75.1676 13.376 74.9596 13.44 74.7356 13.424C74.5276 13.392 74.3676 13.296 74.2556 13.136C73.6796 12.432 73.0876 11.816 72.4796 11.288C71.8716 10.744 71.2956 10.256 70.7516 9.824C70.2556 10.576 69.7036 11.248 69.0956 11.84C68.4876 12.432 67.8396 12.944 67.1516 13.376C66.9596 13.504 66.7596 13.584 66.5516 13.616C66.3596 13.648 66.1436 13.616 65.9036 13.52C65.6636 13.456 65.5196 13.32 65.4716 13.112C65.4236 12.888 65.5276 12.664 65.7836 12.44C67.0156 11.416 67.9836 10.368 68.6876 9.296C69.3916 8.224 69.9196 7.16 70.2716 6.104C70.3836 5.768 70.4556 5.448 70.4876 5.144C70.5196 4.84 70.5596 4.568 70.6076 4.328C70.6396 4.088 70.6956 3.888 70.7756 3.728C70.8556 3.568 70.9916 3.448 71.1836 3.368C71.4396 3.288 71.6556 3.32 71.8316 3.464C72.0076 3.592 72.1436 3.776 72.2396 4.016C72.3516 4.256 72.4236 4.52 72.4556 4.808C72.4876 5.08 72.4876 5.312 72.4556 5.504ZM78.1916 1.208C78.4156 1.016 78.6796 0.967999 78.9836 1.064C79.2876 1.144 79.5276 1.28 79.7036 1.472C80.0236 1.824 80.2796 2.232 80.4716 2.696C80.6796 3.144 80.7836 3.608 80.7836 4.088L80.5916 14.312C80.5756 14.552 80.5516 14.824 80.5196 15.128C80.4876 15.416 80.4396 15.688 80.3756 15.944C80.2956 16.216 80.1836 16.448 80.0396 16.64C79.8956 16.816 79.7196 16.912 79.5116 16.928C79.3356 16.944 79.1916 16.88 79.0796 16.736C78.9676 16.576 78.8796 16.376 78.8156 16.136C78.7356 15.912 78.6796 15.68 78.6476 15.44C78.6316 15.2 78.6236 14.992 78.6236 14.816L78.6716 10.208L76.8236 10.4C76.2316 10.496 75.7836 10.44 75.4796 10.232C75.1916 10.024 75.0716 9.728 75.1196 9.344C75.1356 9.12 75.2236 8.952 75.3836 8.84C75.5436 8.712 75.7116 8.64 75.8876 8.624C75.9996 8.624 76.1116 8.624 76.2236 8.624C76.3516 8.624 76.4796 8.624 76.6076 8.624C76.7196 8.624 76.8316 8.624 76.9436 8.624C77.0716 8.624 77.1996 8.616 77.3276 8.6C77.4236 8.6 77.5276 8.6 77.6396 8.6C77.7516 8.584 77.8636 8.568 77.9756 8.552C78.0876 8.552 78.1996 8.552 78.3116 8.552C78.4236 8.536 78.5436 8.52 78.6716 8.504L78.6956 7.016L76.8236 7.232C76.2316 7.328 75.7836 7.272 75.4796 7.064C75.1916 6.856 75.0716 6.56 75.1196 6.176C75.1356 5.952 75.2236 5.784 75.3836 5.672C75.5436 5.544 75.7116 5.472 75.8876 5.456C75.9996 5.456 76.1116 5.456 76.2236 5.456C76.3516 5.456 76.4796 5.456 76.6076 5.456C76.7196 5.456 76.8316 5.456 76.9436 5.456C77.0716 5.456 77.1996 5.448 77.3276 5.432C77.4236 5.432 77.5276 5.432 77.6396 5.432C77.7516 5.416 77.8716 5.4 77.9996 5.384C78.1116 5.384 78.2236 5.384 78.3356 5.384C78.4636 5.368 78.5916 5.352 78.7196 5.336V4.808C78.7196 4.568 78.6956 4.288 78.6476 3.968C78.6156 3.648 78.5436 3.368 78.4316 3.128C78.3516 2.984 78.2716 2.832 78.1916 2.672C78.1116 2.496 78.0476 2.32 77.9996 2.144C77.9516 1.968 77.9356 1.8 77.9516 1.64C77.9836 1.48 78.0636 1.336 78.1916 1.208ZM69.5276 16.688C69.4476 16.496 69.4156 16.28 69.4316 16.04C69.4636 15.784 69.6316 15.584 69.9356 15.44C70.1116 15.344 70.3196 15.32 70.5596 15.368C70.7996 15.4 70.9756 15.504 71.0876 15.68C71.2156 15.904 71.3276 16.192 71.4236 16.544C71.5356 16.896 71.6396 17.264 71.7356 17.648C71.8156 18.048 71.8796 18.448 71.9276 18.848C71.9916 19.248 72.0476 19.608 72.0956 19.928C73.4876 20.12 74.9036 20.2 76.3436 20.168C77.7996 20.136 79.1276 20.072 80.3276 19.976C80.6156 19.96 80.8236 20.024 80.9516 20.168C81.0956 20.328 81.1756 20.512 81.1916 20.72C81.1916 21.008 81.1116 21.232 80.9516 21.392C80.8076 21.552 80.6396 21.64 80.4476 21.656C79.1516 21.832 77.8076 21.92 76.4156 21.92C75.0236 21.92 73.6716 21.848 72.3596 21.704C72.1676 21.688 71.9516 21.656 71.7116 21.608C71.4876 21.56 71.2716 21.48 71.0636 21.368C70.8556 21.256 70.6716 21.104 70.5116 20.912C70.3516 20.72 70.2476 20.472 70.1996 20.168C70.1356 19.88 70.0796 19.576 70.0316 19.256C69.9836 18.92 69.9356 18.6 69.8876 18.296C69.8236 17.992 69.7596 17.704 69.6956 17.432C69.6476 17.144 69.5916 16.896 69.5276 16.688Z" fill="#E276A4"/>
</svg>
