<svg width="206" height="23" viewBox="0 0 206 23" fill="none" xmlns="http://www.w3.org/2000/svg">
<path d="M6.648 4.784C6.744 5.296 6.84 5.92 6.936 6.656C7.032 7.392 7.096 8.024 7.128 8.552C8.248 8.6 9.336 8.616 10.392 8.6C11.448 8.584 12.368 8.536 13.152 8.456C13.168 8.184 13.184 7.864 13.2 7.496C13.216 7.128 13.232 6.752 13.248 6.368C13.264 6 13.272 5.64 13.272 5.288C13.288 4.936 13.304 4.632 13.32 4.376C12.776 4.424 12.216 4.472 11.64 4.52C11.08 4.552 10.52 4.584 9.96 4.616C9.4 4.648 8.84 4.68 8.28 4.712C7.72 4.744 7.176 4.768 6.648 4.784ZM4.152 3.608C4.2 3.4 4.32 3.264 4.512 3.2C4.72 3.136 5.032 3.112 5.448 3.128C5.704 3.144 5.96 3.152 6.216 3.152C6.488 3.152 6.76 3.144 7.032 3.128C8.136 3.08 9.24 3.024 10.344 2.96C11.448 2.896 12.56 2.816 13.68 2.72C14.24 2.672 14.64 2.776 14.88 3.032C15.136 3.288 15.264 3.584 15.264 3.92C15.232 4.688 15.184 5.544 15.12 6.488C15.072 7.432 15.024 8.216 14.976 8.84C14.928 9.272 14.808 9.584 14.616 9.776C14.424 9.968 14.04 10.08 13.464 10.112C13.08 10.144 12.616 10.176 12.072 10.208C11.528 10.224 10.96 10.24 10.368 10.256C9.776 10.272 9.184 10.28 8.592 10.28C8.016 10.264 7.504 10.24 7.056 10.208C6.432 10.16 5.976 9.944 5.688 9.56C5.4 9.176 5.248 8.768 5.232 8.336C5.2 7.76 5.136 7.168 5.04 6.56C4.944 5.936 4.824 5.456 4.68 5.12C4.616 5.008 4.544 4.888 4.464 4.76C4.4 4.616 4.336 4.472 4.272 4.328C4.224 4.2 4.184 4.08 4.152 3.968C4.12 3.84 4.12 3.72 4.152 3.608ZM2.304 12.488C4.752 12.52 7.248 12.496 9.792 12.416C12.336 12.336 14.864 12.248 17.376 12.152C17.456 12.152 17.544 12.152 17.64 12.152C17.736 12.136 17.832 12.128 17.928 12.128C18.024 12.112 18.12 12.104 18.216 12.104C18.312 12.088 18.408 12.08 18.504 12.08C18.824 12.08 19.04 12.16 19.152 12.32C19.28 12.48 19.352 12.656 19.368 12.848C19.384 13.184 19.304 13.432 19.128 13.592C18.952 13.752 18.76 13.848 18.552 13.88C18.488 13.896 18.432 13.904 18.384 13.904C18.336 13.904 18.272 13.896 18.192 13.88C18.112 13.88 18.008 13.88 17.88 13.88C17.768 13.864 17.624 13.856 17.448 13.856C16.424 13.888 15.416 13.92 14.424 13.952C13.448 13.968 12.488 13.984 11.544 14V15.752C11.544 16.616 11.44 17.24 11.232 17.624C11.04 17.992 10.8 18.184 10.512 18.2C10.176 18.232 9.928 18.08 9.768 17.744C9.624 17.392 9.552 16.952 9.552 16.424L9.504 14.072C8.848 14.088 8.2 14.104 7.56 14.12C6.92 14.136 6.28 14.152 5.64 14.168C4.984 14.184 4.32 14.2 3.648 14.216C2.992 14.232 2.328 14.24 1.656 14.24C1.4 14.256 1.168 14.208 0.96 14.096C0.752 13.968 0.592 13.816 0.48 13.64C0.352 13.464 0.272 13.28 0.24 13.088C0.224 12.896 0.264 12.72 0.36 12.56C0.44 12.432 0.552 12.36 0.696 12.344C0.856 12.312 1.024 12.312 1.2 12.344C1.376 12.36 1.56 12.392 1.752 12.44C1.944 12.472 2.128 12.488 2.304 12.488ZM4.896 15.464C5.168 15.368 5.416 15.36 5.64 15.44C5.864 15.504 6.032 15.64 6.144 15.848C6.384 16.376 6.584 17.016 6.744 17.768C6.904 18.52 7.024 19.24 7.104 19.928C7.632 20.024 8.232 20.088 8.904 20.12C9.592 20.168 10.304 20.184 11.04 20.168C11.76 20.168 12.488 20.144 13.224 20.096C13.96 20.064 14.656 20.016 15.312 19.952C15.504 19.952 15.656 20.032 15.768 20.192C15.896 20.352 15.968 20.552 15.984 20.792C15.984 21.016 15.92 21.208 15.792 21.368C15.68 21.528 15.536 21.616 15.36 21.632C14.816 21.728 14.16 21.8 13.392 21.848C12.64 21.896 11.856 21.928 11.04 21.944C10.224 21.944 9.424 21.92 8.64 21.872C7.872 21.84 7.216 21.76 6.672 21.632C6.24 21.552 5.888 21.4 5.616 21.176C5.36 20.952 5.208 20.624 5.16 20.192C5.064 19.568 4.96 18.936 4.848 18.296C4.736 17.64 4.568 17.056 4.344 16.544C4.264 16.4 4.264 16.216 4.344 15.992C4.424 15.752 4.608 15.576 4.896 15.464ZM24.2235 4.04C24.2555 3.928 24.3355 3.848 24.4635 3.8C24.6075 3.752 24.7675 3.72 24.9435 3.704C25.1195 3.688 25.3035 3.688 25.4955 3.704C25.6875 3.704 25.8555 3.704 25.9995 3.704C27.2955 3.672 28.5035 3.632 29.6235 3.584C30.7595 3.536 31.9275 3.48 33.1275 3.416C33.6875 3.384 34.1595 3.456 34.5435 3.632C34.9435 3.808 35.1355 4.192 35.1195 4.784C35.1035 5.104 35.0875 5.432 35.0715 5.768C35.0555 6.088 35.0315 6.432 34.9995 6.8C34.9835 7.168 34.9515 7.56 34.9035 7.976C34.8555 8.376 34.7995 8.816 34.7355 9.296C34.6875 9.552 34.6315 9.824 34.5675 10.112C34.5195 10.384 34.4395 10.64 34.3275 10.88C34.2155 11.104 34.0795 11.288 33.9195 11.432C33.7755 11.56 33.5915 11.608 33.3675 11.576C33.1275 11.544 32.9675 11.368 32.8875 11.048C32.8075 10.712 32.8075 10.136 32.8875 9.32C32.9195 8.872 32.9435 8.456 32.9595 8.072C32.9915 7.688 33.0155 7.32 33.0315 6.968C33.0475 6.632 33.0555 6.312 33.0555 6.008C33.0715 5.688 33.0875 5.384 33.1035 5.096C32.4795 5.128 31.8635 5.16 31.2555 5.192C30.6475 5.224 30.0315 5.256 29.4075 5.288C28.7995 5.336 28.1835 5.376 27.5595 5.408C26.9515 5.44 26.3355 5.464 25.7115 5.48C25.5355 5.496 25.3435 5.472 25.1355 5.408C24.9275 5.328 24.7435 5.216 24.5835 5.072C24.4235 4.944 24.3035 4.792 24.2235 4.616C24.1435 4.424 24.1435 4.232 24.2235 4.04ZM21.9915 12.584C23.2075 12.6 24.4395 12.6 25.6875 12.584C26.9515 12.568 28.2155 12.544 29.4795 12.512C30.7435 12.48 32.0075 12.44 33.2715 12.392C34.5355 12.344 35.7995 12.296 37.0635 12.248C37.1435 12.248 37.2315 12.248 37.3275 12.248C37.4235 12.232 37.5195 12.216 37.6155 12.2C37.7115 12.184 37.8075 12.176 37.9035 12.176C37.9995 12.16 38.0955 12.152 38.1915 12.152C38.5115 12.152 38.7275 12.24 38.8395 12.416C38.9675 12.576 39.0395 12.752 39.0555 12.944C39.0715 13.28 38.9915 13.528 38.8155 13.688C38.6395 13.848 38.4475 13.944 38.2395 13.976C38.1755 13.992 38.1195 14 38.0715 14C38.0235 14 37.9595 13.992 37.8795 13.976C37.7995 13.976 37.6955 13.976 37.5675 13.976C37.4555 13.96 37.3115 13.952 37.1355 13.952C36.5755 13.984 36.0315 14.008 35.5035 14.024C34.9755 14.04 34.4475 14.048 33.9195 14.048C33.4075 14.064 32.8875 14.08 32.3595 14.096C31.8475 14.112 31.3435 14.12 30.8475 14.12V19.232C30.8475 20.096 30.7435 20.712 30.5355 21.08C30.3435 21.464 30.1035 21.664 29.8155 21.68C29.4795 21.712 29.2315 21.552 29.0715 21.2C28.9275 20.864 28.8555 20.432 28.8555 19.904L28.7835 14.168C27.5675 14.216 26.3435 14.256 25.1115 14.288C23.8955 14.304 22.6395 14.32 21.3435 14.336C21.0875 14.352 20.8555 14.304 20.6475 14.192C20.4395 14.064 20.2795 13.912 20.1675 13.736C20.0395 13.56 19.9595 13.376 19.9275 13.184C19.9115 12.992 19.9515 12.816 20.0475 12.656C20.1275 12.528 20.2395 12.456 20.3835 12.44C20.5435 12.408 20.7115 12.4 20.8875 12.416C21.0635 12.448 21.2475 12.488 21.4395 12.536C21.6315 12.568 21.8155 12.584 21.9915 12.584ZM46.4081 4.304C46.4401 4.208 46.4961 4.136 46.5761 4.088C46.6561 4.04 46.7521 4 46.8641 3.968C46.9761 3.952 47.1041 3.944 47.2481 3.944C47.4081 3.944 47.5841 3.928 47.7761 3.896C48.0641 3.88 48.4081 3.856 48.8081 3.824C49.2081 3.792 49.6321 3.76 50.0801 3.728C50.5441 3.68 51.0161 3.632 51.4961 3.584C51.9761 3.536 52.4401 3.472 52.8881 3.392C53.0481 3.392 53.2161 3.4 53.3921 3.416C53.5841 3.432 53.7601 3.488 53.9201 3.584C54.1121 3.696 54.2801 3.856 54.4241 4.064C54.5681 4.272 54.6161 4.472 54.5681 4.664C54.3921 5.304 54.1521 5.928 53.8481 6.536C53.5601 7.128 53.2321 7.688 52.8641 8.216C53.4721 8.696 54.0561 9.2 54.6161 9.728C55.1921 10.256 55.6881 10.76 56.1041 11.24C56.2001 11.384 56.2081 11.568 56.1281 11.792C56.0481 12.016 55.9361 12.184 55.7921 12.296C55.6001 12.44 55.4001 12.512 55.1921 12.512C54.9841 12.512 54.8161 12.44 54.6881 12.296C54.1761 11.768 53.6641 11.312 53.1521 10.928C52.6401 10.528 52.1281 10.144 51.6161 9.776C51.0401 10.416 50.4481 10.976 49.8401 11.456C49.2321 11.936 48.6801 12.296 48.1841 12.536C47.9921 12.632 47.7921 12.704 47.5841 12.752C47.3921 12.8 47.1761 12.776 46.9361 12.68C46.6961 12.616 46.5441 12.472 46.4801 12.248C46.4321 12.008 46.5441 11.792 46.8161 11.6C47.3601 11.216 47.9121 10.784 48.4721 10.304C49.0481 9.808 49.5841 9.28 50.0801 8.72C50.5761 8.16 51.0241 7.576 51.4241 6.968C51.8241 6.36 52.1441 5.736 52.3841 5.096C52.0001 5.144 51.6321 5.192 51.2801 5.24C50.9281 5.288 50.5841 5.328 50.2481 5.36C49.8961 5.408 49.5441 5.456 49.1921 5.504C48.8561 5.536 48.5201 5.568 48.1841 5.6C47.9281 5.648 47.6801 5.64 47.4401 5.576C47.2001 5.512 46.9921 5.416 46.8161 5.288C46.6401 5.16 46.5121 5.008 46.4321 4.832C46.3521 4.656 46.3441 4.48 46.4081 4.304ZM57.9041 1.208C58.1281 1.016 58.3921 0.967999 58.6961 1.064C59.0001 1.144 59.2401 1.28 59.4161 1.472C59.7361 1.84 59.9921 2.256 60.1841 2.72C60.3921 3.168 60.4961 3.632 60.4961 4.112L60.4241 6.488C60.5841 6.488 60.7441 6.488 60.9041 6.488C61.0801 6.472 61.2561 6.456 61.4321 6.44C61.6081 6.424 61.7841 6.416 61.9601 6.416C62.1361 6.4 62.3121 6.376 62.4881 6.344C62.6641 6.344 62.8481 6.344 63.0401 6.344C63.2481 6.328 63.4401 6.32 63.6161 6.32C63.9361 6.352 64.1521 6.456 64.2641 6.632C64.3761 6.792 64.4321 6.968 64.4321 7.16C64.4321 7.496 64.3361 7.736 64.1441 7.88C63.9681 8.024 63.7681 8.112 63.5441 8.144C63.4801 8.16 63.4241 8.168 63.3761 8.168C63.3281 8.152 63.2641 8.136 63.1841 8.12C63.1201 8.104 63.0241 8.088 62.8961 8.072C62.7841 8.056 62.6401 8.048 62.4641 8.048C62.1281 8.064 61.7841 8.08 61.4321 8.096C61.0961 8.112 60.7441 8.12 60.3761 8.12L60.3041 10.712C60.2881 10.952 60.2641 11.216 60.2321 11.504C60.2001 11.792 60.1521 12.072 60.0881 12.344C60.0081 12.6 59.8961 12.824 59.7521 13.016C59.6081 13.192 59.4321 13.288 59.2241 13.304C59.0481 13.336 58.9041 13.272 58.7921 13.112C58.6801 12.952 58.5921 12.76 58.5281 12.536C58.4481 12.312 58.3921 12.08 58.3601 11.84C58.3441 11.6 58.3361 11.392 58.3361 11.216L58.4321 4.808C58.4321 4.584 58.4081 4.312 58.3601 3.992C58.3281 3.656 58.2561 3.368 58.1441 3.128C58.0001 2.856 57.8561 2.528 57.7121 2.144C57.5841 1.76 57.6481 1.448 57.9041 1.208ZM49.4081 14.984C49.4561 14.888 49.5521 14.816 49.6961 14.768C49.8561 14.72 50.0401 14.688 50.2481 14.672C50.4561 14.672 50.6641 14.672 50.8721 14.672C51.0801 14.672 51.2721 14.664 51.4481 14.648C51.7681 14.648 52.2241 14.64 52.8161 14.624C53.4081 14.592 54.0321 14.56 54.6881 14.528C55.3441 14.512 55.9921 14.496 56.6321 14.48C57.2881 14.448 57.8401 14.416 58.2881 14.384C58.4161 14.384 58.5441 14.384 58.6721 14.384C58.8001 14.368 58.9361 14.36 59.0801 14.36C59.2081 14.376 59.3361 14.408 59.4641 14.456C59.6081 14.504 59.7521 14.584 59.8961 14.696C60.0241 14.808 60.1281 14.96 60.2081 15.152C60.2881 15.344 60.3281 15.504 60.3281 15.632L60.0881 19.76C60.0721 20 60.0321 20.248 59.9681 20.504C59.9201 20.776 59.8481 21.024 59.7521 21.248C59.6561 21.456 59.5361 21.632 59.3921 21.776C59.2641 21.92 59.1201 21.984 58.9601 21.968C58.6721 21.968 58.4881 21.792 58.4081 21.44C58.3281 21.104 58.2881 20.752 58.2881 20.384L58.3361 16.064L50.8721 16.376C50.3441 16.408 49.9361 16.248 49.6481 15.896C49.3601 15.544 49.2801 15.24 49.4081 14.984ZM71.9634 5.264C71.8674 5.68 71.7554 6.08 71.6274 6.464C71.5154 6.848 71.3874 7.208 71.2434 7.544C71.9474 8.104 72.6594 8.712 73.3794 9.368C74.0994 10.008 74.7074 10.672 75.2034 11.36C75.2994 11.52 75.2994 11.712 75.2034 11.936C75.1234 12.144 75.0114 12.296 74.8674 12.392C74.6754 12.536 74.4754 12.592 74.2674 12.56C74.0594 12.528 73.8914 12.44 73.7634 12.296C73.2994 11.816 72.7634 11.328 72.1554 10.832C71.5474 10.32 70.9154 9.824 70.2594 9.344C69.7314 10.112 69.1474 10.776 68.5074 11.336C67.8834 11.896 67.2674 12.336 66.6594 12.656C66.4674 12.752 66.2674 12.824 66.0594 12.872C65.8674 12.92 65.6514 12.896 65.4114 12.8C65.1714 12.736 65.0194 12.592 64.9554 12.368C64.9074 12.144 65.0194 11.928 65.2914 11.72C66.6034 10.712 67.6034 9.704 68.2914 8.696C68.9794 7.688 69.4674 6.752 69.7554 5.888C69.8514 5.552 69.9154 5.232 69.9474 4.928C69.9954 4.624 70.0434 4.352 70.0914 4.112C70.1234 3.872 70.1794 3.672 70.2594 3.512C70.3554 3.336 70.4994 3.208 70.6914 3.128C70.9474 3.048 71.1634 3.08 71.3394 3.224C71.5154 3.352 71.6514 3.536 71.7474 3.776C71.8594 4.016 71.9314 4.28 71.9634 4.568C71.9954 4.84 71.9954 5.072 71.9634 5.264ZM77.6994 1.208C77.9234 1.016 78.1874 0.967999 78.4914 1.064C78.7954 1.144 79.0354 1.28 79.2114 1.472C79.5314 1.84 79.7874 2.256 79.9794 2.72C80.1874 3.168 80.2914 3.632 80.2914 4.112L80.0994 11.168C80.0834 11.408 80.0594 11.672 80.0274 11.96C79.9954 12.248 79.9474 12.528 79.8834 12.8C79.8034 13.056 79.6914 13.28 79.5474 13.472C79.4034 13.648 79.2274 13.744 79.0194 13.76C78.8434 13.792 78.6994 13.728 78.5874 13.568C78.4754 13.408 78.3874 13.216 78.3234 12.992C78.2434 12.768 78.1874 12.536 78.1554 12.296C78.1394 12.056 78.1314 11.848 78.1314 11.672L78.1794 8.144L75.8514 8.432C75.2594 8.528 74.8114 8.472 74.5074 8.264C74.2194 8.056 74.0994 7.76 74.1474 7.376C74.1634 7.152 74.2514 6.984 74.4114 6.872C74.5714 6.744 74.7394 6.672 74.9154 6.656C75.0274 6.656 75.1394 6.656 75.2514 6.656C75.3794 6.656 75.5074 6.656 75.6354 6.656C75.7474 6.656 75.8594 6.656 75.9714 6.656C76.0994 6.656 76.2274 6.648 76.3554 6.632C76.6754 6.616 76.9874 6.6 77.2914 6.584C77.5954 6.552 77.8994 6.512 78.2034 6.464L78.2274 4.808C78.2274 4.584 78.2034 4.312 78.1554 3.992C78.1234 3.656 78.0514 3.368 77.9394 3.128C77.7954 2.856 77.6514 2.528 77.5074 2.144C77.3794 1.76 77.4434 1.448 77.6994 1.208ZM70.1874 17.984C70.1874 17.344 70.3154 16.768 70.5714 16.256C70.8274 15.744 71.1794 15.304 71.6274 14.936C72.0594 14.568 72.5714 14.288 73.1634 14.096C73.7554 13.904 74.3794 13.808 75.0354 13.808C75.6754 13.808 76.2914 13.904 76.8834 14.096C77.4754 14.288 77.9874 14.568 78.4194 14.936C78.8674 15.288 79.2194 15.728 79.4754 16.256C79.7474 16.768 79.8834 17.344 79.8834 17.984C79.8834 18.64 79.7474 19.224 79.4754 19.736C79.2194 20.248 78.8674 20.688 78.4194 21.056C77.9874 21.408 77.4754 21.68 76.8834 21.872C76.2914 22.064 75.6754 22.16 75.0354 22.16C74.3794 22.176 73.7554 22.088 73.1634 21.896C72.5714 21.704 72.0594 21.424 71.6274 21.056C71.1794 20.688 70.8274 20.248 70.5714 19.736C70.3154 19.224 70.1874 18.64 70.1874 17.984ZM72.1554 17.984C72.1554 18.624 72.4034 19.192 72.8994 19.688C73.4114 20.184 74.1234 20.424 75.0354 20.408C75.9314 20.408 76.6354 20.168 77.1474 19.688C77.6594 19.192 77.9154 18.624 77.9154 17.984C77.9154 17.344 77.6594 16.784 77.1474 16.304C76.6354 15.808 75.9314 15.56 75.0354 15.56C74.1234 15.56 73.4114 15.8 72.8994 16.28C72.4034 16.76 72.1554 17.328 72.1554 17.984ZM90.6902 11.072C90.6742 10.192 90.7462 9.304 90.9062 8.408C91.0822 7.496 91.3142 6.632 91.6022 5.816C91.8902 4.984 92.2262 4.216 92.6102 3.512C92.9942 2.808 93.4022 2.2 93.8342 1.688C93.9462 1.544 94.1142 1.464 94.3382 1.448C94.5782 1.432 94.8102 1.512 95.0342 1.688C95.2102 1.832 95.3142 2.008 95.3462 2.216C95.3942 2.408 95.3702 2.576 95.2742 2.72C94.2502 4.112 93.5542 5.52 93.1862 6.944C92.8182 8.368 92.6422 9.744 92.6582 11.072C92.6422 12.416 92.8182 13.8 93.1862 15.224C93.5542 16.632 94.2502 18.032 95.2742 19.424C95.3702 19.568 95.3942 19.744 95.3462 19.952C95.3142 20.144 95.2102 20.312 95.0342 20.456C94.8102 20.648 94.5782 20.728 94.3382 20.696C94.1142 20.68 93.9462 20.6 93.8342 20.456C93.4022 19.96 92.9942 19.376 92.6102 18.704C92.2262 18.016 91.8902 17.264 91.6022 16.448C91.3142 15.648 91.0822 14.792 90.9062 13.88C90.7462 12.968 90.6742 12.032 90.6902 11.072ZM99.9864 5.312C100.418 5.168 100.834 5.32 101.234 5.768C101.634 6.2 101.874 6.912 101.954 7.904C101.954 8 101.954 8.104 101.954 8.216C101.954 8.312 101.962 8.416 101.978 8.528C101.978 8.656 101.978 8.792 101.978 8.936C101.978 9.064 101.986 9.2 102.002 9.344C102.37 9.328 102.714 9.312 103.034 9.296C103.354 9.28 103.666 9.264 103.97 9.248C104.29 9.232 104.618 9.216 104.954 9.2C105.29 9.184 105.666 9.16 106.082 9.128C106.082 8.44 106.066 7.8 106.034 7.208C106.002 6.6 105.946 6.064 105.866 5.6C105.818 5.424 105.89 5.248 106.082 5.072C106.274 4.88 106.498 4.784 106.754 4.784C107.138 4.784 107.41 4.856 107.57 5C107.746 5.144 107.858 5.328 107.906 5.552C107.938 5.92 107.962 6.44 107.978 7.112C107.994 7.768 108.002 8.48 108.002 9.248C107.986 10.016 107.962 10.792 107.93 11.576C107.914 12.344 107.89 13.016 107.858 13.592C107.81 14.04 107.714 14.416 107.57 14.72C107.426 15.024 107.13 15.24 106.682 15.368C106.106 15.544 105.37 15.696 104.474 15.824C103.594 15.936 102.698 15.976 101.786 15.944C101.402 15.944 101.018 15.832 100.634 15.608C100.25 15.384 100.058 14.912 100.058 14.192C100.042 13.888 100.034 13.416 100.034 12.776C100.05 12.136 100.058 11.464 100.058 10.76C100.058 10.056 100.042 9.392 100.01 8.768C99.9944 8.144 99.9544 7.688 99.8904 7.4C99.8104 7.144 99.7464 6.904 99.6984 6.68C99.6504 6.456 99.6184 6.248 99.6024 6.056C99.5864 5.88 99.6024 5.728 99.6504 5.6C99.7144 5.472 99.8264 5.376 99.9864 5.312ZM102.026 10.928C102.026 11.6 102.026 12.248 102.026 12.872C102.026 13.496 102.034 13.952 102.05 14.24C102.802 14.208 103.482 14.152 104.09 14.072C104.714 13.976 105.346 13.856 105.986 13.712C105.986 13.472 105.986 13.232 105.986 12.992C106.002 12.736 106.01 12.488 106.01 12.248C106.01 11.992 106.01 11.744 106.01 11.504C106.026 11.248 106.042 11 106.058 10.76C105.306 10.776 104.634 10.8 104.042 10.832C103.466 10.848 102.794 10.88 102.026 10.928ZM111.074 1.208C111.298 1.016 111.562 0.96 111.866 1.04C112.17 1.12 112.41 1.256 112.586 1.448C112.906 1.816 113.162 2.232 113.354 2.696C113.562 3.144 113.666 3.608 113.666 4.088L113.474 18.848C113.458 19.088 113.434 19.36 113.402 19.664C113.37 19.952 113.322 20.224 113.258 20.48C113.178 20.752 113.066 20.976 112.922 21.152C112.778 21.344 112.602 21.448 112.394 21.464C112.218 21.496 112.074 21.432 111.962 21.272C111.85 21.112 111.762 20.92 111.698 20.696C111.618 20.472 111.562 20.24 111.53 20C111.514 19.744 111.506 19.528 111.506 19.352L111.602 4.808C111.602 4.568 111.578 4.288 111.53 3.968C111.498 3.648 111.426 3.368 111.314 3.128C111.234 2.984 111.154 2.832 111.074 2.672C110.994 2.496 110.93 2.32 110.882 2.144C110.834 1.968 110.818 1.8 110.834 1.64C110.866 1.48 110.946 1.336 111.074 1.208ZM122.576 7.304C122.576 8.104 122.84 8.72 123.368 9.152C123.912 9.584 124.688 9.792 125.696 9.776C126.688 9.776 127.456 9.568 128 9.152C128.544 8.72 128.816 8.104 128.816 7.304C128.8 6.488 128.52 5.872 127.976 5.456C127.448 5.04 126.688 4.832 125.696 4.832C124.688 4.832 123.912 5.048 123.368 5.48C122.84 5.896 122.576 6.504 122.576 7.304ZM120.608 7.304C120.608 6.056 121.064 5.056 121.976 4.304C122.888 3.536 124.128 3.152 125.696 3.152C127.232 3.152 128.464 3.528 129.392 4.28C130.32 5.032 130.784 6.04 130.784 7.304C130.784 8.552 130.32 9.56 129.392 10.328C128.464 11.08 127.232 11.456 125.696 11.456C124.128 11.472 122.888 11.096 121.976 10.328C121.064 9.56 120.608 8.552 120.608 7.304ZM117.968 13.304C119.184 13.32 120.416 13.32 121.664 13.304C122.928 13.288 124.192 13.264 125.456 13.232C126.72 13.2 127.984 13.16 129.248 13.112C130.512 13.064 131.776 13.016 133.04 12.968C133.12 12.968 133.208 12.968 133.304 12.968C133.4 12.952 133.496 12.936 133.592 12.92C133.688 12.904 133.784 12.896 133.88 12.896C133.976 12.88 134.072 12.872 134.168 12.872C134.488 12.872 134.704 12.96 134.816 13.136C134.944 13.296 135.016 13.472 135.032 13.664C135.048 14 134.968 14.248 134.792 14.408C134.616 14.568 134.424 14.664 134.216 14.696C134.152 14.712 134.096 14.72 134.048 14.72C134 14.72 133.936 14.712 133.856 14.696C133.776 14.696 133.672 14.696 133.544 14.696C133.432 14.68 133.288 14.672 133.112 14.672C132.552 14.688 132.008 14.704 131.48 14.72C130.952 14.736 130.424 14.752 129.896 14.768C129.384 14.784 128.864 14.8 128.336 14.816C127.824 14.832 127.32 14.84 126.824 14.84V19.232C126.824 20.096 126.72 20.712 126.512 21.08C126.32 21.464 126.08 21.664 125.792 21.68C125.456 21.712 125.208 21.552 125.048 21.2C124.904 20.864 124.832 20.432 124.832 19.904L124.76 14.888C123.544 14.936 122.32 14.976 121.088 15.008C119.872 15.024 118.616 15.04 117.32 15.056C117.064 15.072 116.832 15.024 116.624 14.912C116.416 14.784 116.256 14.632 116.144 14.456C116.016 14.28 115.936 14.096 115.904 13.904C115.888 13.712 115.928 13.536 116.024 13.376C116.104 13.248 116.216 13.176 116.36 13.16C116.52 13.128 116.688 13.12 116.864 13.136C117.04 13.168 117.224 13.208 117.416 13.256C117.608 13.288 117.792 13.304 117.968 13.304ZM136.672 6.104C136.704 6.008 136.76 5.936 136.84 5.888C136.92 5.84 137.016 5.8 137.128 5.768C137.24 5.752 137.368 5.744 137.512 5.744C137.672 5.744 137.848 5.728 138.04 5.696C138.328 5.68 138.696 5.656 139.144 5.624C139.592 5.592 140.072 5.56 140.584 5.528C141.112 5.48 141.64 5.432 142.168 5.384C142.696 5.336 143.184 5.272 143.632 5.192C143.792 5.192 143.96 5.2 144.136 5.216C144.328 5.232 144.504 5.288 144.664 5.384C144.856 5.496 145.016 5.656 145.144 5.864C145.288 6.072 145.344 6.272 145.312 6.464C145.088 7.472 144.728 8.472 144.232 9.464C143.736 10.456 143.184 11.376 142.576 12.224C141.968 13.072 141.336 13.816 140.68 14.456C140.04 15.08 139.456 15.52 138.928 15.776C138.736 15.872 138.536 15.944 138.328 15.992C138.136 16.04 137.92 16.016 137.68 15.92C137.44 15.856 137.288 15.712 137.224 15.488C137.176 15.264 137.288 15.048 137.56 14.84C138.808 13.864 139.904 12.728 140.848 11.432C141.792 10.136 142.552 8.624 143.128 6.896C142.744 6.944 142.352 6.992 141.952 7.04C141.552 7.088 141.152 7.128 140.752 7.16C140.336 7.208 139.928 7.256 139.528 7.304C139.144 7.336 138.784 7.368 138.448 7.4C138.192 7.448 137.944 7.44 137.704 7.376C137.464 7.312 137.256 7.216 137.08 7.088C136.904 6.96 136.776 6.808 136.696 6.632C136.616 6.456 136.608 6.28 136.672 6.104ZM148.528 1.208C148.752 1.016 149.016 0.96 149.32 1.04C149.624 1.12 149.864 1.256 150.04 1.448C150.36 1.816 150.616 2.232 150.808 2.696C151.016 3.144 151.12 3.608 151.12 4.088L150.928 18.848C150.912 19.088 150.888 19.36 150.856 19.664C150.824 19.952 150.776 20.224 150.712 20.48C150.632 20.752 150.52 20.976 150.376 21.152C150.232 21.344 150.056 21.448 149.848 21.464C149.672 21.496 149.528 21.432 149.416 21.272C149.304 21.112 149.216 20.92 149.152 20.696C149.072 20.472 149.016 20.24 148.984 20C148.968 19.744 148.96 19.528 148.96 19.352L149.056 4.808C149.056 4.568 149.032 4.288 148.984 3.968C148.952 3.648 148.88 3.368 148.768 3.128C148.688 2.984 148.608 2.832 148.528 2.672C148.448 2.496 148.384 2.32 148.336 2.144C148.288 1.968 148.272 1.8 148.288 1.64C148.32 1.48 148.4 1.336 148.528 1.208ZM160.39 6.104C160.422 6.008 160.478 5.936 160.558 5.888C160.638 5.84 160.734 5.8 160.846 5.768C160.958 5.752 161.086 5.744 161.23 5.744C161.39 5.744 161.566 5.728 161.758 5.696C162.046 5.68 162.414 5.656 162.862 5.624C163.31 5.592 163.79 5.56 164.302 5.528C164.83 5.48 165.358 5.432 165.886 5.384C166.414 5.336 166.902 5.272 167.35 5.192C167.51 5.192 167.678 5.2 167.854 5.216C168.046 5.232 168.222 5.288 168.382 5.384C168.574 5.496 168.734 5.656 168.862 5.864C169.006 6.072 169.062 6.272 169.03 6.464C168.806 7.472 168.446 8.472 167.95 9.464C167.454 10.456 166.902 11.376 166.294 12.224C165.686 13.072 165.054 13.816 164.398 14.456C163.758 15.08 163.174 15.52 162.646 15.776C162.454 15.872 162.254 15.944 162.046 15.992C161.854 16.04 161.638 16.016 161.398 15.92C161.158 15.856 161.006 15.712 160.942 15.488C160.894 15.264 161.006 15.048 161.278 14.84C162.526 13.864 163.622 12.728 164.566 11.432C165.51 10.136 166.27 8.624 166.846 6.896C166.462 6.944 166.07 6.992 165.67 7.04C165.27 7.088 164.87 7.128 164.47 7.16C164.054 7.208 163.646 7.256 163.246 7.304C162.862 7.336 162.502 7.368 162.166 7.4C161.91 7.448 161.662 7.44 161.422 7.376C161.182 7.312 160.974 7.216 160.798 7.088C160.622 6.96 160.494 6.808 160.414 6.632C160.334 6.456 160.326 6.28 160.39 6.104ZM171.646 1.208C171.87 1.016 172.134 0.96 172.438 1.04C172.742 1.12 172.982 1.256 173.158 1.448C173.478 1.816 173.734 2.232 173.926 2.696C174.134 3.144 174.238 3.608 174.238 4.088L174.166 9.56C174.502 9.544 174.838 9.528 175.174 9.512C175.51 9.48 175.862 9.448 176.23 9.416C176.31 9.416 176.398 9.416 176.494 9.416C176.59 9.416 176.686 9.416 176.782 9.416C176.878 9.416 176.974 9.416 177.07 9.416C177.166 9.416 177.262 9.416 177.358 9.416C177.678 9.432 177.894 9.528 178.006 9.704C178.118 9.88 178.174 10.064 178.174 10.256C178.174 10.576 178.078 10.808 177.886 10.952C177.71 11.096 177.51 11.176 177.286 11.192C177.222 11.208 177.166 11.216 177.118 11.216C177.07 11.2 177.006 11.184 176.926 11.168C176.862 11.152 176.766 11.144 176.638 11.144C176.526 11.128 176.382 11.12 176.206 11.12C176.03 11.136 175.854 11.144 175.678 11.144C175.518 11.144 175.358 11.144 175.198 11.144C175.022 11.16 174.846 11.168 174.67 11.168C174.494 11.168 174.318 11.168 174.142 11.168L174.046 18.848C174.03 19.088 174.006 19.36 173.974 19.664C173.942 19.952 173.894 20.224 173.83 20.48C173.75 20.752 173.638 20.976 173.494 21.152C173.35 21.344 173.174 21.448 172.966 21.464C172.79 21.496 172.646 21.432 172.534 21.272C172.422 21.112 172.334 20.92 172.27 20.696C172.19 20.472 172.134 20.24 172.102 20C172.086 19.744 172.078 19.528 172.078 19.352L172.174 4.808C172.174 4.568 172.15 4.288 172.102 3.968C172.07 3.648 171.998 3.368 171.886 3.128C171.806 2.984 171.726 2.832 171.646 2.672C171.566 2.496 171.502 2.32 171.454 2.144C171.406 1.968 171.39 1.8 171.406 1.64C171.438 1.48 171.518 1.336 171.646 1.208ZM183.378 2.408C183.586 2.344 183.818 2.344 184.074 2.408C184.33 2.472 184.514 2.6 184.626 2.792C184.786 3.112 184.922 3.504 185.034 3.968C185.162 4.416 185.266 4.872 185.346 5.336C185.426 5.816 185.49 6.28 185.538 6.728C185.602 7.16 185.65 7.52 185.682 7.808C186.754 8 187.986 8.08 189.378 8.048C190.77 8 192.114 7.912 193.41 7.784C193.602 7.768 193.762 7.848 193.89 8.024C194.018 8.184 194.082 8.384 194.082 8.624C194.082 8.848 194.018 9.048 193.89 9.224C193.778 9.384 193.634 9.464 193.458 9.464C192.258 9.624 190.93 9.736 189.474 9.8C188.034 9.848 186.61 9.76 185.202 9.536C184.77 9.488 184.418 9.352 184.146 9.128C183.89 8.888 183.738 8.552 183.69 8.12C183.658 7.928 183.618 7.648 183.57 7.28C183.522 6.896 183.466 6.48 183.402 6.032C183.338 5.584 183.258 5.128 183.162 4.664C183.082 4.2 182.978 3.784 182.85 3.416C182.786 3.272 182.802 3.088 182.898 2.864C183.01 2.64 183.17 2.488 183.378 2.408ZM180.57 11.624C183.018 11.656 185.514 11.632 188.058 11.552C190.602 11.472 193.13 11.384 195.642 11.288C195.722 11.288 195.81 11.288 195.906 11.288C196.002 11.272 196.098 11.264 196.194 11.264C196.29 11.248 196.386 11.24 196.482 11.24C196.578 11.224 196.674 11.216 196.77 11.216C197.09 11.216 197.306 11.296 197.418 11.456C197.546 11.616 197.618 11.792 197.634 11.984C197.65 12.32 197.57 12.568 197.394 12.728C197.218 12.888 197.026 12.984 196.818 13.016C196.754 13.032 196.698 13.04 196.65 13.04C196.602 13.04 196.538 13.032 196.458 13.016C196.378 13.016 196.274 13.016 196.146 13.016C196.034 13 195.89 12.992 195.714 12.992C194.322 13.04 192.97 13.08 191.658 13.112C190.362 13.144 189.074 13.176 187.794 13.208C186.514 13.24 185.218 13.272 183.906 13.304C182.61 13.336 181.282 13.36 179.922 13.376C179.666 13.392 179.434 13.344 179.226 13.232C179.018 13.104 178.858 12.952 178.746 12.776C178.618 12.6 178.538 12.416 178.506 12.224C178.49 12.032 178.53 11.856 178.626 11.696C178.706 11.568 178.818 11.496 178.962 11.48C179.122 11.448 179.29 11.448 179.466 11.48C179.642 11.496 179.826 11.528 180.018 11.576C180.21 11.608 180.394 11.624 180.57 11.624ZM183.522 18.392C183.522 17.752 183.65 17.2 183.906 16.736C184.178 16.256 184.538 15.856 184.986 15.536C185.434 15.232 185.954 15.008 186.546 14.864C187.138 14.704 187.762 14.624 188.418 14.624C189.058 14.624 189.674 14.704 190.266 14.864C190.858 15.008 191.378 15.232 191.826 15.536C192.274 15.856 192.634 16.256 192.906 16.736C193.178 17.2 193.314 17.752 193.314 18.392C193.314 19.048 193.178 19.608 192.906 20.072C192.634 20.552 192.274 20.944 191.826 21.248C191.378 21.568 190.858 21.8 190.266 21.944C189.674 22.088 189.058 22.16 188.418 22.16C187.762 22.176 187.138 22.104 186.546 21.944C185.954 21.8 185.434 21.568 184.986 21.248C184.538 20.944 184.178 20.552 183.906 20.072C183.65 19.608 183.522 19.048 183.522 18.392ZM191.346 18.392C191.346 17.752 191.082 17.256 190.554 16.904C190.026 16.552 189.314 16.376 188.418 16.376C187.506 16.376 186.786 16.552 186.258 16.904C185.746 17.256 185.49 17.752 185.49 18.392C185.49 19.032 185.746 19.536 186.258 19.904C186.786 20.256 187.506 20.424 188.418 20.408C189.314 20.408 190.026 20.232 190.554 19.88C191.082 19.528 191.346 19.032 191.346 18.392ZM205.129 11.072C205.129 12.032 205.041 12.968 204.865 13.88C204.705 14.792 204.481 15.648 204.193 16.448C203.905 17.264 203.569 18.016 203.185 18.704C202.801 19.376 202.401 19.96 201.985 20.456C201.857 20.6 201.673 20.68 201.433 20.696C201.209 20.728 200.993 20.648 200.785 20.456C200.593 20.312 200.481 20.144 200.449 19.952C200.417 19.744 200.449 19.568 200.545 19.424C201.553 18.032 202.241 16.632 202.609 15.224C202.977 13.8 203.161 12.416 203.161 11.072C203.161 9.744 202.977 8.368 202.609 6.944C202.241 5.52 201.553 4.112 200.545 2.72C200.449 2.576 200.417 2.408 200.449 2.216C200.481 2.008 200.593 1.832 200.785 1.688C200.993 1.512 201.209 1.432 201.433 1.448C201.673 1.464 201.857 1.544 201.985 1.688C202.401 2.2 202.801 2.808 203.185 3.512C203.569 4.216 203.905 4.984 204.193 5.816C204.481 6.632 204.705 7.496 204.865 8.408C205.041 9.304 205.129 10.192 205.129 11.072Z" fill="#E276A4"/>
</svg>
