<svg width="348" height="100" viewBox="0 0 348 100" fill="none" xmlns="http://www.w3.org/2000/svg">
<rect width="348" height="100" rx="5" fill="#E276A4"/>
<path d="M124.412 45.984C124.268 46.848 124.088 47.688 123.872 48.504C123.68 49.296 123.464 50.052 123.224 50.772C124.304 51.852 125.432 53.04 126.608 54.336C127.784 55.632 128.732 56.82 129.452 57.9C129.596 58.14 129.584 58.428 129.416 58.764C129.272 59.076 129.092 59.304 128.876 59.448C128.588 59.664 128.264 59.76 127.904 59.736C127.568 59.688 127.316 59.544 127.148 59.304C126.26 58.224 125.372 57.228 124.484 56.316C123.596 55.404 122.72 54.564 121.856 53.796C121.136 55.092 120.32 56.232 119.408 57.216C118.52 58.2 117.572 59.016 116.564 59.664C116.276 59.856 115.976 59.976 115.664 60.024C115.376 60.072 115.052 60.024 114.692 59.88C114.332 59.784 114.116 59.58 114.044 59.268C113.972 58.932 114.128 58.596 114.512 58.26C116.36 56.724 117.824 55.008 118.904 53.112C120.008 51.192 120.812 49.08 121.316 46.776C121.412 46.272 121.472 45.78 121.496 45.3C121.544 44.82 121.592 44.388 121.64 44.004C121.664 43.62 121.724 43.296 121.82 43.032C121.94 42.768 122.132 42.588 122.396 42.492C122.756 42.396 123.068 42.456 123.332 42.672C123.62 42.864 123.848 43.152 124.016 43.536C124.184 43.92 124.304 44.34 124.376 44.796C124.448 45.228 124.46 45.624 124.412 45.984ZM131.864 37.812C132.2 37.524 132.596 37.44 133.052 37.56C133.508 37.68 133.868 37.884 134.132 38.172C134.612 38.724 134.996 39.348 135.284 40.044C135.596 40.716 135.752 41.412 135.752 42.132L135.644 50.34C136.148 50.316 136.652 50.292 137.156 50.268C137.66 50.22 138.188 50.172 138.74 50.124C138.86 50.124 138.992 50.124 139.136 50.124C139.28 50.124 139.424 50.124 139.568 50.124C139.712 50.124 139.856 50.124 140 50.124C140.144 50.124 140.288 50.124 140.432 50.124C140.912 50.148 141.236 50.292 141.404 50.556C141.572 50.82 141.656 51.096 141.656 51.384C141.656 51.864 141.512 52.212 141.224 52.428C140.96 52.644 140.66 52.764 140.324 52.788C140.228 52.812 140.144 52.824 140.072 52.824C140 52.8 139.904 52.776 139.784 52.752C139.688 52.728 139.544 52.716 139.352 52.716C139.184 52.692 138.968 52.68 138.704 52.68C138.44 52.704 138.176 52.716 137.912 52.716C137.672 52.716 137.432 52.716 137.192 52.716C136.928 52.74 136.664 52.752 136.4 52.752C136.136 52.752 135.872 52.752 135.608 52.752L135.464 64.272C135.44 64.632 135.404 65.04 135.356 65.496C135.308 65.928 135.236 66.336 135.14 66.72C135.02 67.128 134.852 67.464 134.636 67.728C134.42 68.016 134.156 68.172 133.844 68.196C133.58 68.244 133.364 68.148 133.196 67.908C133.028 67.668 132.896 67.38 132.8 67.044C132.68 66.708 132.596 66.36 132.548 66C132.524 65.616 132.512 65.292 132.512 65.028L132.656 43.212C132.656 42.852 132.62 42.432 132.548 41.952C132.5 41.472 132.392 41.052 132.224 40.692C132.104 40.476 131.984 40.248 131.864 40.008C131.744 39.744 131.648 39.48 131.576 39.216C131.504 38.952 131.48 38.7 131.504 38.46C131.552 38.22 131.672 38.004 131.864 37.812ZM143.413 42.816C143.461 42.672 143.545 42.564 143.665 42.492C143.785 42.42 143.929 42.36 144.097 42.312C144.265 42.288 144.457 42.276 144.673 42.276C144.913 42.276 145.177 42.252 145.465 42.204C145.897 42.18 146.413 42.144 147.013 42.096C147.613 42.048 148.249 42 148.921 41.952C149.617 41.88 150.325 41.808 151.045 41.736C151.765 41.664 152.461 41.568 153.133 41.448C153.373 41.448 153.625 41.46 153.889 41.484C154.177 41.508 154.441 41.592 154.681 41.736C154.969 41.904 155.221 42.144 155.437 42.456C155.653 42.768 155.725 43.068 155.653 43.356C155.413 44.412 155.053 45.456 154.573 46.488C154.093 47.496 153.553 48.468 152.953 49.404C153.889 50.22 154.801 51.048 155.689 51.888C156.601 52.728 157.357 53.532 157.957 54.3C158.101 54.516 158.113 54.792 157.993 55.128C157.873 55.464 157.705 55.716 157.489 55.884C157.201 56.1 156.901 56.208 156.589 56.208C156.277 56.208 156.025 56.1 155.833 55.884C155.065 55.116 154.297 54.384 153.529 53.688C152.761 52.992 151.993 52.356 151.225 51.78C150.361 52.836 149.473 53.76 148.561 54.552C147.649 55.32 146.821 55.884 146.077 56.244C145.789 56.388 145.489 56.496 145.177 56.568C144.889 56.64 144.565 56.604 144.205 56.46C143.845 56.364 143.617 56.148 143.521 55.812C143.449 55.476 143.617 55.152 144.025 54.84C145.897 53.376 147.577 51.744 149.065 49.944C150.577 48.144 151.681 46.164 152.377 44.004C151.801 44.076 151.249 44.148 150.721 44.22C150.193 44.292 149.677 44.352 149.173 44.4C148.645 44.472 148.117 44.544 147.589 44.616C147.085 44.664 146.581 44.712 146.077 44.76C145.693 44.832 145.321 44.82 144.961 44.724C144.601 44.628 144.289 44.484 144.025 44.292C143.761 44.1 143.569 43.872 143.449 43.608C143.329 43.344 143.317 43.08 143.413 42.816ZM161.557 37.812C161.893 37.524 162.289 37.452 162.745 37.596C163.201 37.716 163.561 37.92 163.825 38.208C164.305 38.736 164.689 39.348 164.977 40.044C165.289 40.716 165.445 41.412 165.445 42.132L165.157 57.468C165.133 57.828 165.097 58.236 165.049 58.692C165.001 59.124 164.929 59.532 164.833 59.916C164.713 60.324 164.545 60.672 164.329 60.96C164.113 61.224 163.849 61.368 163.537 61.392C163.273 61.416 163.057 61.32 162.889 61.104C162.721 60.864 162.589 60.564 162.493 60.204C162.373 59.868 162.289 59.52 162.241 59.16C162.217 58.8 162.205 58.488 162.205 58.224L162.349 43.212C162.349 42.852 162.313 42.432 162.241 41.952C162.193 41.472 162.085 41.052 161.917 40.692C161.797 40.476 161.677 40.248 161.557 40.008C161.437 39.744 161.341 39.48 161.269 39.216C161.197 38.952 161.173 38.7 161.197 38.46C161.245 38.22 161.365 38.004 161.557 37.812ZM148.561 61.032C148.441 60.744 148.393 60.42 148.417 60.06C148.465 59.676 148.717 59.376 149.173 59.16C149.437 59.016 149.749 58.98 150.109 59.052C150.469 59.1 150.733 59.256 150.901 59.52C151.093 59.856 151.261 60.288 151.405 60.816C151.573 61.344 151.729 61.896 151.873 62.472C151.993 63.072 152.089 63.672 152.161 64.272C152.257 64.872 152.341 65.412 152.413 65.892C154.501 66.18 156.625 66.3 158.785 66.252C160.969 66.204 162.961 66.108 164.761 65.964C165.193 65.94 165.505 66.036 165.697 66.252C165.913 66.492 166.033 66.768 166.057 67.08C166.057 67.512 165.937 67.848 165.697 68.088C165.481 68.328 165.229 68.46 164.941 68.484C162.997 68.748 160.981 68.88 158.893 68.88C156.805 68.88 154.777 68.772 152.809 68.556C152.521 68.532 152.197 68.484 151.837 68.412C151.501 68.34 151.177 68.22 150.865 68.052C150.553 67.884 150.277 67.656 150.037 67.368C149.797 67.08 149.641 66.708 149.569 66.252C149.473 65.82 149.389 65.364 149.317 64.884C149.245 64.38 149.173 63.9 149.101 63.444C149.005 62.988 148.909 62.556 148.813 62.148C148.741 61.716 148.657 61.344 148.561 61.032ZM179.063 42.456C179.135 42.288 179.243 42.168 179.387 42.096C179.531 42.024 179.699 41.976 179.891 41.952C180.083 41.928 180.275 41.916 180.467 41.916C180.683 41.916 180.887 41.892 181.079 41.844C181.871 41.748 182.699 41.628 183.563 41.484C184.451 41.34 185.243 41.184 185.939 41.016C186.179 40.944 186.431 40.944 186.695 41.016C186.983 41.064 187.247 41.148 187.487 41.268C187.607 41.34 187.727 41.436 187.847 41.556C187.967 41.652 188.075 41.76 188.171 41.88C188.243 41.88 188.303 41.88 188.351 41.88C188.399 41.88 188.459 41.868 188.531 41.844C188.867 41.796 189.227 41.736 189.611 41.664C190.019 41.592 190.439 41.52 190.871 41.448C191.279 41.376 191.675 41.304 192.059 41.232C192.467 41.16 192.851 41.076 193.211 40.98C193.451 40.908 193.703 40.908 193.967 40.98C194.255 41.028 194.519 41.112 194.759 41.232C195.047 41.4 195.299 41.652 195.515 41.988C195.731 42.3 195.803 42.6 195.731 42.888C195.467 43.896 195.155 44.88 194.795 45.84C194.435 46.776 194.015 47.676 193.535 48.54C194.255 49.188 194.927 49.86 195.551 50.556C196.175 51.252 196.703 51.912 197.135 52.536C197.279 52.752 197.327 53.016 197.279 53.328C197.231 53.64 197.087 53.904 196.847 54.12C196.559 54.36 196.247 54.48 195.911 54.48C195.575 54.48 195.311 54.36 195.119 54.12C194.615 53.544 194.111 53.016 193.607 52.536C193.127 52.032 192.587 51.528 191.987 51.024C191.507 51.696 191.003 52.332 190.475 52.932C189.947 53.532 189.407 54.084 188.855 54.588C188.615 54.804 188.327 54.948 187.991 55.02C187.679 55.068 187.343 54.996 186.983 54.804C186.743 54.684 186.539 54.504 186.371 54.264C186.227 54 186.323 53.676 186.659 53.292L187.739 51.996C187.379 51.636 186.983 51.264 186.551 50.88C186.143 50.496 185.687 50.088 185.183 49.656C184.607 50.496 184.007 51.252 183.383 51.924C182.759 52.596 182.159 53.172 181.583 53.652C181.319 53.868 181.031 54.012 180.719 54.084C180.407 54.132 180.071 54.06 179.711 53.868C179.471 53.748 179.267 53.556 179.099 53.292C178.931 53.028 179.027 52.716 179.387 52.356C180.923 50.82 182.147 49.344 183.059 47.928C183.995 46.512 184.715 45.108 185.219 43.716C184.883 43.788 184.571 43.86 184.283 43.932C183.995 43.98 183.719 44.028 183.455 44.076C183.167 44.124 182.879 44.172 182.591 44.22C182.327 44.268 182.039 44.328 181.727 44.4C181.319 44.496 180.935 44.496 180.575 44.4C180.215 44.304 179.903 44.148 179.639 43.932C179.351 43.74 179.147 43.512 179.027 43.248C178.931 42.984 178.943 42.72 179.063 42.456ZM187.991 44.364C187.799 44.868 187.595 45.36 187.379 45.84C187.163 46.32 186.935 46.788 186.695 47.244C186.935 47.484 187.175 47.724 187.415 47.964C187.655 48.18 187.895 48.396 188.135 48.612C188.375 48.828 188.591 49.044 188.783 49.26C188.999 49.476 189.203 49.692 189.395 49.908C190.043 49.02 190.631 48.084 191.159 47.1C191.687 46.092 192.131 44.952 192.491 43.68C192.299 43.728 192.059 43.776 191.771 43.824C191.507 43.872 191.207 43.92 190.871 43.968C190.559 44.04 190.223 44.1 189.863 44.148C189.503 44.196 189.167 44.256 188.855 44.328C188.711 44.376 188.567 44.4 188.423 44.4C188.279 44.4 188.135 44.388 187.991 44.364ZM199.295 37.812C199.631 37.524 200.027 37.452 200.483 37.596C200.939 37.716 201.299 37.92 201.563 38.208C202.043 38.76 202.427 39.384 202.715 40.08C203.027 40.752 203.183 41.448 203.183 42.168L202.895 52.068C202.871 52.428 202.835 52.824 202.787 53.256C202.739 53.688 202.667 54.108 202.571 54.516C202.451 54.9 202.283 55.236 202.067 55.524C201.851 55.788 201.587 55.932 201.275 55.956C201.011 56.004 200.795 55.908 200.627 55.668C200.459 55.428 200.327 55.14 200.231 54.804C200.111 54.468 200.027 54.12 199.979 53.76C199.955 53.4 199.943 53.088 199.943 52.824L200.087 43.212C200.087 42.876 200.051 42.468 199.979 41.988C199.931 41.484 199.823 41.052 199.655 40.692C199.439 40.284 199.223 39.792 199.007 39.216C198.815 38.64 198.911 38.172 199.295 37.812ZM186.371 58.476C186.443 58.332 186.587 58.224 186.803 58.152C187.043 58.08 187.319 58.032 187.631 58.008C187.943 58.008 188.255 58.008 188.567 58.008C188.879 58.008 189.167 57.996 189.431 57.972C189.911 57.972 190.595 57.96 191.483 57.936C192.371 57.888 193.307 57.84 194.291 57.792C195.275 57.768 196.247 57.744 197.207 57.72C198.191 57.672 199.019 57.624 199.691 57.576C199.883 57.576 200.075 57.576 200.267 57.576C200.459 57.552 200.663 57.54 200.879 57.54C201.071 57.564 201.263 57.612 201.455 57.684C201.671 57.756 201.887 57.876 202.103 58.044C202.295 58.212 202.451 58.44 202.571 58.728C202.691 59.016 202.751 59.256 202.751 59.448L202.391 65.64C202.367 66 202.307 66.372 202.211 66.756C202.139 67.164 202.031 67.536 201.887 67.872C201.743 68.184 201.563 68.448 201.347 68.664C201.155 68.88 200.939 68.976 200.699 68.952C200.267 68.952 199.991 68.688 199.871 68.16C199.751 67.656 199.691 67.128 199.691 66.576L199.763 60.096L188.567 60.564C187.775 60.612 187.163 60.372 186.731 59.844C186.299 59.316 186.179 58.86 186.371 58.476ZM208.144 45.156C208.192 45.012 208.276 44.904 208.396 44.832C208.516 44.76 208.66 44.7 208.828 44.652C208.996 44.628 209.188 44.616 209.404 44.616C209.644 44.616 209.908 44.592 210.196 44.544C210.628 44.52 211.18 44.484 211.852 44.436C212.524 44.388 213.244 44.34 214.012 44.292C214.804 44.22 215.596 44.148 216.388 44.076C217.18 44.004 217.912 43.908 218.584 43.788C218.824 43.788 219.076 43.8 219.34 43.824C219.628 43.848 219.892 43.932 220.132 44.076C220.42 44.244 220.66 44.484 220.852 44.796C221.068 45.108 221.152 45.408 221.104 45.696C220.768 47.208 220.228 48.708 219.484 50.196C218.74 51.684 217.912 53.064 217 54.336C216.088 55.608 215.14 56.724 214.156 57.684C213.196 58.62 212.32 59.28 211.528 59.664C211.24 59.808 210.94 59.916 210.628 59.988C210.34 60.06 210.016 60.024 209.656 59.88C209.296 59.784 209.068 59.568 208.972 59.232C208.9 58.896 209.068 58.572 209.476 58.26C211.348 56.796 212.992 55.092 214.408 53.148C215.824 51.204 216.964 48.936 217.828 46.344C217.252 46.416 216.664 46.488 216.064 46.56C215.464 46.632 214.864 46.692 214.264 46.74C213.64 46.812 213.028 46.884 212.428 46.956C211.852 47.004 211.312 47.052 210.808 47.1C210.424 47.172 210.052 47.16 209.692 47.064C209.332 46.968 209.02 46.824 208.756 46.632C208.492 46.44 208.3 46.212 208.18 45.948C208.06 45.684 208.048 45.42 208.144 45.156ZM225.928 37.812C226.264 37.524 226.66 37.44 227.116 37.56C227.572 37.68 227.932 37.884 228.196 38.172C228.676 38.724 229.06 39.348 229.348 40.044C229.66 40.716 229.816 41.412 229.816 42.132L229.528 64.272C229.504 64.632 229.468 65.04 229.42 65.496C229.372 65.928 229.3 66.336 229.204 66.72C229.084 67.128 228.916 67.464 228.7 67.728C228.484 68.016 228.22 68.172 227.908 68.196C227.644 68.244 227.428 68.148 227.26 67.908C227.092 67.668 226.96 67.38 226.864 67.044C226.744 66.708 226.66 66.36 226.612 66C226.588 65.616 226.576 65.292 226.576 65.028L226.72 43.212C226.72 42.852 226.684 42.432 226.612 41.952C226.564 41.472 226.456 41.052 226.288 40.692C226.168 40.476 226.048 40.248 225.928 40.008C225.808 39.744 225.712 39.48 225.64 39.216C225.568 38.952 225.544 38.7 225.568 38.46C225.616 38.22 225.736 38.004 225.928 37.812Z" fill="white"/>
</svg>
